<svg width="2032" height="1129" xmlns="http://www.w3.org/2000/svg" xmlns:xlink="http://www.w3.org/1999/xlink" xml:space="preserve" overflow="hidden"><defs><clipPath id="clip0"><rect x="158" y="130" width="2032" height="1129"/></clipPath><clipPath id="clip1"><rect x="371" y="281" width="1794" height="797"/></clipPath><linearGradient x1="1265.5" y1="414.5" x2="1265.5" y2="1071.5" gradientUnits="userSpaceOnUse" spreadMethod="reflect" id="fill2"><stop offset="0" stop-color="#6083CB"/><stop offset="0.5" stop-color="#3E70CA"/><stop offset="1" stop-color="#2E61BA"/></linearGradient><clipPath id="clip3"><rect x="941" y="1181" width="654" height="52"/></clipPath><clipPath id="clip4"><rect x="182" y="342" width="52" height="675"/></clipPath><clipPath id="clip5"><rect x="-790" y="154" width="3927" height="92"/></clipPath></defs><g clip-path="url(#clip0)" transform="translate(-158 -130)"><path d="M158.5 130.5 2189.5 130.5 2189.5 1257.5 158.5 1257.5Z" fill="#404040"/><g clip-path="url(#clip1)"><path d="M377.5 959.5 2159.5 959.5" stroke="#F2F2F2" stroke-width="3.4375" stroke-miterlimit="2" stroke-opacity="0.101961" fill="none"/><path d="M377.5 847.5 2159.5 847.5" stroke="#F2F2F2" stroke-width="3.4375" stroke-miterlimit="2" stroke-opacity="0.101961" fill="none"/><path d="M377.5 735.5 2159.5 735.5" stroke="#F2F2F2" stroke-width="3.4375" stroke-miterlimit="2" stroke-opacity="0.101961" fill="none"/><path d="M377.5 623.5 2159.5 623.5" stroke="#F2F2F2" stroke-width="3.4375" stroke-miterlimit="2" stroke-opacity="0.101961" fill="none"/><path d="M377.5 511.5 2159.5 511.5" stroke="#F2F2F2" stroke-width="3.4375" stroke-miterlimit="2" stroke-opacity="0.101961" fill="none"/><path d="M377.5 399.5 2159.5 399.5" stroke="#F2F2F2" stroke-width="3.4375" stroke-miterlimit="2" stroke-opacity="0.101961" fill="none"/><path d="M377.5 287.5 2159.5 287.5" stroke="#F2F2F2" stroke-width="3.4375" stroke-miterlimit="2" stroke-opacity="0.101961" fill="none"/><path d="M375.5 1045.5 574.5 1045.5 574.5 1071.5 375.5 1071.5ZM574.5 958.5 770.5 958.5 770.5 1071.5 574.5 1071.5ZM770.5 762.5 969.5 762.5 969.5 1071.5 770.5 1071.5ZM969.5 609.5 1169.5 609.5 1169.5 1071.5 969.5 1071.5ZM1169.5 440.5 1365.5 440.5 1365.5 1071.5 1169.5 1071.5ZM1365.5 414.5 1564.5 414.5 1564.5 1071.5 1365.5 1071.5ZM1564.5 620.5 1760.5 620.5 1760.5 1071.5 1564.5 1071.5ZM1760.5 944.5 1959.5 944.5 1959.5 1071.5 1760.5 1071.5ZM1959.5 1046.5 2155.5 1046.5 2155.5 1071.5 1959.5 1071.5Z" stroke="#000000" stroke-width="3.4375" stroke-linejoin="round" stroke-miterlimit="10" fill="url(#fill2)"/><text fill="#F2F2F2" font-family="Calibri,Calibri_MSFontService,sans-serif" font-weight="400" font-size="12" transform="matrix(3.4375 0 0 3.4375 453.746 994.445)" x="0.121591" y="3.34746">47<tspan font-size="12" x="54.5383" y="-21.9331">202</tspan><tspan font-size="12" x="112.038" y="-78.9798">552</tspan><tspan font-size="12" x="170.038" y="-123.486">825</tspan><tspan font-size="12" x="224.455" y="-172.499">1126</tspan><tspan font-size="12" x="281.955" y="-180.017">1172</tspan><tspan font-size="12" x="342.538" y="-120.159">805</tspan><tspan font-size="12" x="400.038" y="-26.0078">227</tspan><tspan font-size="12" x="460.622" y="3.8635">44</tspan></text></g><g clip-path="url(#clip3)"><text fill="#F2F2F2" font-family="Calibri,Calibri_MSFontService,sans-serif" font-weight="400" font-size="41" transform="translate(1221.64 1221)">WPM</text></g><text fill="#FFFFFF" font-family="Calibri,Calibri_MSFontService,sans-serif" font-weight="400" font-size="12" transform="matrix(3.4375 0 0 3.4375 440.244 1101.34)" x="0.166761" y="3.35625">≤ 50<tspan font-size="12" x="49.3492" y="3.35625">(50, 60]</tspan><tspan font-size="12" x="106.937" y="3.35625">(60, 70]</tspan><tspan font-size="12" x="164.524" y="3.35625">(70, 80]</tspan><tspan font-size="12" x="222.112" y="3.35625">(80, 90]</tspan><tspan font-size="12" x="276.616" y="3.35625">(90, 100]</tspan><tspan font-size="12" x="331.266" y="3.35625">(100, 110]</tspan><tspan font-size="12" x="388.854" y="3.35625">(110, 120]</tspan><tspan font-size="12" x="457.785" y="3.35625">&gt; 120</tspan></text><path d="M377.5 1071.5 377.5 287.5" stroke="#F2F2F2" stroke-width="4.58333" stroke-miterlimit="2" stroke-opacity="0.541176" fill="none"/><g clip-path="url(#clip4)"><text fill="#F2F2F2" font-family="Calibri,Calibri_MSFontService,sans-serif" font-weight="400" font-size="41" transform="matrix(-1.83697e-16 -1 1 -1.83697e-16 222.006 727)">Races</text></g><text fill="#F2F2F2" font-family="Calibri,Calibri_MSFontService,sans-serif" font-weight="400" font-size="12" transform="matrix(3.4375 0 0 3.4375 326.65 1046.21)" x="0.133523" y="3.36715">0<tspan font-size="12" x="-12.176" y="-29.231">200</tspan><tspan font-size="12" x="-12.176" y="-61.8292">400</tspan><tspan font-size="12" x="-12.176" y="-94.4273">600</tspan><tspan font-size="12" x="-12.176" y="-127.026">800</tspan><tspan font-size="12" x="-18.3308" y="-159.624">1000</tspan><tspan font-size="12" x="-18.3308" y="-192.222">1200</tspan><tspan font-size="12" x="-18.3308" y="-224.82">1400</tspan></text><g clip-path="url(#clip5)"><text fill="#F2F2F2" font-family="Calibri,Calibri_MSFontService,sans-serif" font-weight="700" font-size="73" transform="translate(893.373 225)">WPM Histogram</text></g><path d="M158 131 2189.56 131 2189.56 1258.5 158 1258.5Z" fill="#000000" fill-rule="evenodd" fill-opacity="0"/></g></svg>