<svg width="1286" height="1285" xmlns="http://www.w3.org/2000/svg" xmlns:xlink="http://www.w3.org/1999/xlink" xml:space="preserve" overflow="hidden"><defs><filter id="fx0" x="-10%" y="-10%" width="120%" height="120%" filterUnits="userSpaceOnUse" primitiveUnits="userSpaceOnUse"><feComponentTransfer color-interpolation-filters="sRGB"><feFuncR type="discrete" tableValues="0 0"/><feFuncG type="discrete" tableValues="0 0"/><feFuncB type="discrete" tableValues="0 0"/><feFuncA type="linear" slope="0.631373" intercept="0"/></feComponentTransfer><feGaussianBlur stdDeviation="6.875 6.875"/></filter><filter id="fx1" x="-10%" y="-10%" width="120%" height="120%" filterUnits="userSpaceOnUse" primitiveUnits="userSpaceOnUse"><feComponentTransfer color-interpolation-filters="sRGB"><feFuncR type="discrete" tableValues="0 0"/><feFuncG type="discrete" tableValues="0 0"/><feFuncB type="discrete" tableValues="0 0"/><feFuncA type="linear" slope="0.631373" intercept="0"/></feComponentTransfer><feGaussianBlur stdDeviation="6.875 6.875"/></filter><filter id="fx2" x="-10%" y="-10%" width="120%" height="120%" filterUnits="userSpaceOnUse" primitiveUnits="userSpaceOnUse"><feComponentTransfer color-interpolation-filters="sRGB"><feFuncR type="discrete" tableValues="0 0"/><feFuncG type="discrete" tableValues="0 0"/><feFuncB type="discrete" tableValues="0 0"/><feFuncA type="linear" slope="0.631373" intercept="0"/></feComponentTransfer><feGaussianBlur stdDeviation="6.875 6.875"/></filter><filter id="fx3" x="-10%" y="-10%" width="120%" height="120%" filterUnits="userSpaceOnUse" primitiveUnits="userSpaceOnUse"><feComponentTransfer color-interpolation-filters="sRGB"><feFuncR type="discrete" tableValues="0 0"/><feFuncG type="discrete" tableValues="0 0"/><feFuncB type="discrete" tableValues="0 0"/><feFuncA type="linear" slope="0.631373" intercept="0"/></feComponentTransfer><feGaussianBlur stdDeviation="6.875 6.875"/></filter><filter id="fx4" x="-10%" y="-10%" width="120%" height="120%" filterUnits="userSpaceOnUse" primitiveUnits="userSpaceOnUse"><feComponentTransfer color-interpolation-filters="sRGB"><feFuncR type="discrete" tableValues="0 0"/><feFuncG type="discrete" tableValues="0 0"/><feFuncB type="discrete" tableValues="0 0"/><feFuncA type="linear" slope="0.631373" intercept="0"/></feComponentTransfer><feGaussianBlur stdDeviation="6.875 6.875"/></filter><filter id="fx5" x="-10%" y="-10%" width="120%" height="120%" filterUnits="userSpaceOnUse" primitiveUnits="userSpaceOnUse"><feComponentTransfer color-interpolation-filters="sRGB"><feFuncR type="discrete" tableValues="0 0"/><feFuncG type="discrete" tableValues="0 0"/><feFuncB type="discrete" tableValues="0 0"/><feFuncA type="linear" slope="0.631373" intercept="0"/></feComponentTransfer><feGaussianBlur stdDeviation="6.875 6.875"/></filter><filter id="fx6" x="-10%" y="-10%" width="120%" height="120%" filterUnits="userSpaceOnUse" primitiveUnits="userSpaceOnUse"><feComponentTransfer color-interpolation-filters="sRGB"><feFuncR type="discrete" tableValues="1 1"/><feFuncG type="discrete" tableValues="1 1"/><feFuncB type="discrete" tableValues="1 1"/><feFuncA type="linear" slope="1" intercept="0"/></feComponentTransfer><feGaussianBlur stdDeviation="1.82716 1.82716"/></filter><filter id="fx7" x="-10%" y="-10%" width="120%" height="120%" filterUnits="userSpaceOnUse" primitiveUnits="userSpaceOnUse"><feComponentTransfer color-interpolation-filters="sRGB"><feFuncR type="discrete" tableValues="1 1"/><feFuncG type="discrete" tableValues="1 1"/><feFuncB type="discrete" tableValues="1 1"/><feFuncA type="linear" slope="1" intercept="0"/></feComponentTransfer><feGaussianBlur stdDeviation="1.82716 1.82716"/></filter><filter id="fx8" x="-10%" y="-10%" width="120%" height="120%" filterUnits="userSpaceOnUse" primitiveUnits="userSpaceOnUse"><feComponentTransfer color-interpolation-filters="sRGB"><feFuncR type="discrete" tableValues="1 1"/><feFuncG type="discrete" tableValues="1 1"/><feFuncB type="discrete" tableValues="1 1"/><feFuncA type="linear" slope="1" intercept="0"/></feComponentTransfer><feGaussianBlur stdDeviation="1.82716 1.82716"/></filter><clipPath id="clip9"><rect x="3190" y="3362" width="1286" height="1285"/></clipPath><clipPath id="clip10"><rect x="3190" y="3361" width="1285" height="1286"/></clipPath><clipPath id="clip11"><rect x="-3" y="-3" width="52" height="505"/></clipPath><clipPath id="clip12"><rect x="0" y="0" width="47" height="499"/></clipPath><clipPath id="clip13"><rect x="3190" y="3361" width="1285" height="1286"/></clipPath><clipPath id="clip14"><rect x="-3" y="-3" width="159" height="505"/></clipPath><clipPath id="clip15"><rect x="0" y="0" width="153" height="499"/></clipPath><clipPath id="clip16"><rect x="3190" y="3361" width="1285" height="1286"/></clipPath><clipPath id="clip17"><rect x="-3" y="-3" width="332" height="490"/></clipPath><clipPath id="clip18"><rect x="0" y="0" width="327" height="486"/></clipPath><clipPath id="clip19"><rect x="3190" y="3361" width="1285" height="1286"/></clipPath><clipPath id="clip20"><rect x="-3" y="-3" width="505" height="582"/></clipPath><clipPath id="clip21"><rect x="0" y="0" width="499" height="576"/></clipPath><clipPath id="clip22"><rect x="3190" y="3361" width="1285" height="1286"/></clipPath><clipPath id="clip23"><rect x="-3" y="-3" width="925" height="958"/></clipPath><clipPath id="clip24"><rect x="0" y="0" width="918" height="954"/></clipPath><clipPath id="clip25"><rect x="3190" y="3361" width="1285" height="1286"/></clipPath><clipPath id="clip26"><rect x="-3" y="-3" width="52" height="505"/></clipPath><clipPath id="clip27"><rect x="0" y="0" width="45" height="499"/></clipPath><clipPath id="clip28"><rect x="3190" y="3361" width="1285" height="1286"/></clipPath><linearGradient x1="3834.24" y1="3615.23" x2="3834.24" y2="4070.07" gradientUnits="userSpaceOnUse" spreadMethod="reflect" id="fill29"><stop offset="0" stop-color="#6083CB"/><stop offset="0.5" stop-color="#3E70CA"/><stop offset="1" stop-color="#2E61BA"/></linearGradient><clipPath id="clip30"><rect x="3190" y="3361" width="1285" height="1286"/></clipPath><linearGradient x1="3887.43" y1="3615.24" x2="3887.43" y2="4070.07" gradientUnits="userSpaceOnUse" spreadMethod="reflect" id="fill31"><stop offset="0" stop-color="#F18C55"/><stop offset="0.5" stop-color="#F67B28"/><stop offset="1" stop-color="#E56B17"/></linearGradient><clipPath id="clip32"><rect x="3190" y="3361" width="1285" height="1286"/></clipPath><linearGradient x1="3974.22" y1="3628.54" x2="3974.22" y2="4070.07" gradientUnits="userSpaceOnUse" spreadMethod="reflect" id="fill33"><stop offset="0" stop-color="#AFAFAF"/><stop offset="0.5" stop-color="#A5A5A5"/><stop offset="1" stop-color="#929292"/></linearGradient><clipPath id="clip34"><rect x="3190" y="3361" width="1285" height="1286"/></clipPath><linearGradient x1="4060.25" y1="3713.85" x2="4060.25" y2="4245.97" gradientUnits="userSpaceOnUse" spreadMethod="reflect" id="fill35"><stop offset="0" stop-color="#FFC746"/><stop offset="0.5" stop-color="#FFC600"/><stop offset="1" stop-color="#E5B600"/></linearGradient><clipPath id="clip36"><rect x="3190" y="3361" width="1285" height="1286"/></clipPath><linearGradient x1="3815.06" y1="3615.23" x2="3815.06" y2="4525.02" gradientUnits="userSpaceOnUse" spreadMethod="reflect" id="fill37"><stop offset="0" stop-color="#71A6DB"/><stop offset="0.5" stop-color="#559BDB"/><stop offset="1" stop-color="#438AC9"/></linearGradient><clipPath id="clip38"><rect x="3190" y="3361" width="1285" height="1286"/></clipPath><linearGradient x1="3832.24" y1="3615.23" x2="3832.24" y2="4070.07" gradientUnits="userSpaceOnUse" spreadMethod="reflect" id="fill39"><stop offset="0" stop-color="#81B861"/><stop offset="0.5" stop-color="#6FB242"/><stop offset="1" stop-color="#61A235"/></linearGradient><clipPath id="clip40"><rect x="3190" y="3361" width="1285" height="1286"/></clipPath><clipPath id="clip41"><rect x="3190" y="3361" width="1285" height="1286"/></clipPath><clipPath id="clip42"><rect x="3190" y="3361" width="1285" height="1286"/></clipPath><clipPath id="clip43"><rect x="3190" y="3361" width="1285" height="1286"/></clipPath><clipPath id="clip44"><rect x="3190" y="3361" width="1285" height="1286"/></clipPath><clipPath id="clip45"><rect x="3190" y="3361" width="1285" height="1286"/></clipPath><clipPath id="clip46"><rect x="3190" y="3361" width="1285" height="1286"/></clipPath><clipPath id="clip47"><rect x="25" y="23" width="36" height="44"/></clipPath><clipPath id="clip48"><rect x="0" y="0" width="86" height="103"/></clipPath><clipPath id="clip49"><rect x="3190" y="3361" width="1285" height="1286"/></clipPath><clipPath id="clip50"><rect x="28" y="23" width="95" height="44"/></clipPath><clipPath id="clip51"><rect x="0" y="0" width="150" height="103"/></clipPath><clipPath id="clip52"><rect x="3190" y="3361" width="1285" height="1286"/></clipPath><clipPath id="clip53"><rect x="28" y="23" width="83" height="44"/></clipPath><clipPath id="clip54"><rect x="0" y="0" width="138" height="103"/></clipPath><clipPath id="clip55"><rect x="3190" y="3361" width="1285" height="1286"/></clipPath><clipPath id="clip56"><rect x="3190" y="3361" width="1285" height="1286"/></clipPath><clipPath id="clip57"><rect x="3190" y="3361" width="1285" height="1286"/></clipPath><clipPath id="clip58"><rect x="3190" y="3361" width="1285" height="1286"/></clipPath></defs><g clip-path="url(#clip9)" transform="translate(-3190 -3362)"><rect x="3190" y="3362" width="1286" height="1285" fill="#404040"/><g clip-path="url(#clip10)"><g clip-path="url(#clip11)" filter="url(#fx0)" transform="translate(3811 3600)"><g clip-path="url(#clip12)"><path d="M21.8126 22.1079C22.7652 22.1079 23.7178 22.1109 24.6704 22.1169L21.8126 476.943Z" fill="#FF0000" fill-rule="evenodd"/></g></g></g><g clip-path="url(#clip13)"><g clip-path="url(#clip14)" filter="url(#fx1)" transform="translate(3811 3600)"><g clip-path="url(#clip15)"><path d="M24.6707 22.1169C60.5297 22.3422 96.2362 26.8074 131.046 35.4194L21.8126 476.943Z" fill="#FF0000" fill-rule="evenodd"/></g></g></g><g clip-path="url(#clip16)"><g clip-path="url(#clip17)" filter="url(#fx2)" transform="translate(3811 3613)"><g clip-path="url(#clip18)"><path d="M131.046 22.4197C194.354 38.0823 253.554 67.1764 304.631 107.729L21.8126 463.943Z" fill="#FF0000" fill-rule="evenodd"/></g></g></g><g clip-path="url(#clip19)"><g clip-path="url(#clip20)" filter="url(#fx3)" transform="translate(3811 3699)"><g clip-path="url(#clip21)"><path d="M304.631 21.7282C464.249 148.458 520.078 365.897 441.256 553.848L21.8126 377.943Z" fill="#FF0000" fill-rule="evenodd"/></g></g></g><g clip-path="url(#clip22)"><g clip-path="url(#clip23)" filter="url(#fx4)" transform="translate(3356 3600)"><g clip-path="url(#clip24)"><path d="M896.256 652.848C799.107 884.5 532.56 993.536 300.908 896.387 69.2556 799.238-39.7806 532.691 57.3688 301.039 128.073 132.445 292.85 22.5688 475.669 22.1093L476.813 476.943Z" fill="#FF0000" fill-rule="evenodd"/></g></g></g><g clip-path="url(#clip25)"><g clip-path="url(#clip26)" filter="url(#fx5)" transform="translate(3810 3600)"><g clip-path="url(#clip27)"><path d="M21.6696 22.1089C22.0506 22.1079 22.4316 22.1075 22.8127 22.1075L22.8126 476.943Z" fill="#FF0000" fill-rule="evenodd"/></g></g></g><g clip-path="url(#clip28)"><path d="M3832.81 3615.23C3833.77 3615.23 3834.72 3615.24 3835.67 3615.24L3832.81 4070.07Z" fill="url(#fill29)" fill-rule="evenodd"/></g><g clip-path="url(#clip30)"><path d="M3835.67 3615.24C3871.53 3615.47 3907.24 3619.93 3942.05 3628.54L3832.81 4070.07Z" fill="url(#fill31)" fill-rule="evenodd"/></g><g clip-path="url(#clip32)"><path d="M3942.05 3628.54C4005.35 3644.21 4064.55 3673.3 4115.63 3713.85L3832.81 4070.07Z" fill="url(#fill33)" fill-rule="evenodd"/></g><g clip-path="url(#clip34)"><path d="M4115.63 3713.85C4275.25 3840.58 4331.08 4058.02 4252.26 4245.97L3832.81 4070.07Z" fill="url(#fill35)" fill-rule="evenodd"/></g><g clip-path="url(#clip36)"><path d="M4252.26 4245.97C4155.11 4477.63 3888.56 4586.66 3656.91 4489.51 3425.26 4392.36 3316.22 4125.82 3413.37 3894.16 3484.07 3725.57 3648.85 3615.69 3831.67 3615.23L3832.81 4070.07Z" fill="url(#fill37)" fill-rule="evenodd"/></g><g clip-path="url(#clip38)"><path d="M3831.67 3615.23C3832.05 3615.23 3832.43 3615.23 3832.81 3615.23L3832.81 4070.07Z" fill="url(#fill39)" fill-rule="evenodd"/></g><g clip-path="url(#clip40)"><text fill="#D9D9D9" font-family="Calibri,Calibri_MSFontService,sans-serif" font-weight="400" font-size="41" transform="matrix(1 0 0 1 3860.59 3676)">2</text></g><g clip-path="url(#clip41)"><text fill="#D9D9D9" font-family="Calibri,Calibri_MSFontService,sans-serif" font-weight="400" font-size="41" transform="matrix(1 0 0 1 3839.69 3727)">188</text></g><g clip-path="url(#clip42)"><text fill="#D9D9D9" font-family="Calibri,Calibri_MSFontService,sans-serif" font-weight="400" font-size="41" transform="matrix(1 0 0 1 3845.83 3777)">4%</text></g><g clip-path="url(#clip43)"><text fill="#D9D9D9" font-family="Calibri,Calibri_MSFontService,sans-serif" font-weight="400" font-size="41" transform="matrix(1 0 0 1 3967.15 3703)">3</text></g><g clip-path="url(#clip44)"><text fill="#D9D9D9" font-family="Calibri,Calibri_MSFontService,sans-serif" font-weight="400" font-size="41" transform="matrix(1 0 0 1 3946.25 3754)">341</text></g><g clip-path="url(#clip45)"><text fill="#D9D9D9" font-family="Calibri,Calibri_MSFontService,sans-serif" font-weight="400" font-size="41" transform="matrix(1 0 0 1 3952.39 3804)">7%</text></g><g clip-path="url(#clip46)"><g clip-path="url(#clip47)" filter="url(#fx6)" transform="translate(4158 3861)"><g clip-path="url(#clip48)"><path d="M19.5991-7.36719C19.5991-6.92676 19.5324-6.57975 19.3989-6.32617 19.2655-6.07259 19.0786-5.9458 18.8384-5.9458L15.9155-5.9458 15.9155-0.500488C15.9155-0.393717 15.8881-0.30363 15.8331-0.230225 15.7782-0.15682 15.6819-0.0934245 15.5444-0.0400391 15.4069 0.0133463 15.2281 0.0533854 15.0082 0.0800781 14.7883 0.106771 14.5065 0.120117 14.1629 0.120117 13.833 0.120117 13.5581 0.106771 13.3382 0.0800781 13.1183 0.0533854 12.943 0.0133463 12.8123-0.0400391 12.6817-0.0934245 12.5923-0.15682 12.5443-0.230225 12.4962-0.30363 12.4722-0.393717 12.4722-0.500488L12.4722-5.9458 1.87402-5.9458C1.71511-5.9458 1.58274-5.96582 1.47691-6.00586 1.37108-6.0459 1.27515-6.1193 1.18913-6.22607 1.10311-6.33284 1.04357-6.48633 1.01052-6.68652 0.977464-6.88672 0.960937-7.14697 0.960937-7.46728 0.960937-7.72087 0.967558-7.94775 0.980801-8.14795 0.994043-8.34814 1.02047-8.53166 1.0601-8.69849 1.09972-8.86531 1.15253-9.02547 1.21853-9.17895 1.28453-9.33244 1.36383-9.49593 1.45642-9.66943L10.6904-25.4048C10.7584-25.5116 10.857-25.605 10.9863-25.6851 11.1156-25.7651 11.2824-25.8319 11.4865-25.8853 11.6907-25.9386 11.9424-25.9753 12.2418-25.9954 12.5411-26.0154 12.8949-26.0254 13.303-26.0254 13.752-26.0254 14.1432-26.0087 14.4766-25.9753 14.8101-25.942 15.0788-25.8986 15.2829-25.8452 15.4869-25.7918 15.6434-25.7218 15.7522-25.635 15.8611-25.5483 15.9155-25.4448 15.9155-25.3247L15.9155-8.78857 18.8384-8.78857C19.0653-8.78857 19.2488-8.67179 19.3889-8.43823 19.5291-8.20467 19.5991-7.84766 19.5991-7.36719ZM12.4722-23.0024 12.4328-23.0024 4.104-8.78857 12.4722-8.78857Z" transform="matrix(1.02 0 0 1.02 32.5156 59)"/></g></g><text font-family="Calibri,Calibri_MSFontService,sans-serif" font-weight="400" font-size="41" transform="matrix(1 0 0 1 4190.72 3920)">4</text></g><g clip-path="url(#clip49)"><g clip-path="url(#clip50)" filter="url(#fx7)" transform="translate(4126 3912)"><g clip-path="url(#clip51)"><path d="M18.5581-1.36133C18.5581-1.10775 18.5381-0.894206 18.498-0.720703 18.458-0.5472 18.4046-0.407064 18.3379-0.300293 18.2712-0.193522 18.1944-0.116781 18.1077-0.0700684 18.0209-0.0233561 17.9308 0 17.8374 0L4.3042 0C4.21077 0 4.12402-0.0233561 4.04394-0.0700684 3.96387-0.116781 3.88713-0.193522 3.81372-0.300293 3.74032-0.407064 3.68359-0.5472 3.64355-0.720703 3.60352-0.894206 3.5835-1.10775 3.5835-1.36133 3.5835-1.60156 3.60352-1.80843 3.64355-1.98193 3.68359-2.15544 3.73364-2.29891 3.7937-2.41235 3.85376-2.5258 3.92716-2.61255 4.01392-2.67261 4.10067-2.73267 4.19743-2.7627 4.3042-2.7627L9.70947-2.7627 9.70947-22.4619 4.70459-19.479C4.45101-19.3455 4.24748-19.2655 4.09399-19.2388 3.94051-19.2121 3.81706-19.2421 3.72363-19.3289 3.63021-19.4156 3.56681-19.5591 3.53345-19.7593 3.50008-19.9595 3.4834-20.2131 3.4834-20.52 3.4834-20.7469 3.49341-20.9404 3.51343-21.1006 3.53345-21.2607 3.56348-21.3942 3.60352-21.501 3.64355-21.6077 3.70028-21.7012 3.77368-21.7812 3.84709-21.8613 3.94385-21.9414 4.06396-22.0215L10.0298-25.8452C10.0832-25.8853 10.1499-25.9186 10.23-25.9453 10.3101-25.972 10.4102-25.9987 10.5303-26.0254 10.6504-26.0521 10.7905-26.0688 10.9507-26.0754 11.1108-26.0821 11.311-26.0854 11.5513-26.0854 11.8716-26.0854 12.1385-26.0721 12.352-26.0454 12.5656-26.0187 12.7324-25.982 12.8525-25.9353 12.9727-25.8886 13.0527-25.8285 13.0928-25.7551 13.1328-25.6817 13.1528-25.605 13.1528-25.5249L13.1528-2.7627 17.8374-2.7627C17.9442-2.7627 18.0443-2.73267 18.1377-2.67261 18.2311-2.61255 18.3079-2.5258 18.3679-2.41235 18.428-2.29891 18.4747-2.15544 18.5081-1.98193 18.5414-1.80843 18.5581-1.60156 18.5581-1.36133ZM40.2589-13.0127C40.2589-11.0241 40.1021-9.20898 39.7884-7.56738 39.4748-5.92578 38.9543-4.5144 38.2269-3.33325 37.4995-2.1521 36.5486-1.23787 35.3741-0.590576 34.1996 0.056722 32.7516 0.380371 31.0299 0.380371 29.4016 0.380371 28.0303 0.0900879 26.9159-0.490478 25.8014-1.07104 24.9039-1.92521 24.2232-3.05298 23.5426-4.18075 23.0588-5.56877 22.7718-7.21704 22.4849-8.86531 22.3414-10.7572 22.3414-12.8926 22.3414-14.8678 22.5016-16.6796 22.8219-18.3279 23.1422-19.9762 23.6627-21.3909 24.3834-22.572 25.1041-23.7532 26.0517-24.6674 27.2262-25.3147 28.4006-25.962 29.8421-26.2856 31.5504-26.2856 33.192-26.2856 34.57-25.9954 35.6844-25.4148 36.7988-24.8342 37.6964-23.9801 38.377-22.8523 39.0577-21.7245 39.5415-20.3365 39.8285-18.6882 40.1154-17.04 40.2589-15.1481 40.2589-13.0127ZM36.7354-12.7725C36.7354-14.0671 36.6887-15.2282 36.5953-16.2559 36.5019-17.2835 36.3651-18.1911 36.1849-18.9785 36.0047-19.7659 35.7712-20.4433 35.4842-21.0105 35.1973-21.5777 34.8536-22.0448 34.4532-22.4119 34.0528-22.7789 33.5957-23.0458 33.0819-23.2126 32.568-23.3795 31.9908-23.4629 31.3502-23.4629 30.2158-23.4629 29.2949-23.196 28.5875-22.6621 27.8801-22.1283 27.3229-21.3942 26.9159-20.46 26.5088-19.5257 26.2319-18.4313 26.0851-17.1768 25.9382-15.9222 25.8648-14.5742 25.8648-13.1328 25.8648-11.1976 25.9649-9.55265 26.1651-8.198 26.3653-6.84334 26.6823-5.73893 27.1161-4.88477 27.5498-4.0306 28.1037-3.40999 28.7777-3.02295 29.4517-2.6359 30.2691-2.44238 31.2301-2.44238 31.9775-2.44238 32.6348-2.5625 33.202-2.80273 33.7692-3.04297 34.2564-3.38664 34.6634-3.83374 35.0705-4.28084 35.4075-4.81803 35.6744-5.44531 35.9413-6.07259 36.1549-6.7666 36.315-7.52734 36.4752-8.28808 36.5853-9.11222 36.6454-9.99975 36.7054-10.8873 36.7354-11.8115 36.7354-12.7725ZM60.0978-7.40723C60.0978-6.2194 59.891-5.14836 59.4772-4.19409 59.0635-3.23983 58.4696-2.42236 57.6955-1.7417 56.9214-1.06104 55.9671-0.537191 54.8327-0.170166 53.6983 0.196859 52.417 0.380371 50.989 0.380371 50.1214 0.380371 49.3107 0.310303 48.5566 0.170166 47.8025 0.0300293 47.1319-0.1368 46.5446-0.330322 45.9574-0.523844 45.4702-0.72404 45.0832-0.930908 44.6962-1.13778 44.4526-1.28792 44.3525-1.38135 44.2524-1.47477 44.1756-1.5682 44.1223-1.66162 44.0689-1.75505 44.0222-1.86849 43.9821-2.00195 43.9421-2.13542 43.9121-2.29891 43.892-2.49243 43.872-2.68595 43.862-2.92285 43.862-3.20312 43.862-3.68359 43.9099-4.01725 44.0057-4.2041 44.1016-4.39095 44.2385-4.48437 44.4166-4.48437 44.5399-4.48437 44.7829-4.3776 45.1456-4.16406 45.5084-3.95052 45.9739-3.7203 46.5421-3.47339 47.1104-3.22648 47.7744-2.99626 48.5342-2.78271 49.294-2.56917 50.1395-2.4624 51.0706-2.4624 51.9742-2.4624 52.7682-2.57585 53.4528-2.80273 54.1373-3.02962 54.7123-3.34993 55.1779-3.76367 55.6434-4.17741 55.9926-4.66789 56.2253-5.23511 56.458-5.80233 56.5744-6.4196 56.5744-7.08691 56.5744-7.82096 56.4262-8.48161 56.1299-9.06885 55.8336-9.65609 55.3994-10.1632 54.8274-10.5903 54.2554-11.0174 53.5524-11.3444 52.7185-11.5713 51.8845-11.7982 50.9368-11.9116 49.8754-11.9116L47.3323-11.9116C47.222-11.9116 47.1151-11.935 47.0118-11.9817 46.9085-12.0284 46.8189-12.1051 46.7431-12.2119 46.6673-12.3187 46.6053-12.4588 46.557-12.6323 46.5087-12.8058 46.4846-13.0327 46.4846-13.313 46.4846-13.5666 46.5046-13.7768 46.5446-13.9436 46.5847-14.1104 46.6414-14.2439 46.7148-14.344 46.7882-14.4441 46.8716-14.5175 46.965-14.5642 47.0585-14.6109 47.1652-14.6343 47.2853-14.6343L49.5476-14.6343C50.4284-14.6343 51.2192-14.7477 51.9199-14.9746 52.6206-15.2015 53.2145-15.5285 53.7016-15.9556 54.1887-16.3826 54.5624-16.8931 54.8227-17.4871 55.083-18.081 55.2131-18.745 55.2131-19.479 55.2131-20.0129 55.1263-20.5234 54.9528-21.0105 54.7793-21.4976 54.5191-21.9214 54.1721-22.2817 53.8251-22.6421 53.3813-22.9257 52.8408-23.1326 52.3002-23.3394 51.6763-23.4429 50.9689-23.4429 50.1949-23.4429 49.4842-23.3261 48.8369-23.0925 48.1896-22.859 47.6123-22.6087 47.1052-22.3418 46.598-22.0749 46.1776-21.8246 45.8439-21.5911 45.5103-21.3575 45.2767-21.2407 45.1433-21.2407 45.0498-21.2407 44.9664-21.2574 44.893-21.2908 44.8196-21.3241 44.7595-21.3909 44.7128-21.491 44.6661-21.5911 44.6328-21.7312 44.6127-21.9114 44.5927-22.0915 44.5827-22.3284 44.5827-22.6221 44.5827-22.8223 44.5894-22.9991 44.6027-23.1526 44.6161-23.3061 44.6428-23.4395 44.6828-23.553 44.7228-23.6664 44.7696-23.7699 44.8229-23.8633 44.8763-23.9567 44.9664-24.0668 45.0932-24.1936 45.22-24.3204 45.4769-24.5039 45.864-24.7441 46.251-24.9844 46.7281-25.2213 47.2954-25.4548 47.8626-25.6884 48.5165-25.8853 49.2573-26.0454 49.998-26.2056 50.7954-26.2856 51.6496-26.2856 52.8508-26.2856 53.9051-26.1322 54.8127-25.8252 55.7202-25.5182 56.4776-25.0845 57.0849-24.5239 57.6922-23.9634 58.1459-23.2927 58.4462-22.512 58.7465-21.7312 58.8967-20.867 58.8967-19.9194 58.8967-19.1053 58.7899-18.3479 58.5764-17.6472 58.3628-16.9465 58.0492-16.3259 57.6354-15.7854 57.2217-15.2449 56.7145-14.7844 56.114-14.4041 55.5134-14.0237 54.8194-13.7601 54.0319-13.6133L54.0319-13.5732C54.9261-13.4798 55.7436-13.2563 56.4843-12.9026 57.225-12.5489 57.8623-12.1051 58.3962-11.5713 58.93-11.0374 59.3471-10.4135 59.6474-9.69946 59.9477-8.98543 60.0978-8.22135 60.0978-7.40723ZM81.198-1.48145C81.198-1.24121 81.1814-1.02767 81.148-0.84082 81.1146-0.653971 81.0679-0.497152 81.0079-0.370361 80.9478-0.243571 80.8677-0.150146 80.7676-0.0900879 80.6675-0.0300293 80.5574 0 80.4373 0L66.1233 0C65.9365 0 65.773-0.0233561 65.6329-0.0700684 65.4927-0.116781 65.3726-0.193522 65.2725-0.300293 65.1724-0.407064 65.099-0.560547 65.0523-0.760742 65.0056-0.960937 64.9822-1.20784 64.9822-1.50146 64.9822-1.76839 64.9925-2.00195 65.0132-2.20215 65.0338-2.40234 65.0785-2.57918 65.1472-2.73267 65.2159-2.88615 65.3019-3.03963 65.4051-3.19311 65.5084-3.3466 65.6424-3.51009 65.8074-3.68359L70.9853-9.00879C72.1818-10.2367 73.1412-11.3377 73.8632-12.312 74.5853-13.2863 75.1423-14.1738 75.5342-14.9746 75.9262-15.7754 76.184-16.5028 76.3078-17.1567 76.4316-17.8107 76.4934-18.4246 76.4934-18.9985 76.4934-19.5724 76.397-20.1163 76.2043-20.6301 76.0115-21.144 75.7326-21.5944 75.3677-21.9814 75.0027-22.3685 74.5448-22.6755 73.994-22.9023 73.4431-23.1292 72.8096-23.2427 72.0935-23.2427 71.2535-23.2427 70.4996-23.1292 69.8316-22.9023 69.1637-22.6755 68.5784-22.4285 68.0757-22.1616 67.573-21.8947 67.153-21.6478 66.8157-21.4209 66.4784-21.194 66.2271-21.0806 66.0617-21.0806 65.9654-21.0806 65.8793-21.1073 65.8035-21.1606 65.7277-21.214 65.6657-21.3008 65.6175-21.4209 65.5694-21.541 65.5315-21.7012 65.504-21.9014 65.4764-22.1016 65.4627-22.3418 65.4627-22.6221 65.4627-22.8223 65.4694-22.9958 65.4827-23.1426 65.496-23.2894 65.5194-23.4162 65.5528-23.5229 65.5861-23.6297 65.6295-23.7298 65.6829-23.8232 65.7363-23.9167 65.8431-24.0334 66.0032-24.1736 66.1634-24.3137 66.4403-24.5039 66.834-24.7441 67.2277-24.9844 67.7216-25.2213 68.3155-25.4548 68.9094-25.6884 69.5633-25.8853 70.2774-26.0454 70.9914-26.2056 71.7421-26.2856 72.5296-26.2856 73.7841-26.2856 74.8819-26.1088 75.8228-25.7551 76.7637-25.4014 77.5445-24.9176 78.1651-24.3037 78.7857-23.6898 79.2495-22.9757 79.5564-22.1616 79.8634-21.3475 80.0169-20.48 80.0169-19.5591 80.0169-18.7316 79.9435-17.9075 79.7967-17.0867 79.6499-16.2659 79.3396-15.3783 78.8658-14.4241 78.392-13.4698 77.708-12.4088 76.8138-11.241 75.9196-10.0732 74.7317-8.72851 73.2503-7.20703L69.1463-2.92285 80.4173-2.92285C80.524-2.92285 80.6275-2.89282 80.7276-2.83276 80.8277-2.7727 80.9144-2.68262 80.9878-2.5625 81.0612-2.44238 81.1146-2.29224 81.148-2.11206 81.1814-1.93188 81.198-1.72168 81.198-1.48145Z" transform="matrix(1.02 0 0 1.02 32.5386 59)"/></g></g><text font-family="Calibri,Calibri_MSFontService,sans-serif" font-weight="400" font-size="41" transform="matrix(1 0 0 1 4159.38 3971)">1032</text></g><g clip-path="url(#clip52)"><g clip-path="url(#clip53)" filter="url(#fx8)" transform="translate(4132 3962)"><g clip-path="url(#clip54)"><path d="M18.498-1.48145C18.498-1.24121 18.4814-1.02767 18.448-0.84082 18.4146-0.653971 18.3679-0.497152 18.3079-0.370361 18.2478-0.243571 18.1677-0.150146 18.0676-0.0900879 17.9675-0.0300293 17.8574 0 17.7373 0L3.42334 0C3.23649 0 3.073-0.0233561 2.93286-0.0700684 2.79272-0.116781 2.67261-0.193522 2.57251-0.300293 2.47241-0.407064 2.39901-0.560547 2.35229-0.760742 2.30558-0.960937 2.28223-1.20784 2.28223-1.50146 2.28223-1.76839 2.29255-2.00195 2.31319-2.20215 2.33384-2.40234 2.37852-2.57918 2.44723-2.73267 2.51594-2.88615 2.60191-3.03963 2.70514-3.19311 2.80836-3.3466 2.94245-3.51009 3.10741-3.68359L8.28527-9.00879C9.48185-10.2367 10.4412-11.3377 11.1632-12.312 11.8853-13.2863 12.4423-14.1738 12.8342-14.9746 13.2262-15.7754 13.484-16.5028 13.6078-17.1567 13.7316-17.8107 13.7935-18.4246 13.7935-18.9985 13.7935-19.5724 13.6971-20.1163 13.5043-20.6301 13.3115-21.144 13.0326-21.5944 12.6677-21.9814 12.3027-22.3685 11.8448-22.6755 11.294-22.9023 10.7431-23.1292 10.1097-23.2427 9.39354-23.2427 8.55355-23.2427 7.79959-23.1292 7.13164-22.9023 6.4637-22.6755 5.87839-22.4285 5.37571-22.1616 4.87303-21.8947 4.45304-21.6478 4.11573-21.4209 3.77843-21.194 3.52709-21.0806 3.36172-21.0806 3.26537-21.0806 3.1793-21.1073 3.1035-21.1606 3.02769-21.214 2.96571-21.3008 2.91753-21.4209 2.86936-21.541 2.83151-21.7012 2.80399-21.9014 2.77646-22.1016 2.7627-22.3418 2.7627-22.6221 2.7627-22.8223 2.76937-22.9958 2.78271-23.1426 2.79606-23.2894 2.81942-23.4162 2.85278-23.5229 2.88615-23.6297 2.92952-23.7298 2.98291-23.8232 3.0363-23.9167 3.14307-24.0334 3.30322-24.1736 3.46338-24.3137 3.74032-24.5039 4.13403-24.7441 4.52775-24.9844 5.02156-25.2213 5.61548-25.4548 6.20939-25.6884 6.86336-25.8853 7.57739-26.0454 8.29142-26.2056 9.04215-26.2856 9.82959-26.2856 11.0841-26.2856 12.1819-26.1088 13.1228-25.7551 14.0637-25.4014 14.8445-24.9176 15.4651-24.3037 16.0857-23.6898 16.5495-22.9757 16.8564-22.1616 17.1634-21.3475 17.3169-20.48 17.3169-19.5591 17.3169-18.7316 17.2435-17.9075 17.0967-17.0867 16.9499-16.2659 16.6396-15.3783 16.1658-14.4241 15.692-13.4698 15.008-12.4088 14.1138-11.241 13.2196-10.0732 12.0317-8.72851 10.5503-7.20703L6.44629-2.92285 17.7173-2.92285C17.8241-2.92285 17.9275-2.89282 18.0276-2.83276 18.1277-2.7727 18.2144-2.68262 18.2878-2.5625 18.3612-2.44238 18.4146-2.29224 18.448-2.11206 18.4814-1.93188 18.498-1.72168 18.498-1.48145ZM40.2589-13.0127C40.2589-11.0241 40.1021-9.20898 39.7884-7.56738 39.4748-5.92578 38.9543-4.5144 38.2269-3.33325 37.4995-2.1521 36.5486-1.23787 35.3741-0.590576 34.1996 0.056722 32.7516 0.380371 31.0299 0.380371 29.4016 0.380371 28.0303 0.0900879 26.9159-0.490478 25.8014-1.07104 24.9039-1.92521 24.2232-3.05298 23.5426-4.18075 23.0588-5.56877 22.7718-7.21704 22.4849-8.86531 22.3414-10.7572 22.3414-12.8926 22.3414-14.8678 22.5016-16.6796 22.8219-18.3279 23.1422-19.9762 23.6627-21.3909 24.3834-22.572 25.1041-23.7532 26.0517-24.6674 27.2262-25.3147 28.4006-25.962 29.8421-26.2856 31.5504-26.2856 33.192-26.2856 34.57-25.9954 35.6844-25.4148 36.7988-24.8342 37.6964-23.9801 38.377-22.8523 39.0577-21.7245 39.5415-20.3365 39.8285-18.6882 40.1154-17.04 40.2589-15.1481 40.2589-13.0127ZM36.7354-12.7725C36.7354-14.0671 36.6887-15.2282 36.5953-16.2559 36.5019-17.2835 36.3651-18.1911 36.1849-18.9785 36.0047-19.7659 35.7712-20.4433 35.4842-21.0105 35.1973-21.5777 34.8536-22.0448 34.4532-22.4119 34.0528-22.7789 33.5957-23.0458 33.0819-23.2126 32.568-23.3795 31.9908-23.4629 31.3502-23.4629 30.2158-23.4629 29.2949-23.196 28.5875-22.6621 27.8801-22.1283 27.3229-21.3942 26.9159-20.46 26.5088-19.5257 26.2319-18.4313 26.0851-17.1768 25.9382-15.9222 25.8648-14.5742 25.8648-13.1328 25.8648-11.1976 25.9649-9.55265 26.1651-8.198 26.3653-6.84334 26.6823-5.73893 27.1161-4.88477 27.5498-4.0306 28.1037-3.40999 28.7777-3.02295 29.4517-2.6359 30.2691-2.44238 31.2301-2.44238 31.9775-2.44238 32.6348-2.5625 33.202-2.80273 33.7692-3.04297 34.2564-3.38664 34.6634-3.83374 35.0705-4.28084 35.4075-4.81803 35.6744-5.44531 35.9413-6.07259 36.1549-6.7666 36.315-7.52734 36.4752-8.28808 36.5853-9.11222 36.6454-9.99975 36.7054-10.8873 36.7354-11.8115 36.7354-12.7725ZM54.3923-19.499C54.3923-18.4714 54.2788-17.5371 54.0519-16.6963 53.8251-15.8555 53.4781-15.1381 53.0109-14.5442 52.5438-13.9503 51.9532-13.4865 51.2392-13.1528 50.5252-12.8192 49.6877-12.6523 48.7268-12.6523 47.7525-12.6523 46.9183-12.8058 46.2243-13.1128 45.5303-13.4198 44.9631-13.8635 44.5227-14.4441 44.0822-15.0247 43.7586-15.732 43.5517-16.5662 43.3448-17.4003 43.2414-18.3512 43.2414-19.4189 43.2414-20.3932 43.3515-21.2941 43.5717-22.1216 43.7919-22.9491 44.1289-23.6631 44.5827-24.2637 45.0365-24.8643 45.6204-25.3381 46.3344-25.6851 47.0484-26.0321 47.8926-26.2056 48.8669-26.2056 49.9212-26.2056 50.8054-26.0254 51.5195-25.665 52.2335-25.3047 52.8041-24.8209 53.2311-24.2136 53.6582-23.6064 53.9585-22.8957 54.132-22.0815 54.3055-21.2674 54.3923-20.4066 54.3923-19.499ZM51.5895-19.3989C51.5895-20.1463 51.5362-20.8103 51.4294-21.3909 51.3226-21.9714 51.1591-22.4552 50.9389-22.8423 50.7187-23.2293 50.4284-23.5196 50.0681-23.7131 49.7077-23.9067 49.2806-24.0034 48.7868-24.0034 48.3197-24.0034 47.9126-23.91 47.5656-23.7231 47.2186-23.5363 46.935-23.256 46.7148-22.8823 46.4946-22.5086 46.3311-22.0448 46.2243-21.491 46.1175-20.9371 46.0642-20.2865 46.0642-19.5391 46.0642-18.6315 46.1275-17.8741 46.2543-17.2668 46.3811-16.6596 46.5613-16.1791 46.7949-15.8254 47.0284-15.4718 47.322-15.2249 47.6757-15.0847 48.0294-14.9446 48.4331-14.8745 48.8869-14.8745 49.4208-14.8745 49.8579-14.9746 50.1982-15.1748 50.5385-15.375 50.8121-15.672 51.019-16.0657 51.2259-16.4594 51.3727-16.9332 51.4594-17.4871 51.5462-18.0409 51.5895-18.6782 51.5895-19.3989ZM69.6672-6.54639C69.6672-5.51872 69.5537-4.58447 69.3269-3.74365 69.1-2.90283 68.753-2.18547 68.2858-1.59155 67.8187-0.99764 67.2281-0.533854 66.5141-0.200195 65.8001 0.133464 64.9626 0.300293 64.0017 0.300293 63.0274 0.300293 62.1932 0.14681 61.4992-0.160156 60.8052-0.467122 60.238-0.910889 59.7976-1.49145 59.3571-2.07202 59.0335-2.77938 58.8266-3.61353 58.6197-4.44767 58.5163-5.3986 58.5163-6.46631 58.5163-7.44059 58.6264-8.34147 58.8466-9.16894 59.0668-9.99642 59.4038-10.7104 59.8576-11.311 60.3114-11.9116 60.8953-12.3854 61.6093-12.7324 62.3233-13.0794 63.1675-13.2529 64.1418-13.2529 65.1962-13.2529 66.0804-13.0728 66.7944-12.7124 67.5084-12.352 68.079-11.8682 68.5061-11.261 68.9331-10.6537 69.2334-9.94303 69.4069-9.12891 69.5804-8.31478 69.6672-7.45394 69.6672-6.54639ZM66.8644-6.44629C66.8644-7.19368 66.8111-7.85767 66.7043-8.43823 66.5975-9.0188 66.434-9.5026 66.2138-9.88965 65.9936-10.2767 65.7033-10.567 65.343-10.7605 64.9826-10.954 64.5555-11.0508 64.0617-11.0508 63.5946-11.0508 63.1875-10.9574 62.8405-10.7705 62.4935-10.5837 62.2099-10.3034 61.9897-9.92969 61.7695-9.55599 61.606-9.0922 61.4992-8.53833 61.3924-7.98446 61.3391-7.33382 61.3391-6.58643 61.3391-5.67887 61.4025-4.92147 61.5292-4.31421 61.656-3.70695 61.8362-3.22648 62.0698-2.8728 62.3033-2.51912 62.597-2.27222 62.9506-2.13208 63.3043-1.99194 63.708-1.92187 64.1618-1.92187 64.6957-1.92187 65.1328-2.02197 65.4731-2.22217 65.8134-2.42236 66.087-2.71932 66.2939-3.11304 66.5008-3.50675 66.6476-3.98055 66.7343-4.53442 66.8211-5.0883 66.8644-5.72558 66.8644-6.44629ZM48.7268 0.160156C48.66 0.280273 48.5799 0.370361 48.4865 0.43042 48.3931 0.490478 48.2796 0.543864 48.1462 0.590576 48.0127 0.637288 47.8526 0.670654 47.6657 0.690674 47.4789 0.710693 47.252 0.720703 46.9851 0.720703 46.6914 0.720703 46.4545 0.69401 46.2744 0.640625 46.0942 0.58724 45.9674 0.517171 45.894 0.43042 45.8206 0.343669 45.7939 0.236898 45.8139 0.110107 45.8339-0.0166829 45.8973-0.160156 46.0041-0.320312L64.0217-26.1255C64.0884-26.2323 64.1685-26.3223 64.2619-26.3958 64.3553-26.4692 64.4721-26.5259 64.6123-26.5659 64.7524-26.606 64.9125-26.636 65.0927-26.656 65.2729-26.676 65.5031-26.686 65.7834-26.686 66.0637-26.686 66.2939-26.6627 66.4741-26.616 66.6542-26.5693 66.7844-26.4992 66.8644-26.4058 66.9445-26.3123 66.9746-26.1989 66.9545-26.0654 66.9345-25.932 66.8711-25.7918 66.7644-25.645Z" transform="matrix(1.02 0 0 1.02 32.8037 59)"/></g></g><text font-family="Calibri,Calibri_MSFontService,sans-serif" font-weight="400" font-size="41" transform="matrix(1 0 0 1 4165.52 4021)">20%</text></g><g clip-path="url(#clip55)"><text fill="#D9D9D9" font-family="Calibri,Calibri_MSFontService,sans-serif" font-weight="400" font-size="41" transform="matrix(1 0 0 1 3578.85 4267)">5</text></g><g clip-path="url(#clip56)"><text fill="#D9D9D9" font-family="Calibri,Calibri_MSFontService,sans-serif" font-weight="400" font-size="41" transform="matrix(1 0 0 1 3547.5 4318)">3432</text></g><g clip-path="url(#clip57)"><text fill="#D9D9D9" font-family="Calibri,Calibri_MSFontService,sans-serif" font-weight="400" font-size="41" transform="matrix(1 0 0 1 3553.64 4368)">69%</text></g><g clip-path="url(#clip58)"><text fill="#F2F2F2" font-family="Calibri,Calibri_MSFontService,sans-serif" font-weight="700" font-size="73" transform="matrix(1 0 0 1 3651.18 3466)">Lobby Size</text></g></g></svg>