<svg width="990" height="990" xmlns="http://www.w3.org/2000/svg" xmlns:xlink="http://www.w3.org/1999/xlink" xml:space="preserve" overflow="hidden"><defs><filter id="fx0" x="-10%" y="-10%" width="120%" height="120%" filterUnits="userSpaceOnUse" primitiveUnits="userSpaceOnUse"><feComponentTransfer color-interpolation-filters="sRGB"><feFuncR type="discrete" tableValues="0 0"/><feFuncG type="discrete" tableValues="0 0"/><feFuncB type="discrete" tableValues="0 0"/><feFuncA type="linear" slope="0.631373" intercept="0"/></feComponentTransfer><feGaussianBlur stdDeviation="6.875 6.875"/></filter><filter id="fx1" x="-10%" y="-10%" width="120%" height="120%" filterUnits="userSpaceOnUse" primitiveUnits="userSpaceOnUse"><feComponentTransfer color-interpolation-filters="sRGB"><feFuncR type="discrete" tableValues="0 0"/><feFuncG type="discrete" tableValues="0 0"/><feFuncB type="discrete" tableValues="0 0"/><feFuncA type="linear" slope="0.631373" intercept="0"/></feComponentTransfer><feGaussianBlur stdDeviation="6.875 6.875"/></filter><clipPath id="clip2"><rect x="770" y="3386" width="990" height="990"/></clipPath><clipPath id="clip3"><rect x="770" y="3385" width="990" height="990"/></clipPath><clipPath id="clip4"><rect x="-3" y="-3" width="431" height="656"/></clipPath><clipPath id="clip5"><rect x="0" y="0" width="423" height="650"/></clipPath><clipPath id="clip6"><rect x="770" y="3385" width="990" height="990"/></clipPath><clipPath id="clip7"><rect x="-3" y="-3" width="733" height="807"/></clipPath><clipPath id="clip8"><rect x="0" y="0" width="727" height="802"/></clipPath><clipPath id="clip9"><rect x="770" y="3385" width="990" height="990"/></clipPath><linearGradient x1="1454.6" y1="3567.12" x2="1454.6" y2="4173.05" gradientUnits="userSpaceOnUse" spreadMethod="reflect" id="fill10"><stop offset="0" stop-color="#6083CB"/><stop offset="0.5" stop-color="#3E70CA"/><stop offset="1" stop-color="#2E61BA"/></linearGradient><clipPath id="clip11"><rect x="770" y="3385" width="990" height="990"/></clipPath><linearGradient x1="1227.36" y1="3567.12" x2="1227.36" y2="4325.54" gradientUnits="userSpaceOnUse" spreadMethod="reflect" id="fill12"><stop offset="0" stop-color="#F18C55"/><stop offset="0.5" stop-color="#F67B28"/><stop offset="1" stop-color="#E56B17"/></linearGradient><clipPath id="clip13"><rect x="770" y="3385" width="990" height="990"/></clipPath><clipPath id="clip14"><rect x="770" y="3385" width="990" height="990"/></clipPath><clipPath id="clip15"><rect x="770" y="3385" width="990" height="990"/></clipPath><clipPath id="clip16"><rect x="770" y="3385" width="990" height="990"/></clipPath><clipPath id="clip17"><rect x="770" y="3385" width="990" height="990"/></clipPath><clipPath id="clip18"><rect x="770" y="3385" width="990" height="990"/></clipPath><clipPath id="clip19"><rect x="770" y="3385" width="990" height="990"/></clipPath></defs><g clip-path="url(#clip2)" transform="translate(-770 -3386)"><rect x="770" y="3386" width="990" height="990" fill="#404040"/><g clip-path="url(#clip3)"><g clip-path="url(#clip4)" filter="url(#fx0)" transform="translate(1243 3552)"><g clip-path="url(#clip5)"><path d="M22 21.9917C231.427 21.9917 401.202 191.766 401.202 401.194 401.202 482.902 374.81 562.425 325.956 627.92L22 401.194Z" fill="#FF0000" fill-rule="evenodd"/></g></g></g><g clip-path="url(#clip6)"><g clip-path="url(#clip7)" filter="url(#fx1)" transform="translate(864 3552)"><g clip-path="url(#clip8)"><path d="M704.955 627.92C579.738 795.79 342.143 830.367 174.273 705.149 6.40283 579.931-28.1738 342.337 97.0439 174.467 168.617 78.5146 281.294 21.9916 401 21.9916L401 401.194Z" fill="#FF0000" fill-rule="evenodd"/></g></g></g><g clip-path="url(#clip9)"><path d="M1265 3567.12C1474.43 3567.12 1644.2 3736.89 1644.2 3946.32 1644.2 4028.03 1617.81 4107.55 1568.96 4173.05L1265 3946.32Z" fill="url(#fill10)" fill-rule="evenodd"/></g><g clip-path="url(#clip11)"><path d="M1568.96 4173.04C1443.74 4340.92 1206.14 4375.49 1038.27 4250.27 870.403 4125.06 835.826 3887.46 961.044 3719.59 1032.62 3623.64 1145.29 3567.12 1265 3567.12L1265 3946.32Z" fill="url(#fill12)" fill-rule="evenodd"/></g><g clip-path="url(#clip13)"><text fill="#FFFFFF" font-family="Calibri,Calibri_MSFontService,sans-serif" font-weight="400" font-size="41" transform="matrix(1 0 0 1 1392.49 3825)">Wins</text></g><g clip-path="url(#clip14)"><text fill="#FFFFFF" font-family="Calibri,Calibri_MSFontService,sans-serif" font-weight="400" font-size="41" transform="matrix(1 0 0 1 1392.67 3876)">1760</text></g><g clip-path="url(#clip15)"><text fill="#FFFFFF" font-family="Calibri,Calibri_MSFontService,sans-serif" font-weight="400" font-size="41" transform="matrix(1 0 0 1 1398.81 3926)">35%</text></g><g clip-path="url(#clip16)"><text fill="#FFFFFF" font-family="Calibri,Calibri_MSFontService,sans-serif" font-weight="400" font-size="41" transform="matrix(1 0 0 1 1041.51 3995)">Losses</text></g><g clip-path="url(#clip17)"><text fill="#FFFFFF" font-family="Calibri,Calibri_MSFontService,sans-serif" font-weight="400" font-size="41" transform="matrix(1 0 0 1 1053.73 4046)">3240</text></g><g clip-path="url(#clip18)"><text fill="#FFFFFF" font-family="Calibri,Calibri_MSFontService,sans-serif" font-weight="400" font-size="41" transform="matrix(1 0 0 1 1059.87 4096)">65%</text></g><g clip-path="url(#clip19)"><text fill="#F2F2F2" font-family="Calibri,Calibri_MSFontService,sans-serif" font-weight="700" font-size="73" transform="matrix(1 0 0 1 1107.34 3490)">Win Rate</text></g></g></svg>