<svg width="1286" height="1286" xmlns="http://www.w3.org/2000/svg" xmlns:xlink="http://www.w3.org/1999/xlink" xml:space="preserve" overflow="hidden"><defs><filter id="fx0" x="-10%" y="-10%" width="120%" height="120%" filterUnits="userSpaceOnUse" primitiveUnits="userSpaceOnUse"><feComponentTransfer color-interpolation-filters="sRGB"><feFuncR type="discrete" tableValues="0 0"/><feFuncG type="discrete" tableValues="0 0"/><feFuncB type="discrete" tableValues="0 0"/><feFuncA type="linear" slope="0.631373" intercept="0"/></feComponentTransfer><feGaussianBlur stdDeviation="6.875 6.875"/></filter><filter id="fx1" x="-10%" y="-10%" width="120%" height="120%" filterUnits="userSpaceOnUse" primitiveUnits="userSpaceOnUse"><feComponentTransfer color-interpolation-filters="sRGB"><feFuncR type="discrete" tableValues="0 0"/><feFuncG type="discrete" tableValues="0 0"/><feFuncB type="discrete" tableValues="0 0"/><feFuncA type="linear" slope="0.631373" intercept="0"/></feComponentTransfer><feGaussianBlur stdDeviation="6.875 6.875"/></filter><filter id="fx2" x="-10%" y="-10%" width="120%" height="120%" filterUnits="userSpaceOnUse" primitiveUnits="userSpaceOnUse"><feComponentTransfer color-interpolation-filters="sRGB"><feFuncR type="discrete" tableValues="0 0"/><feFuncG type="discrete" tableValues="0 0"/><feFuncB type="discrete" tableValues="0 0"/><feFuncA type="linear" slope="0.631373" intercept="0"/></feComponentTransfer><feGaussianBlur stdDeviation="6.875 6.875"/></filter><filter id="fx3" x="-10%" y="-10%" width="120%" height="120%" filterUnits="userSpaceOnUse" primitiveUnits="userSpaceOnUse"><feComponentTransfer color-interpolation-filters="sRGB"><feFuncR type="discrete" tableValues="0 0"/><feFuncG type="discrete" tableValues="0 0"/><feFuncB type="discrete" tableValues="0 0"/><feFuncA type="linear" slope="0.631373" intercept="0"/></feComponentTransfer><feGaussianBlur stdDeviation="6.875 6.875"/></filter><filter id="fx4" x="-10%" y="-10%" width="120%" height="120%" filterUnits="userSpaceOnUse" primitiveUnits="userSpaceOnUse"><feComponentTransfer color-interpolation-filters="sRGB"><feFuncR type="discrete" tableValues="0 0"/><feFuncG type="discrete" tableValues="0 0"/><feFuncB type="discrete" tableValues="0 0"/><feFuncA type="linear" slope="0.631373" intercept="0"/></feComponentTransfer><feGaussianBlur stdDeviation="6.875 6.875"/></filter><filter id="fx5" x="-10%" y="-10%" width="120%" height="120%" filterUnits="userSpaceOnUse" primitiveUnits="userSpaceOnUse"><feComponentTransfer color-interpolation-filters="sRGB"><feFuncR type="discrete" tableValues="1 1"/><feFuncG type="discrete" tableValues="1 1"/><feFuncB type="discrete" tableValues="1 1"/><feFuncA type="linear" slope="1" intercept="0"/></feComponentTransfer><feGaussianBlur stdDeviation="1.82716 1.82716"/></filter><filter id="fx6" x="-10%" y="-10%" width="120%" height="120%" filterUnits="userSpaceOnUse" primitiveUnits="userSpaceOnUse"><feComponentTransfer color-interpolation-filters="sRGB"><feFuncR type="discrete" tableValues="1 1"/><feFuncG type="discrete" tableValues="1 1"/><feFuncB type="discrete" tableValues="1 1"/><feFuncA type="linear" slope="1" intercept="0"/></feComponentTransfer><feGaussianBlur stdDeviation="1.82716 1.82716"/></filter><filter id="fx7" x="-10%" y="-10%" width="120%" height="120%" filterUnits="userSpaceOnUse" primitiveUnits="userSpaceOnUse"><feComponentTransfer color-interpolation-filters="sRGB"><feFuncR type="discrete" tableValues="1 1"/><feFuncG type="discrete" tableValues="1 1"/><feFuncB type="discrete" tableValues="1 1"/><feFuncA type="linear" slope="1" intercept="0"/></feComponentTransfer><feGaussianBlur stdDeviation="1.82716 1.82716"/></filter><clipPath id="clip8"><rect x="1825" y="3365" width="1286" height="1286"/></clipPath><clipPath id="clip9"><rect x="1825" y="3365" width="1285" height="1285"/></clipPath><clipPath id="clip10"><rect x="-3" y="-3" width="505" height="777"/></clipPath><clipPath id="clip11"><rect x="0" y="0" width="499" height="770"/></clipPath><clipPath id="clip12"><rect x="1825" y="3365" width="1285" height="1285"/></clipPath><clipPath id="clip13"><rect x="-3" y="-3" width="770" height="505"/></clipPath><clipPath id="clip14"><rect x="0" y="0" width="766" height="499"/></clipPath><clipPath id="clip15"><rect x="1825" y="3365" width="1285" height="1285"/></clipPath><clipPath id="clip16"><rect x="-3" y="-3" width="505" height="597"/></clipPath><clipPath id="clip17"><rect x="0" y="0" width="499" height="592"/></clipPath><clipPath id="clip18"><rect x="1825" y="3365" width="1285" height="1285"/></clipPath><clipPath id="clip19"><rect x="-3" y="-3" width="420" height="494"/></clipPath><clipPath id="clip20"><rect x="0" y="0" width="413" height="489"/></clipPath><clipPath id="clip21"><rect x="1825" y="3365" width="1285" height="1285"/></clipPath><clipPath id="clip22"><rect x="-3" y="-3" width="144" height="505"/></clipPath><clipPath id="clip23"><rect x="0" y="0" width="138" height="498"/></clipPath><clipPath id="clip24"><rect x="1825" y="3365" width="1285" height="1285"/></clipPath><linearGradient x1="2695.54" y1="3618.67" x2="2695.54" y2="4345.46" gradientUnits="userSpaceOnUse" spreadMethod="reflect" id="fill25"><stop offset="0" stop-color="#6083CB"/><stop offset="0.5" stop-color="#3E70CA"/><stop offset="1" stop-color="#2E61BA"/></linearGradient><clipPath id="clip26"><rect x="1825" y="3365" width="1285" height="1285"/></clipPath><linearGradient x1="2471.95" y1="4073.51" x2="2471.95" y2="4528.37" gradientUnits="userSpaceOnUse" spreadMethod="reflect" id="fill27"><stop offset="0" stop-color="#F18C55"/><stop offset="0.5" stop-color="#F67B28"/><stop offset="1" stop-color="#E56B17"/></linearGradient><clipPath id="clip28"><rect x="1825" y="3365" width="1285" height="1285"/></clipPath><linearGradient x1="2240.71" y1="3807.09" x2="2240.71" y2="4355.43" gradientUnits="userSpaceOnUse" spreadMethod="reflect" id="fill29"><stop offset="0" stop-color="#AFAFAF"/><stop offset="0.5" stop-color="#A5A5A5"/><stop offset="1" stop-color="#929292"/></linearGradient><clipPath id="clip30"><rect x="1825" y="3365" width="1285" height="1285"/></clipPath><linearGradient x1="2283.8" y1="3628.41" x2="2283.8" y2="4073.51" gradientUnits="userSpaceOnUse" spreadMethod="reflect" id="fill31"><stop offset="0" stop-color="#FFC746"/><stop offset="0.5" stop-color="#FFC600"/><stop offset="1" stop-color="#E5B600"/></linearGradient><clipPath id="clip32"><rect x="1825" y="3365" width="1285" height="1285"/></clipPath><linearGradient x1="2421.31" y1="3618.67" x2="2421.31" y2="4073.51" gradientUnits="userSpaceOnUse" spreadMethod="reflect" id="fill33"><stop offset="0" stop-color="#71A6DB"/><stop offset="0.5" stop-color="#559BDB"/><stop offset="1" stop-color="#438AC9"/></linearGradient><clipPath id="clip34"><rect x="1825" y="3365" width="1285" height="1285"/></clipPath><clipPath id="clip35"><rect x="1825" y="3365" width="1285" height="1285"/></clipPath><clipPath id="clip36"><rect x="1825" y="3365" width="1285" height="1285"/></clipPath><clipPath id="clip37"><rect x="1825" y="3365" width="1285" height="1285"/></clipPath><clipPath id="clip38"><rect x="1825" y="3365" width="1285" height="1285"/></clipPath><clipPath id="clip39"><rect x="1825" y="3365" width="1285" height="1285"/></clipPath><clipPath id="clip40"><rect x="1825" y="3365" width="1285" height="1285"/></clipPath><clipPath id="clip41"><rect x="1825" y="3365" width="1285" height="1285"/></clipPath><clipPath id="clip42"><rect x="1825" y="3365" width="1285" height="1285"/></clipPath><clipPath id="clip43"><rect x="1825" y="3365" width="1285" height="1285"/></clipPath><clipPath id="clip44"><rect x="25" y="25" width="36" height="42"/></clipPath><clipPath id="clip45"><rect x="0" y="0" width="87" height="104"/></clipPath><clipPath id="clip46"><rect x="1825" y="3365" width="1285" height="1285"/></clipPath><clipPath id="clip47"><rect x="25" y="25" width="77" height="42"/></clipPath><clipPath id="clip48"><rect x="0" y="0" width="129" height="104"/></clipPath><clipPath id="clip49"><rect x="1825" y="3365" width="1285" height="1285"/></clipPath><clipPath id="clip50"><rect x="28" y="25" width="83" height="44"/></clipPath><clipPath id="clip51"><rect x="0" y="0" width="138" height="104"/></clipPath><clipPath id="clip52"><rect x="1825" y="3365" width="1285" height="1285"/></clipPath><clipPath id="clip53"><rect x="1825" y="3365" width="1285" height="1285"/></clipPath><clipPath id="clip54"><rect x="1825" y="3365" width="1285" height="1285"/></clipPath><clipPath id="clip55"><rect x="1825" y="3365" width="1285" height="1285"/></clipPath></defs><g clip-path="url(#clip8)" transform="translate(-1825 -3365)"><rect x="1825" y="3365" width="1286" height="1286" fill="#404040"/><g clip-path="url(#clip9)"><g clip-path="url(#clip10)" filter="url(#fx0)" transform="translate(2446 3604)"><g clip-path="url(#clip11)"><path d="M22.1246 21.5459C273.323 21.5459 476.96 225.183 476.96 476.381 476.96 574.387 445.304 669.772 386.706 748.33L22.1246 476.381Z" fill="#FF0000" fill-rule="evenodd"/></g></g></g><g clip-path="url(#clip12)"><g clip-path="url(#clip13)" filter="url(#fx1)" transform="translate(2089 4058)"><g clip-path="url(#clip14)"><path d="M743.705 294.33C593.512 495.682 308.528 537.155 107.176 386.962 75.3657 363.235 46.7977 335.446 22.1997 304.304L379.125 22.3814Z" fill="#FF0000" fill-rule="evenodd"/></g></g></g><g clip-path="url(#clip15)"><g clip-path="url(#clip16)" filter="url(#fx2)" transform="translate(1991 3792)"><g clip-path="url(#clip17)"><path d="M120.2 570.304C-5.86504 410.701-10.6488 186.804 108.484 21.9615L477.125 288.381Z" fill="#FF0000" fill-rule="evenodd"/></g></g></g><g clip-path="url(#clip18)"><g clip-path="url(#clip19)" filter="url(#fx3)" transform="translate(2077 3613)"><g clip-path="url(#clip20)"><path d="M22.484 200.961C88.7447 109.278 186.793 45.5754 297.491 22.288L391.125 467.381Z" fill="#FF0000" fill-rule="evenodd"/></g></g></g><g clip-path="url(#clip21)"><g clip-path="url(#clip22)" filter="url(#fx4)" transform="translate(2352 3604)"><g clip-path="url(#clip23)"><path d="M22.4914 31.2883C53.2816 24.811 84.6608 21.5461 116.125 21.5461L116.125 476.381Z" fill="#FF0000" fill-rule="evenodd"/></g></g></g><g clip-path="url(#clip24)"><path d="M2468.12 3618.67C2719.32 3618.67 2922.96 3822.31 2922.96 4073.51 2922.96 4171.51 2891.3 4266.9 2832.71 4345.46L2468.12 4073.51Z" fill="url(#fill25)" fill-rule="evenodd"/></g><g clip-path="url(#clip26)"><path d="M2832.71 4345.45C2682.51 4546.81 2397.53 4588.28 2196.18 4438.09 2164.37 4414.36 2135.8 4386.57 2111.2 4355.43L2468.12 4073.51Z" fill="url(#fill27)" fill-rule="evenodd"/></g><g clip-path="url(#clip28)"><path d="M2111.2 4355.43C1985.14 4195.83 1980.35 3971.93 2099.48 3807.09L2468.12 4073.51Z" fill="url(#fill29)" fill-rule="evenodd"/></g><g clip-path="url(#clip30)"><path d="M2099.48 3807.09C2165.74 3715.4 2263.79 3651.7 2374.49 3628.41L2468.12 4073.51Z" fill="url(#fill31)" fill-rule="evenodd"/></g><g clip-path="url(#clip32)"><path d="M2374.49 3628.41C2405.28 3621.94 2436.66 3618.67 2468.12 3618.67L2468.12 4073.51Z" fill="url(#fill33)" fill-rule="evenodd"/></g><g clip-path="url(#clip34)"><text fill="#D9D9D9" font-family="Calibri,Calibri_MSFontService,sans-serif" font-weight="400" font-size="41" transform="matrix(1 0 0 1 2774.47 3827)">1</text></g><g clip-path="url(#clip35)"><text fill="#D9D9D9" font-family="Calibri,Calibri_MSFontService,sans-serif" font-weight="400" font-size="41" transform="matrix(1 0 0 1 2743.12 3878)">1760</text></g><g clip-path="url(#clip36)"><text fill="#D9D9D9" font-family="Calibri,Calibri_MSFontService,sans-serif" font-weight="400" font-size="41" transform="matrix(1 0 0 1 2749.27 3928)">35%</text></g><g clip-path="url(#clip37)"><text fill="#D9D9D9" font-family="Calibri,Calibri_MSFontService,sans-serif" font-weight="400" font-size="41" transform="matrix(1 0 0 1 2461.66 4398)">2</text></g><g clip-path="url(#clip38)"><text fill="#D9D9D9" font-family="Calibri,Calibri_MSFontService,sans-serif" font-weight="400" font-size="41" transform="matrix(1 0 0 1 2430.31 4449)">1458</text></g><g clip-path="url(#clip39)"><text fill="#D9D9D9" font-family="Calibri,Calibri_MSFontService,sans-serif" font-weight="400" font-size="41" transform="matrix(1 0 0 1 2436.45 4499)">29%</text></g><g clip-path="url(#clip40)"><text fill="#D9D9D9" font-family="Calibri,Calibri_MSFontService,sans-serif" font-weight="400" font-size="41" transform="matrix(1 0 0 1 2062.91 4037)">3</text></g><g clip-path="url(#clip41)"><text fill="#D9D9D9" font-family="Calibri,Calibri_MSFontService,sans-serif" font-weight="400" font-size="41" transform="matrix(1 0 0 1 2031.56 4088)">1030</text></g><g clip-path="url(#clip42)"><text fill="#D9D9D9" font-family="Calibri,Calibri_MSFontService,sans-serif" font-weight="400" font-size="41" transform="matrix(1 0 0 1 2037.7 4138)">21%</text></g><g clip-path="url(#clip43)"><g clip-path="url(#clip44)" filter="url(#fx5)" transform="translate(2247 3661)"><g clip-path="url(#clip45)"><path d="M19.5991-7.36719C19.5991-6.92676 19.5324-6.57975 19.3989-6.32617 19.2655-6.07259 19.0786-5.9458 18.8384-5.9458L15.9155-5.9458 15.9155-0.500488C15.9155-0.393717 15.8881-0.30363 15.8331-0.230225 15.7782-0.15682 15.6819-0.0934245 15.5444-0.0400391 15.4069 0.0133463 15.2281 0.0533854 15.0082 0.0800781 14.7883 0.106771 14.5065 0.120117 14.1629 0.120117 13.833 0.120117 13.5581 0.106771 13.3382 0.0800781 13.1183 0.0533854 12.943 0.0133463 12.8123-0.0400391 12.6817-0.0934245 12.5923-0.15682 12.5443-0.230225 12.4962-0.30363 12.4722-0.393717 12.4722-0.500488L12.4722-5.9458 1.87402-5.9458C1.71511-5.9458 1.58274-5.96582 1.47691-6.00586 1.37108-6.0459 1.27515-6.1193 1.18913-6.22607 1.10311-6.33284 1.04357-6.48633 1.01052-6.68652 0.977464-6.88672 0.960937-7.14697 0.960937-7.46728 0.960937-7.72087 0.967558-7.94775 0.980801-8.14795 0.994043-8.34814 1.02047-8.53166 1.0601-8.69849 1.09972-8.86531 1.15253-9.02547 1.21853-9.17895 1.28453-9.33244 1.36383-9.49593 1.45642-9.66943L10.6904-25.4048C10.7584-25.5116 10.857-25.605 10.9863-25.6851 11.1156-25.7651 11.2824-25.8319 11.4865-25.8853 11.6907-25.9386 11.9424-25.9753 12.2418-25.9954 12.5411-26.0154 12.8949-26.0254 13.303-26.0254 13.752-26.0254 14.1432-26.0087 14.4766-25.9753 14.8101-25.942 15.0788-25.8986 15.2829-25.8452 15.4869-25.7918 15.6434-25.7218 15.7522-25.635 15.8611-25.5483 15.9155-25.4448 15.9155-25.3247L15.9155-8.78857 18.8384-8.78857C19.0653-8.78857 19.2488-8.67179 19.3889-8.43823 19.5291-8.20467 19.5991-7.84766 19.5991-7.36719ZM12.4722-23.0024 12.4328-23.0024 4.104-8.78857 12.4722-8.78857Z" transform="matrix(1.02 0 0 1.02 32.999 60)"/></g></g><text font-family="Calibri,Calibri_MSFontService,sans-serif" font-weight="400" font-size="41" transform="matrix(1 0 0 1 2280.21 3721)">4</text></g><g clip-path="url(#clip46)"><g clip-path="url(#clip47)" filter="url(#fx6)" transform="translate(2226 3712)"><g clip-path="url(#clip48)"><path d="M18.3779-8.32812C18.3779-6.9401 18.1444-5.70557 17.6772-4.62451 17.2101-3.54346 16.5495-2.63257 15.6953-1.89185 14.8411-1.15112 13.8235-0.58724 12.6423-0.200195 11.4612 0.186849 10.1499 0.380371 8.7085 0.380371 7.90771 0.380371 7.14697 0.323649 6.42627 0.210205 5.70557 0.0967611 5.06494-0.0433757 4.50439-0.210205 3.94385-0.377034 3.4834-0.540527 3.12305-0.700684 2.7627-0.86084 2.53247-0.98763 2.43237-1.08105 2.33228-1.17448 2.26221-1.26123 2.22217-1.34131 2.18213-1.42139 2.14543-1.51815 2.11206-1.63159 2.07869-1.74504 2.05534-1.88851 2.04199-2.06201 2.02865-2.23551 2.02197-2.44238 2.02197-2.68262 2.02197-2.9095 2.03198-3.11304 2.052-3.29321 2.07202-3.47339 2.10872-3.6202 2.16211-3.73364 2.21549-3.84709 2.27889-3.9305 2.35229-3.98389 2.4257-4.03727 2.50911-4.06396 2.60254-4.06396 2.736-4.06396 2.94287-3.98055 3.22314-3.81372 3.50342-3.64689 3.88045-3.46672 4.35425-3.27319 4.82804-3.07967 5.41528-2.89616 6.11597-2.72266 6.81665-2.54915 7.64746-2.4624 8.6084-2.4624 9.5026-2.4624 10.3234-2.56917 11.0708-2.78271 11.8182-2.99626 12.4622-3.32992 13.0027-3.78369 13.5432-4.23747 13.967-4.80802 14.2739-5.49536 14.5809-6.1827 14.7344-7.02018 14.7344-8.00781 14.7344-8.83529 14.6042-9.566 14.344-10.2 14.0837-10.8339 13.6833-11.3611 13.1428-11.7815 12.6023-12.2019 11.9183-12.5155 11.0908-12.7224 10.2633-12.9293 9.27571-13.0327 8.12793-13.0327 7.3138-13.0327 6.61312-12.9927 6.02588-12.9126 5.43864-12.8325 4.89144-12.7925 4.38428-12.7925 4.01058-12.7925 3.74365-12.8792 3.5835-13.0527 3.42334-13.2262 3.34326-13.5599 3.34326-14.0537L3.34326-24.604C3.34326-25.0444 3.4467-25.3714 3.65356-25.585 3.86043-25.7985 4.15739-25.9053 4.54443-25.9053L16.0156-25.9053C16.1224-25.9053 16.2258-25.8752 16.3259-25.8152 16.426-25.7551 16.5094-25.665 16.5762-25.5449 16.6429-25.4248 16.6929-25.2713 16.7263-25.0845 16.7597-24.8976 16.7764-24.6774 16.7764-24.4238 16.7764-23.9434 16.7124-23.5697 16.5846-23.3027 16.4568-23.0358 16.2779-22.9023 16.0478-22.9023L6.78662-22.9023 6.78662-15.6353C7.23664-15.702 7.69631-15.742 8.16562-15.7554 8.63493-15.7687 9.17822-15.7754 9.79549-15.7754 11.2225-15.7754 12.4697-15.5985 13.537-15.2449 14.6042-14.8912 15.4947-14.3907 16.2083-13.7434 16.9219-13.0961 17.4619-12.312 17.8283-11.3911 18.1947-10.4702 18.3779-9.44922 18.3779-8.32812ZM39.9986-6.64648C39.9986-5.52539 39.7984-4.52775 39.398-3.65356 38.9977-2.77938 38.4204-2.04199 37.6664-1.44141 36.9123-0.84082 35.9814-0.387044 34.8736-0.0800781 33.7659 0.226888 32.498 0.380371 31.0699 0.380371 29.7353 0.380371 28.5408 0.240234 27.4864-0.0400391 26.4321-0.320312 25.5379-0.734049 24.8038-1.28125 24.0698-1.82845 23.5092-2.50244 23.1222-3.30322 22.7351-4.104 22.5416-5.01823 22.5416-6.0459 22.5416-6.86003 22.6751-7.60742 22.942-8.28808 23.2089-8.96875 23.5926-9.59603 24.0931-10.1699 24.5936-10.7438 25.2109-11.281 25.9449-11.7815 26.679-12.282 27.5064-12.7591 28.4273-13.2129 27.6266-13.6266 26.9192-14.0637 26.3053-14.5242 25.6913-14.9846 25.1708-15.4851 24.7437-16.0256 24.3167-16.5662 23.993-17.1434 23.7728-17.7573 23.5526-18.3713 23.4425-19.0386 23.4425-19.7593 23.4425-20.6668 23.606-21.5177 23.933-22.3118 24.2599-23.1059 24.7538-23.7965 25.4144-24.3838 26.075-24.971 26.9159-25.4348 27.9369-25.7751 28.9579-26.1155 30.149-26.2856 31.5103-26.2856 32.8183-26.2856 33.9494-26.1288 34.9037-25.8152 35.8579-25.5015 36.6454-25.0745 37.266-24.5339 37.8866-23.9934 38.3437-23.3561 38.6373-22.6221 38.9309-21.888 39.0777-21.1006 39.0777-20.2598 39.0777-19.5791 38.9676-18.9251 38.7474-18.2978 38.5272-17.6706 38.2035-17.0767 37.7765-16.5161 37.3494-15.9556 36.8255-15.4317 36.2049-14.9446 35.5843-14.4574 34.8736-14.0003 34.0728-13.5732 35.0204-13.1061 35.8646-12.6256 36.6053-12.1318 37.346-11.638 37.9666-11.1075 38.4671-10.5403 38.9676-9.97306 39.348-9.37248 39.6082-8.73852 39.8685-8.10457 39.9986-7.40723 39.9986-6.64648ZM35.6744-19.9395C35.6744-20.5 35.5777-21.0072 35.3841-21.4609 35.1906-21.9147 34.907-22.3018 34.5333-22.6221 34.1596-22.9424 33.6958-23.186 33.1419-23.3528 32.5881-23.5196 31.9575-23.603 31.2501-23.603 29.8087-23.603 28.7176-23.276 27.9769-22.6221 27.2362-21.9681 26.8658-21.0739 26.8658-19.9395 26.8658-19.4189 26.9559-18.9351 27.1361-18.488 27.3163-18.0409 27.5965-17.6172 27.9769-17.2168 28.3573-16.8164 28.8377-16.426 29.4183-16.0457 29.9989-15.6653 30.6895-15.2682 31.4903-14.8545 32.8383-15.5485 33.8727-16.3159 34.5934-17.1567 35.3141-17.9976 35.6744-18.9251 35.6744-19.9395ZM36.5152-6.28613C36.5152-6.90006 36.4018-7.45727 36.1749-7.95776 35.948-8.45825 35.6043-8.92537 35.1439-9.35913 34.6834-9.79289 34.1096-10.2133 33.4222-10.6204 32.7349-11.0274 31.9374-11.4512 31.0299-11.8916 30.1891-11.4779 29.4517-11.0641 28.8177-10.6504 28.1838-10.2367 27.6633-9.80957 27.2562-9.36914 26.8491-8.92871 26.5422-8.46492 26.3353-7.97778 26.1284-7.49064 26.025-6.95345 26.025-6.36621 26.025-5.07161 26.4688-4.07064 27.3563-3.36328 28.2438-2.65592 29.5685-2.30225 31.3302-2.30225 33.0385-2.30225 34.3298-2.65926 35.204-3.37329 36.0781-4.08732 36.5152-5.05827 36.5152-6.28613ZM60.6784-24.4238C60.6784-24.1836 60.6684-23.9667 60.6484-23.7732 60.6284-23.5797 60.6017-23.3928 60.5683-23.2126 60.5349-23.0325 60.4882-22.859 60.4282-22.6921 60.3681-22.5253 60.298-22.3485 60.218-22.1616L50.8889-0.660644C50.8221-0.500488 50.7387-0.370361 50.6386-0.270264 50.5385-0.170166 50.4117-0.0900879 50.2582-0.0300293 50.1048 0.0300293 49.9079 0.0700684 49.6677 0.0900879 49.4274 0.110107 49.1338 0.120117 48.7868 0.120117 48.333 0.120117 47.9794 0.100098 47.7258 0.0600586 47.4722 0.0200195 47.2887-0.0433756 47.1752-0.130127 47.0618-0.216878 47.0117-0.323649 47.0251-0.450439 47.0384-0.57723 47.0852-0.727376 47.1652-0.900879L56.9748-22.8823 44.5427-22.8823C44.2891-22.8823 44.0989-23.0158 43.9721-23.2827 43.8453-23.5496 43.7819-23.9233 43.7819-24.4038 43.7819-24.6574 43.7986-24.8776 43.832-25.0645 43.8653-25.2513 43.9154-25.4081 43.9821-25.5349 44.0489-25.6617 44.1289-25.7551 44.2224-25.8152 44.3158-25.8752 44.4226-25.9053 44.5427-25.9053L59.6374-25.9053C59.8242-25.9053 59.9877-25.8853 60.1279-25.8452 60.268-25.8052 60.3748-25.7251 60.4482-25.605 60.5216-25.4849 60.5783-25.3314 60.6184-25.1445 60.6584-24.9577 60.6784-24.7174 60.6784-24.4238Z" transform="matrix(1.02 0 0 1.02 32.6809 60)"/></g></g><text font-family="Calibri,Calibri_MSFontService,sans-serif" font-weight="400" font-size="41" transform="matrix(1 0 0 1 2259.31 3772)">587</text></g><g clip-path="url(#clip49)"><g clip-path="url(#clip50)" filter="url(#fx7)" transform="translate(2222 3762)"><g clip-path="url(#clip51)"><path d="M18.5581-1.36133C18.5581-1.10775 18.5381-0.894206 18.498-0.720703 18.458-0.5472 18.4046-0.407064 18.3379-0.300293 18.2712-0.193522 18.1944-0.116781 18.1077-0.0700684 18.0209-0.0233561 17.9308 0 17.8374 0L4.3042 0C4.21077 0 4.12402-0.0233561 4.04394-0.0700684 3.96387-0.116781 3.88713-0.193522 3.81372-0.300293 3.74032-0.407064 3.68359-0.5472 3.64355-0.720703 3.60352-0.894206 3.5835-1.10775 3.5835-1.36133 3.5835-1.60156 3.60352-1.80843 3.64355-1.98193 3.68359-2.15544 3.73364-2.29891 3.7937-2.41235 3.85376-2.5258 3.92716-2.61255 4.01392-2.67261 4.10067-2.73267 4.19743-2.7627 4.3042-2.7627L9.70947-2.7627 9.70947-22.4619 4.70459-19.479C4.45101-19.3455 4.24748-19.2655 4.09399-19.2388 3.94051-19.2121 3.81706-19.2421 3.72363-19.3289 3.63021-19.4156 3.56681-19.5591 3.53345-19.7593 3.50008-19.9595 3.4834-20.2131 3.4834-20.52 3.4834-20.7469 3.49341-20.9404 3.51343-21.1006 3.53345-21.2607 3.56348-21.3942 3.60352-21.501 3.64355-21.6077 3.70028-21.7012 3.77368-21.7812 3.84709-21.8613 3.94385-21.9414 4.06396-22.0215L10.0298-25.8452C10.0832-25.8853 10.1499-25.9186 10.23-25.9453 10.3101-25.972 10.4102-25.9987 10.5303-26.0254 10.6504-26.0521 10.7905-26.0688 10.9507-26.0754 11.1108-26.0821 11.311-26.0854 11.5513-26.0854 11.8716-26.0854 12.1385-26.0721 12.352-26.0454 12.5656-26.0187 12.7324-25.982 12.8525-25.9353 12.9727-25.8886 13.0527-25.8285 13.0928-25.7551 13.1328-25.6817 13.1528-25.605 13.1528-25.5249L13.1528-2.7627 17.8374-2.7627C17.9442-2.7627 18.0443-2.73267 18.1377-2.67261 18.2311-2.61255 18.3079-2.5258 18.3679-2.41235 18.428-2.29891 18.4747-2.15544 18.5081-1.98193 18.5414-1.80843 18.5581-1.60156 18.5581-1.36133ZM39.398-1.48145C39.398-1.24121 39.3814-1.02767 39.348-0.84082 39.3146-0.653971 39.2679-0.497152 39.2079-0.370361 39.1478-0.243571 39.0677-0.150146 38.9676-0.0900879 38.8675-0.0300293 38.7574 0 38.6373 0L24.3233 0C24.1365 0 23.973-0.0233561 23.8329-0.0700684 23.6927-0.116781 23.5726-0.193522 23.4725-0.300293 23.3724-0.407064 23.299-0.560547 23.2523-0.760742 23.2056-0.960937 23.1822-1.20784 23.1822-1.50146 23.1822-1.76839 23.1925-2.00195 23.2132-2.20215 23.2338-2.40234 23.2785-2.57918 23.3472-2.73267 23.4159-2.88615 23.5019-3.03963 23.6051-3.19311 23.7084-3.3466 23.8425-3.51009 24.0074-3.68359L29.1853-9.00879C30.3819-10.2367 31.3412-11.3377 32.0632-12.312 32.7853-13.2863 33.3423-14.1738 33.7342-14.9746 34.1262-15.7754 34.384-16.5028 34.5078-17.1567 34.6316-17.8107 34.6935-18.4246 34.6935-18.9985 34.6935-19.5724 34.5971-20.1163 34.4043-20.6301 34.2115-21.144 33.9326-21.5944 33.5677-21.9814 33.2027-22.3685 32.7448-22.6755 32.194-22.9023 31.6431-23.1292 31.0097-23.2427 30.2935-23.2427 29.4535-23.2427 28.6996-23.1292 28.0316-22.9023 27.3637-22.6755 26.7784-22.4285 26.2757-22.1616 25.773-21.8947 25.353-21.6478 25.0157-21.4209 24.6784-21.194 24.4271-21.0806 24.2617-21.0806 24.1654-21.0806 24.0793-21.1073 24.0035-21.1606 23.9277-21.214 23.8657-21.3008 23.8175-21.4209 23.7694-21.541 23.7315-21.7012 23.704-21.9014 23.6765-22.1016 23.6627-22.3418 23.6627-22.6221 23.6627-22.8223 23.6694-22.9958 23.6827-23.1426 23.6961-23.2894 23.7194-23.4162 23.7528-23.5229 23.7861-23.6297 23.8295-23.7298 23.8829-23.8232 23.9363-23.9167 24.0431-24.0334 24.2032-24.1736 24.3634-24.3137 24.6403-24.5039 25.034-24.7441 25.4277-24.9844 25.9216-25.2213 26.5155-25.4548 27.1094-25.6884 27.7634-25.8853 28.4774-26.0454 29.1914-26.2056 29.9422-26.2856 30.7296-26.2856 31.9841-26.2856 33.0819-26.1088 34.0228-25.7551 34.9637-25.4014 35.7445-24.9176 36.3651-24.3037 36.9857-23.6898 37.4495-22.9757 37.7564-22.1616 38.0634-21.3475 38.2169-20.48 38.2169-19.5591 38.2169-18.7316 38.1435-17.9075 37.9967-17.0867 37.8499-16.2659 37.5396-15.3783 37.0658-14.4241 36.592-13.4698 35.908-12.4088 35.0138-11.241 34.1196-10.0732 32.9317-8.72851 31.4503-7.20703L27.3463-2.92285 38.6173-2.92285C38.724-2.92285 38.8275-2.89282 38.9276-2.83276 39.0277-2.7727 39.1144-2.68262 39.1878-2.5625 39.2612-2.44238 39.3146-2.29224 39.348-2.11206 39.3814-1.93188 39.398-1.72168 39.398-1.48145ZM54.3923-19.499C54.3923-18.4714 54.2788-17.5371 54.0519-16.6963 53.8251-15.8555 53.4781-15.1381 53.0109-14.5442 52.5438-13.9503 51.9532-13.4865 51.2392-13.1528 50.5252-12.8192 49.6877-12.6523 48.7268-12.6523 47.7525-12.6523 46.9183-12.8058 46.2243-13.1128 45.5303-13.4198 44.9631-13.8635 44.5227-14.4441 44.0822-15.0247 43.7586-15.732 43.5517-16.5662 43.3448-17.4003 43.2414-18.3512 43.2414-19.4189 43.2414-20.3932 43.3515-21.2941 43.5717-22.1216 43.7919-22.9491 44.1289-23.6631 44.5827-24.2637 45.0365-24.8643 45.6204-25.3381 46.3344-25.6851 47.0484-26.0321 47.8926-26.2056 48.8669-26.2056 49.9212-26.2056 50.8054-26.0254 51.5195-25.665 52.2335-25.3047 52.8041-24.8209 53.2311-24.2136 53.6582-23.6064 53.9585-22.8957 54.132-22.0815 54.3055-21.2674 54.3923-20.4066 54.3923-19.499ZM51.5895-19.3989C51.5895-20.1463 51.5362-20.8103 51.4294-21.3909 51.3226-21.9714 51.1591-22.4552 50.9389-22.8423 50.7187-23.2293 50.4284-23.5196 50.0681-23.7131 49.7077-23.9067 49.2806-24.0034 48.7868-24.0034 48.3197-24.0034 47.9126-23.91 47.5656-23.7231 47.2186-23.5363 46.935-23.256 46.7148-22.8823 46.4946-22.5086 46.3311-22.0448 46.2243-21.491 46.1175-20.9371 46.0642-20.2865 46.0642-19.5391 46.0642-18.6315 46.1275-17.8741 46.2543-17.2668 46.3811-16.6596 46.5613-16.1791 46.7949-15.8254 47.0284-15.4718 47.322-15.2249 47.6757-15.0847 48.0294-14.9446 48.4331-14.8745 48.8869-14.8745 49.4208-14.8745 49.8579-14.9746 50.1982-15.1748 50.5385-15.375 50.8121-15.672 51.019-16.0657 51.2259-16.4594 51.3727-16.9332 51.4594-17.4871 51.5462-18.0409 51.5895-18.6782 51.5895-19.3989ZM69.6672-6.54639C69.6672-5.51872 69.5537-4.58447 69.3269-3.74365 69.1-2.90283 68.753-2.18547 68.2858-1.59155 67.8187-0.99764 67.2281-0.533854 66.5141-0.200195 65.8001 0.133464 64.9626 0.300293 64.0017 0.300293 63.0274 0.300293 62.1932 0.14681 61.4992-0.160156 60.8052-0.467122 60.238-0.910889 59.7976-1.49145 59.3571-2.07202 59.0335-2.77938 58.8266-3.61353 58.6197-4.44767 58.5163-5.3986 58.5163-6.46631 58.5163-7.44059 58.6264-8.34147 58.8466-9.16894 59.0668-9.99642 59.4038-10.7104 59.8576-11.311 60.3114-11.9116 60.8953-12.3854 61.6093-12.7324 62.3233-13.0794 63.1675-13.2529 64.1418-13.2529 65.1962-13.2529 66.0804-13.0728 66.7944-12.7124 67.5084-12.352 68.079-11.8682 68.5061-11.261 68.9331-10.6537 69.2334-9.94303 69.4069-9.12891 69.5804-8.31478 69.6672-7.45394 69.6672-6.54639ZM66.8644-6.44629C66.8644-7.19368 66.8111-7.85767 66.7043-8.43823 66.5975-9.0188 66.434-9.5026 66.2138-9.88965 65.9936-10.2767 65.7033-10.567 65.343-10.7605 64.9826-10.954 64.5555-11.0508 64.0617-11.0508 63.5946-11.0508 63.1875-10.9574 62.8405-10.7705 62.4935-10.5837 62.2099-10.3034 61.9897-9.92969 61.7695-9.55599 61.606-9.0922 61.4992-8.53833 61.3924-7.98446 61.3391-7.33382 61.3391-6.58643 61.3391-5.67887 61.4025-4.92147 61.5292-4.31421 61.656-3.70695 61.8362-3.22648 62.0698-2.8728 62.3033-2.51912 62.597-2.27222 62.9506-2.13208 63.3043-1.99194 63.708-1.92187 64.1618-1.92187 64.6957-1.92187 65.1328-2.02197 65.4731-2.22217 65.8134-2.42236 66.087-2.71932 66.2939-3.11304 66.5008-3.50675 66.6476-3.98055 66.7343-4.53442 66.8211-5.0883 66.8644-5.72558 66.8644-6.44629ZM48.7268 0.160156C48.66 0.280273 48.5799 0.370361 48.4865 0.43042 48.3931 0.490478 48.2796 0.543864 48.1462 0.590576 48.0127 0.637288 47.8526 0.670654 47.6657 0.690674 47.4789 0.710693 47.252 0.720703 46.9851 0.720703 46.6914 0.720703 46.4545 0.69401 46.2744 0.640625 46.0942 0.58724 45.9674 0.517171 45.894 0.43042 45.8206 0.343669 45.7939 0.236898 45.8139 0.110107 45.8339-0.0166829 45.8973-0.160156 46.0041-0.320312L64.0217-26.1255C64.0884-26.2323 64.1685-26.3223 64.2619-26.3958 64.3553-26.4692 64.4721-26.5259 64.6123-26.5659 64.7524-26.606 64.9125-26.636 65.0927-26.656 65.2729-26.676 65.5031-26.686 65.7834-26.686 66.0637-26.686 66.2939-26.6627 66.4741-26.616 66.6542-26.5693 66.7844-26.4992 66.8644-26.4058 66.9445-26.3123 66.9746-26.1989 66.9545-26.0654 66.9345-25.932 66.8711-25.7918 66.7644-25.645Z" transform="matrix(1.02 0 0 1.02 32.2869 60)"/></g></g><text font-family="Calibri,Calibri_MSFontService,sans-serif" font-weight="400" font-size="41" transform="matrix(1 0 0 1 2255 3822)">12%</text></g><g clip-path="url(#clip52)"><text fill="#D9D9D9" font-family="Calibri,Calibri_MSFontService,sans-serif" font-weight="400" font-size="41" transform="matrix(1 0 0 1 2423.71 3679)">5</text></g><g clip-path="url(#clip53)"><text fill="#D9D9D9" font-family="Calibri,Calibri_MSFontService,sans-serif" font-weight="400" font-size="41" transform="matrix(1 0 0 1 2402.81 3730)">165</text></g><g clip-path="url(#clip54)"><text fill="#D9D9D9" font-family="Calibri,Calibri_MSFontService,sans-serif" font-weight="400" font-size="41" transform="matrix(1 0 0 1 2408.95 3780)">3%</text></g><g clip-path="url(#clip55)"><text fill="#F2F2F2" font-family="Calibri,Calibri_MSFontService,sans-serif" font-weight="700" font-size="73" transform="matrix(1 0 0 1 2079.81 3470)">Race Outcomes (Rank)</text></g></g></svg>