<svg width="990" height="990" xmlns="http://www.w3.org/2000/svg" xmlns:xlink="http://www.w3.org/1999/xlink" xml:space="preserve" overflow="hidden"><defs><filter id="fx0" x="-10%" y="-10%" width="120%" height="120%" filterUnits="userSpaceOnUse" primitiveUnits="userSpaceOnUse"><feComponentTransfer color-interpolation-filters="sRGB"><feFuncR type="discrete" tableValues="0 0"/><feFuncG type="discrete" tableValues="0 0"/><feFuncB type="discrete" tableValues="0 0"/><feFuncA type="linear" slope="0.631373" intercept="0"/></feComponentTransfer><feGaussianBlur stdDeviation="6.875 6.875"/></filter><filter id="fx1" x="-10%" y="-10%" width="120%" height="120%" filterUnits="userSpaceOnUse" primitiveUnits="userSpaceOnUse"><feComponentTransfer color-interpolation-filters="sRGB"><feFuncR type="discrete" tableValues="0 0"/><feFuncG type="discrete" tableValues="0 0"/><feFuncB type="discrete" tableValues="0 0"/><feFuncA type="linear" slope="0.631373" intercept="0"/></feComponentTransfer><feGaussianBlur stdDeviation="6.875 6.875"/></filter><clipPath id="clip2"><rect x="1922" y="113" width="990" height="990"/></clipPath><clipPath id="clip3"><rect x="1921" y="113" width="990" height="990"/></clipPath><clipPath id="clip4"><rect x="-3" y="-3" width="648" height="807"/></clipPath><clipPath id="clip5"><rect x="0" y="0" width="644" height="803"/></clipPath><clipPath id="clip6"><rect x="1921" y="113" width="990" height="990"/></clipPath><clipPath id="clip7"><rect x="-3" y="-3" width="431" height="737"/></clipPath><clipPath id="clip8"><rect x="0" y="0" width="424" height="732"/></clipPath><clipPath id="clip9"><rect x="1921" y="113" width="990" height="990"/></clipPath><linearGradient x1="2495.84" y1="294.617" x2="2495.84" y2="1053.02" gradientUnits="userSpaceOnUse" spreadMethod="reflect" id="fill10"><stop offset="0" stop-color="#6083CB"/><stop offset="0.5" stop-color="#3E70CA"/><stop offset="1" stop-color="#2E61BA"/></linearGradient><clipPath id="clip11"><rect x="1921" y="113" width="990" height="990"/></clipPath><linearGradient x1="2226.95" y1="294.617" x2="2226.95" y2="982.216" gradientUnits="userSpaceOnUse" spreadMethod="reflect" id="fill12"><stop offset="0" stop-color="#F18C55"/><stop offset="0.5" stop-color="#F67B28"/><stop offset="1" stop-color="#E56B17"/></linearGradient><clipPath id="clip13"><rect x="1921" y="113" width="990" height="990"/></clipPath><clipPath id="clip14"><rect x="1921" y="113" width="990" height="990"/></clipPath><clipPath id="clip15"><rect x="1921" y="113" width="990" height="990"/></clipPath><clipPath id="clip16"><rect x="1921" y="113" width="990" height="990"/></clipPath><clipPath id="clip17"><rect x="1921" y="113" width="990" height="990"/></clipPath><clipPath id="clip18"><rect x="1921" y="113" width="990" height="990"/></clipPath><clipPath id="clip19"><rect x="1921" y="113" width="990" height="990"/></clipPath></defs><g clip-path="url(#clip2)" transform="translate(-1922 -113)"><rect x="1922" y="113" width="990" height="990" fill="#404040"/><g clip-path="url(#clip3)"><g clip-path="url(#clip4)" filter="url(#fx0)" transform="translate(2174 279)"><g clip-path="url(#clip5)"><path d="M242.562 22.4917C451.99 22.4917 621.764 192.266 621.764 401.694 621.764 611.121 451.99 780.896 242.562 780.896 163.427 780.896 86.2751 756.138 21.916 710.091L242.562 401.694Z" fill="#FF0000" fill-rule="evenodd"/></g></g></g><g clip-path="url(#clip6)"><g clip-path="url(#clip7)" filter="url(#fx1)" transform="translate(2015 279)"><g clip-path="url(#clip8)"><path d="M180.916 710.091C10.5929 588.231-28.6947 351.37 93.165 181.047 164.362 81.5341 279.203 22.4915 401.563 22.4915L401.562 401.694Z" fill="#FF0000" fill-rule="evenodd"/></g></g></g><g clip-path="url(#clip9)"><path d="M2416.56 294.617C2625.99 294.617 2795.76 464.391 2795.76 673.819 2795.76 883.246 2625.99 1053.02 2416.56 1053.02 2337.43 1053.02 2260.28 1028.26 2195.92 982.216L2416.56 673.819Z" fill="url(#fill10)" fill-rule="evenodd"/></g><g clip-path="url(#clip11)"><path d="M2195.92 982.216C2025.59 860.356 1986.31 623.495 2108.17 453.172 2179.36 353.659 2294.2 294.617 2416.56 294.617L2416.56 673.819Z" fill="url(#fill12)" fill-rule="evenodd"/></g><g clip-path="url(#clip13)"><text fill="#FFFFFF" font-family="Calibri,Calibri_MSFontService,sans-serif" font-weight="400" font-size="41" transform="matrix(1 0 0 1 2510.44 695)">Not Raced</text></g><g clip-path="url(#clip14)"><text fill="#FFFFFF" font-family="Calibri,Calibri_MSFontService,sans-serif" font-weight="400" font-size="41" transform="matrix(1 0 0 1 2555.31 746)">4438</text></g><g clip-path="url(#clip15)"><text fill="#FFFFFF" font-family="Calibri,Calibri_MSFontService,sans-serif" font-weight="400" font-size="41" transform="matrix(1 0 0 1 2561.45 796)">60%</text></g><g clip-path="url(#clip16)"><text fill="#FFFFFF" font-family="Calibri,Calibri_MSFontService,sans-serif" font-weight="400" font-size="41" transform="matrix(1 0 0 1 2185.13 579)">Raced</text></g><g clip-path="url(#clip17)"><text fill="#FFFFFF" font-family="Calibri,Calibri_MSFontService,sans-serif" font-weight="400" font-size="41" transform="matrix(1 0 0 1 2194.23 630)">2973</text></g><g clip-path="url(#clip18)"><text fill="#FFFFFF" font-family="Calibri,Calibri_MSFontService,sans-serif" font-weight="400" font-size="41" transform="matrix(1 0 0 1 2200.37 680)">40%</text></g><g clip-path="url(#clip19)"><text fill="#F2F2F2" font-family="Calibri,Calibri_MSFontService,sans-serif" font-weight="700" font-size="73" transform="matrix(1 0 0 1 2101.68 218)">Universe Explored</text></g></g></svg>