<svg width="1319" height="1320" xmlns="http://www.w3.org/2000/svg" xmlns:xlink="http://www.w3.org/1999/xlink" xml:space="preserve" overflow="hidden"><defs><filter id="fx0" x="-10%" y="-10%" width="120%" height="120%" filterUnits="userSpaceOnUse" primitiveUnits="userSpaceOnUse"><feComponentTransfer color-interpolation-filters="sRGB"><feFuncR type="discrete" tableValues="0 0"/><feFuncG type="discrete" tableValues="0 0"/><feFuncB type="discrete" tableValues="0 0"/><feFuncA type="linear" slope="0.631373" intercept="0"/></feComponentTransfer><feGaussianBlur stdDeviation="6.875 6.875"/></filter><filter id="fx1" x="-10%" y="-10%" width="120%" height="120%" filterUnits="userSpaceOnUse" primitiveUnits="userSpaceOnUse"><feComponentTransfer color-interpolation-filters="sRGB"><feFuncR type="discrete" tableValues="0 0"/><feFuncG type="discrete" tableValues="0 0"/><feFuncB type="discrete" tableValues="0 0"/><feFuncA type="linear" slope="0.631373" intercept="0"/></feComponentTransfer><feGaussianBlur stdDeviation="6.875 6.875"/></filter><filter id="fx2" x="-10%" y="-10%" width="120%" height="120%" filterUnits="userSpaceOnUse" primitiveUnits="userSpaceOnUse"><feComponentTransfer color-interpolation-filters="sRGB"><feFuncR type="discrete" tableValues="0 0"/><feFuncG type="discrete" tableValues="0 0"/><feFuncB type="discrete" tableValues="0 0"/><feFuncA type="linear" slope="0" intercept="0"/></feComponentTransfer><feGaussianBlur stdDeviation="6.11111 6.11111"/></filter><clipPath id="clip3"><rect x="1073" y="8618" width="1319" height="1320"/></clipPath><clipPath id="clip4"><rect x="1072" y="8617" width="1320" height="1320"/></clipPath><clipPath id="clip5"><rect x="-3" y="-3" width="1138" height="1138"/></clipPath><clipPath id="clip6"><rect x="0" y="0" width="1133" height="1132"/></clipPath><clipPath id="clip7"><rect x="1072" y="8617" width="1320" height="1320"/></clipPath><clipPath id="clip8"><rect x="-3" y="-3" width="586" height="593"/></clipPath><clipPath id="clip9"><rect x="0" y="0" width="578" height="588"/></clipPath><clipPath id="clip10"><rect x="1072" y="8617" width="1320" height="1320"/></clipPath><linearGradient x1="1732.5" y1="8798.99" x2="1732.5" y2="9887.39" gradientUnits="userSpaceOnUse" spreadMethod="reflect" id="fill11"><stop offset="0" stop-color="#6083CB"/><stop offset="0.5" stop-color="#3E70CA"/><stop offset="1" stop-color="#2E61BA"/></linearGradient><clipPath id="clip12"><rect x="1072" y="8617" width="1320" height="1320"/></clipPath><linearGradient x1="1465" y1="8798.99" x2="1465" y2="9343.19" gradientUnits="userSpaceOnUse" spreadMethod="reflect" id="fill13"><stop offset="0" stop-color="#F18C55"/><stop offset="0.5" stop-color="#F67B28"/><stop offset="1" stop-color="#E56B17"/></linearGradient><clipPath id="clip14"><rect x="1072" y="8617" width="1320" height="1320"/></clipPath><clipPath id="clip15"><rect x="1072" y="8617" width="1320" height="1320"/></clipPath><clipPath id="clip16"><rect x="1072" y="8617" width="1320" height="1320"/></clipPath><clipPath id="clip17"><rect x="1072" y="8617" width="1320" height="1320"/></clipPath><clipPath id="clip18"><rect x="1072" y="8617" width="1320" height="1320"/></clipPath><clipPath id="clip19"><rect x="1072" y="8617" width="1320" height="1320"/></clipPath><clipPath id="clip20"><rect x="1072" y="8617" width="1320" height="1320"/></clipPath><clipPath id="clip21"><path d="M1295 8645 1295 8749 2170 8749 2170 8645ZM1073 8618 2392 8618 2392 9938 1073 9938Z" fill-rule="evenodd" clip-rule="evenodd"/></clipPath><clipPath id="clip22"><rect x="-3" y="-3" width="923" height="152"/></clipPath><clipPath id="clip23"><rect x="0" y="0" width="915" height="144"/></clipPath><clipPath id="clip24"><rect x="1072" y="8617" width="1320" height="1320"/></clipPath></defs><g clip-path="url(#clip3)" transform="translate(-1073 -8618)"><rect x="1073" y="8618" width="1319" height="1320" fill="#404040"/><g clip-path="url(#clip4)"><g clip-path="url(#clip5)" filter="url(#fx0)" transform="translate(1166 8784)"><g clip-path="url(#clip6)"><path d="M566.5 21.8662C867.054 21.8662 1110.7 265.514 1110.7 566.068 1110.7 866.622 867.054 1110.27 566.5 1110.27 265.946 1110.27 22.2981 866.622 22.2981 566.068 22.2981 532.622 25.3815 499.246 31.5091 466.366L566.5 566.068Z" fill="#FF0000" fill-rule="evenodd"/></g></g></g><g clip-path="url(#clip7)"><g clip-path="url(#clip8)" filter="url(#fx1)" transform="translate(1176 8784)"><g clip-path="url(#clip9)"><path d="M21.5086 466.366C69.528 208.698 294.396 21.8656 556.499 21.8656L556.5 566.068Z" fill="#FF0000" fill-rule="evenodd"/></g></g></g><g clip-path="url(#clip10)"><path d="M1732.5 8798.99C2033.05 8798.99 2276.7 9042.64 2276.7 9343.19 2276.7 9643.75 2033.05 9887.39 1732.5 9887.39 1431.95 9887.39 1188.3 9643.75 1188.3 9343.19 1188.3 9309.75 1191.38 9276.37 1197.51 9243.49L1732.5 9343.19Z" fill="url(#fill11)" fill-rule="evenodd"/></g><g clip-path="url(#clip12)"><path d="M1197.51 9243.49C1245.53 8985.82 1470.4 8798.99 1732.5 8798.99L1732.5 9343.19Z" fill="url(#fill13)" fill-rule="evenodd"/></g><g clip-path="url(#clip14)"><text fill="#FFFFFF" font-family="Calibri,Calibri_MSFontService,sans-serif" font-weight="400" font-size="41" transform="matrix(1 0 0 1 1840.53 9516)">Inactive</text></g><g clip-path="url(#clip15)"><text fill="#FFFFFF" font-family="Calibri,Calibri_MSFontService,sans-serif" font-weight="400" font-size="41" transform="matrix(1 0 0 1 1864.59 9567)">1176</text></g><g clip-path="url(#clip16)"><text fill="#FFFFFF" font-family="Calibri,Calibri_MSFontService,sans-serif" font-weight="400" font-size="41" transform="matrix(1 0 0 1 1870.73 9617)">78%</text></g><g clip-path="url(#clip17)"><text fill="#FFFFFF" font-family="Calibri,Calibri_MSFontService,sans-serif" font-weight="400" font-size="41" transform="matrix(1 0 0 1 1506.73 9097)">Active</text></g><g clip-path="url(#clip18)"><text fill="#FFFFFF" font-family="Calibri,Calibri_MSFontService,sans-serif" font-weight="400" font-size="41" transform="matrix(1 0 0 1 1527.26 9148)">333</text></g><g clip-path="url(#clip19)"><text fill="#FFFFFF" font-family="Calibri,Calibri_MSFontService,sans-serif" font-weight="400" font-size="41" transform="matrix(1 0 0 1 1522.95 9198)">22%</text></g><g clip-path="url(#clip20)"><g clip-path="url(#clip21)"><g clip-path="url(#clip22)" filter="url(#fx2)" transform="translate(1275 8643)"><g clip-path="url(#clip23)"><rect x="19.9999" y="20.333" width="875" height="104" fill="#FFFFFF"/></g></g></g></g><g clip-path="url(#clip24)"><text fill="#F2F2F2" font-family="Calibri,Calibri_MSFontService,sans-serif" font-weight="700" font-size="73" transform="matrix(1 0 0 1 1308.5 8722)">Active vs Inactive (Days)</text></g></g></svg>