<svg width="990" height="990" xmlns="http://www.w3.org/2000/svg" xmlns:xlink="http://www.w3.org/1999/xlink" xml:space="preserve" overflow="hidden"><defs><filter id="fx0" x="-10%" y="-10%" width="120%" height="120%" filterUnits="userSpaceOnUse" primitiveUnits="userSpaceOnUse"><feComponentTransfer color-interpolation-filters="sRGB"><feFuncR type="discrete" tableValues="0 0"/><feFuncG type="discrete" tableValues="0 0"/><feFuncB type="discrete" tableValues="0 0"/><feFuncA type="linear" slope="0.631373" intercept="0"/></feComponentTransfer><feGaussianBlur stdDeviation="6.875 6.875"/></filter><filter id="fx1" x="-10%" y="-10%" width="120%" height="120%" filterUnits="userSpaceOnUse" primitiveUnits="userSpaceOnUse"><feComponentTransfer color-interpolation-filters="sRGB"><feFuncR type="discrete" tableValues="0 0"/><feFuncG type="discrete" tableValues="0 0"/><feFuncB type="discrete" tableValues="0 0"/><feFuncA type="linear" slope="0.631373" intercept="0"/></feComponentTransfer><feGaussianBlur stdDeviation="6.875 6.875"/></filter><clipPath id="clip2"><rect x="818" y="107" width="990" height="990"/></clipPath><clipPath id="clip3"><rect x="818" y="106" width="990" height="990"/></clipPath><clipPath id="clip4"><rect x="-3" y="-3" width="641" height="807"/></clipPath><clipPath id="clip5"><rect x="0" y="0" width="635" height="802"/></clipPath><clipPath id="clip6"><rect x="818" y="106" width="990" height="990"/></clipPath><clipPath id="clip7"><rect x="-3" y="-3" width="431" height="744"/></clipPath><clipPath id="clip8"><rect x="0" y="0" width="423" height="737"/></clipPath><clipPath id="clip9"><rect x="818" y="106" width="990" height="990"/></clipPath><linearGradient x1="1396.55" y1="287.742" x2="1396.55" y2="1046.15" gradientUnits="userSpaceOnUse" spreadMethod="reflect" id="fill10"><stop offset="0" stop-color="#6083CB"/><stop offset="0.5" stop-color="#3E70CA"/><stop offset="1" stop-color="#2E61BA"/></linearGradient><clipPath id="clip11"><rect x="818" y="106" width="990" height="990"/></clipPath><linearGradient x1="1123.5" y1="287.742" x2="1123.5" y2="981.109" gradientUnits="userSpaceOnUse" spreadMethod="reflect" id="fill12"><stop offset="0" stop-color="#F18C55"/><stop offset="0.5" stop-color="#F67B28"/><stop offset="1" stop-color="#E56B17"/></linearGradient><clipPath id="clip13"><rect x="818" y="106" width="990" height="990"/></clipPath><clipPath id="clip14"><rect x="818" y="106" width="990" height="990"/></clipPath><clipPath id="clip15"><rect x="818" y="106" width="990" height="990"/></clipPath><clipPath id="clip16"><rect x="818" y="106" width="990" height="990"/></clipPath><clipPath id="clip17"><rect x="818" y="106" width="990" height="990"/></clipPath><clipPath id="clip18"><rect x="818" y="106" width="990" height="990"/></clipPath><clipPath id="clip19"><rect x="818" y="106" width="990" height="990"/></clipPath></defs><g clip-path="url(#clip2)" transform="translate(-818 -107)"><rect x="818" y="107" width="990" height="990" fill="#404040"/><g clip-path="url(#clip3)"><g clip-path="url(#clip4)" filter="url(#fx0)" transform="translate(1079 273)"><g clip-path="url(#clip5)"><path d="M234.125 21.6167C443.552 21.6167 613.327 191.391 613.327 400.819 613.327 610.246 443.552 780.021 234.125 780.021 158.436 780.021 84.4782 757.37 21.7704 714.984L234.125 400.819Z" fill="#FF0000" fill-rule="evenodd"/></g></g></g><g clip-path="url(#clip6)"><g clip-path="url(#clip7)" filter="url(#fx1)" transform="translate(912 273)"><g clip-path="url(#clip8)"><path d="M188.771 714.984C15.2621 597.704-30.3203 361.973 86.9597 188.464 157.481 84.1329 275.195 21.6167 401.125 21.6167L401.125 400.819Z" fill="#FF0000" fill-rule="evenodd"/></g></g></g><g clip-path="url(#clip9)"><path d="M1313.12 287.742C1522.55 287.742 1692.33 457.516 1692.33 666.944 1692.33 876.371 1522.55 1046.15 1313.12 1046.15 1237.44 1046.15 1163.48 1023.49 1100.77 981.109L1313.12 666.944Z" fill="url(#fill10)" fill-rule="evenodd"/></g><g clip-path="url(#clip11)"><path d="M1100.77 981.109C927.262 863.829 881.68 628.098 998.96 454.589 1069.48 350.258 1187.2 287.742 1313.12 287.742L1313.12 666.944Z" fill="url(#fill12)" fill-rule="evenodd"/></g><g clip-path="url(#clip13)"><text fill="#FFFFFF" font-family="Calibri,Calibri_MSFontService,sans-serif" font-weight="400" font-size="41" transform="matrix(1 0 0 1 1433.66 686)">Unique</text></g><g clip-path="url(#clip14)"><text fill="#FFFFFF" font-family="Calibri,Calibri_MSFontService,sans-serif" font-weight="400" font-size="41" transform="matrix(1 0 0 1 1452.61 737)">2973</text></g><g clip-path="url(#clip15)"><text fill="#FFFFFF" font-family="Calibri,Calibri_MSFontService,sans-serif" font-weight="400" font-size="41" transform="matrix(1 0 0 1 1458.75 787)">59%</text></g><g clip-path="url(#clip16)"><text fill="#FFFFFF" font-family="Calibri,Calibri_MSFontService,sans-serif" font-weight="400" font-size="41" transform="matrix(1 0 0 1 1051.38 575)">Repeated</text></g><g clip-path="url(#clip17)"><text fill="#FFFFFF" font-family="Calibri,Calibri_MSFontService,sans-serif" font-weight="400" font-size="41" transform="matrix(1 0 0 1 1090.04 626)">2027</text></g><g clip-path="url(#clip18)"><text fill="#FFFFFF" font-family="Calibri,Calibri_MSFontService,sans-serif" font-weight="400" font-size="41" transform="matrix(1 0 0 1 1096.18 676)">41%</text></g><g clip-path="url(#clip19)"><text fill="#F2F2F2" font-family="Calibri,Calibri_MSFontService,sans-serif" font-weight="700" font-size="73" transform="matrix(1 0 0 1 1030.23 211)">Text Uniqueness</text></g></g></svg>