<svg width="1386" height="957" xmlns="http://www.w3.org/2000/svg" xmlns:xlink="http://www.w3.org/1999/xlink" xml:space="preserve" overflow="hidden"><defs><filter id="fx0" x="-10%" y="-10%" width="120%" height="120%" filterUnits="userSpaceOnUse" primitiveUnits="userSpaceOnUse"><feComponentTransfer color-interpolation-filters="sRGB"><feFuncR type="discrete" tableValues="0 0"/><feFuncG type="discrete" tableValues="0 0"/><feFuncB type="discrete" tableValues="0 0"/><feFuncA type="linear" slope="0.631373" intercept="0"/></feComponentTransfer><feGaussianBlur stdDeviation="6.875 6.875"/></filter><filter id="fx1" x="-10%" y="-10%" width="120%" height="120%" filterUnits="userSpaceOnUse" primitiveUnits="userSpaceOnUse"><feComponentTransfer color-interpolation-filters="sRGB"><feFuncR type="discrete" tableValues="0 0"/><feFuncG type="discrete" tableValues="0 0"/><feFuncB type="discrete" tableValues="0 0"/><feFuncA type="linear" slope="0.631373" intercept="0"/></feComponentTransfer><feGaussianBlur stdDeviation="6.875 6.875"/></filter><filter id="fx2" x="-10%" y="-10%" width="120%" height="120%" filterUnits="userSpaceOnUse" primitiveUnits="userSpaceOnUse"><feComponentTransfer color-interpolation-filters="sRGB"><feFuncR type="discrete" tableValues="0 0"/><feFuncG type="discrete" tableValues="0 0"/><feFuncB type="discrete" tableValues="0 0"/><feFuncA type="linear" slope="0.631373" intercept="0"/></feComponentTransfer><feGaussianBlur stdDeviation="6.875 6.875"/></filter><filter id="fx3" x="-10%" y="-10%" width="120%" height="120%" filterUnits="userSpaceOnUse" primitiveUnits="userSpaceOnUse"><feComponentTransfer color-interpolation-filters="sRGB"><feFuncR type="discrete" tableValues="0 0"/><feFuncG type="discrete" tableValues="0 0"/><feFuncB type="discrete" tableValues="0 0"/><feFuncA type="linear" slope="0.631373" intercept="0"/></feComponentTransfer><feGaussianBlur stdDeviation="6.875 6.875"/></filter><filter id="fx4" x="-10%" y="-10%" width="120%" height="120%" filterUnits="userSpaceOnUse" primitiveUnits="userSpaceOnUse"><feComponentTransfer color-interpolation-filters="sRGB"><feFuncR type="discrete" tableValues="0 0"/><feFuncG type="discrete" tableValues="0 0"/><feFuncB type="discrete" tableValues="0 0"/><feFuncA type="linear" slope="0.631373" intercept="0"/></feComponentTransfer><feGaussianBlur stdDeviation="6.875 6.875"/></filter><filter id="fx5" x="-10%" y="-10%" width="120%" height="120%" filterUnits="userSpaceOnUse" primitiveUnits="userSpaceOnUse"><feComponentTransfer color-interpolation-filters="sRGB"><feFuncR type="discrete" tableValues="0 0"/><feFuncG type="discrete" tableValues="0 0"/><feFuncB type="discrete" tableValues="0 0"/><feFuncA type="linear" slope="0.631373" intercept="0"/></feComponentTransfer><feGaussianBlur stdDeviation="6.875 6.875"/></filter><filter id="fx6" x="-10%" y="-10%" width="120%" height="120%" filterUnits="userSpaceOnUse" primitiveUnits="userSpaceOnUse"><feComponentTransfer color-interpolation-filters="sRGB"><feFuncR type="discrete" tableValues="0 0"/><feFuncG type="discrete" tableValues="0 0"/><feFuncB type="discrete" tableValues="0 0"/><feFuncA type="linear" slope="0.631373" intercept="0"/></feComponentTransfer><feGaussianBlur stdDeviation="6.875 6.875"/></filter><clipPath id="clip7"><rect x="3967" y="1256" width="1386" height="957"/></clipPath><clipPath id="clip8"><rect x="3966" y="1256" width="1386" height="957"/></clipPath><clipPath id="clip9"><rect x="4085" y="1426" width="1179" height="684"/></clipPath><clipPath id="clip10"><rect x="-3" y="-3" width="431" height="321"/></clipPath><clipPath id="clip11"><rect x="0" y="0" width="426" height="316"/></clipPath><clipPath id="clip12"><rect x="4085" y="1426" width="1179" height="684"/></clipPath><clipPath id="clip13"><rect x="-3" y="-3" width="461" height="321"/></clipPath><clipPath id="clip14"><rect x="0" y="0" width="455" height="316"/></clipPath><clipPath id="clip15"><rect x="4085" y="1426" width="1179" height="684"/></clipPath><clipPath id="clip16"><rect x="-3" y="-3" width="273" height="321"/></clipPath><clipPath id="clip17"><rect x="0" y="0" width="267" height="316"/></clipPath><clipPath id="clip18"><rect x="4085" y="1426" width="1179" height="684"/></clipPath><clipPath id="clip19"><rect x="-3" y="-3" width="148" height="321"/></clipPath><clipPath id="clip20"><rect x="0" y="0" width="142" height="316"/></clipPath><clipPath id="clip21"><rect x="4085" y="1426" width="1179" height="684"/></clipPath><clipPath id="clip22"><rect x="-3" y="-3" width="100" height="321"/></clipPath><clipPath id="clip23"><rect x="0" y="0" width="92" height="316"/></clipPath><clipPath id="clip24"><rect x="4085" y="1426" width="1179" height="684"/></clipPath><clipPath id="clip25"><rect x="-3" y="-3" width="63" height="321"/></clipPath><clipPath id="clip26"><rect x="0" y="0" width="55" height="316"/></clipPath><clipPath id="clip27"><rect x="4085" y="1426" width="1179" height="684"/></clipPath><clipPath id="clip28"><rect x="-3" y="-3" width="52" height="321"/></clipPath><clipPath id="clip29"><rect x="0" y="0" width="46" height="316"/></clipPath><clipPath id="clip30"><rect x="4085" y="1426" width="1179" height="684"/></clipPath><linearGradient x1="4276.5" y1="1631" x2="4276.5" y2="1903" gradientUnits="userSpaceOnUse" spreadMethod="reflect" id="fill31"><stop offset="0" stop-color="#4F5F89"/><stop offset="0.5" stop-color="#22427D"/><stop offset="1" stop-color="#193971"/></linearGradient><clipPath id="clip32"><rect x="4085" y="1426" width="1179" height="684"/></clipPath><clipPath id="clip33"><rect x="4085" y="1426" width="1179" height="684"/></clipPath><linearGradient x1="4990.5" y1="1631" x2="4990.5" y2="1903" gradientUnits="userSpaceOnUse" spreadMethod="reflect" id="fill34"><stop offset="0" stop-color="#F18C55"/><stop offset="0.5" stop-color="#F67B28"/><stop offset="1" stop-color="#E56B17"/></linearGradient><clipPath id="clip35"><rect x="4085" y="1426" width="1179" height="684"/></clipPath><linearGradient x1="5151" y1="1631" x2="5151" y2="1903" gradientUnits="userSpaceOnUse" spreadMethod="reflect" id="fill36"><stop offset="0" stop-color="#AFAFAF"/><stop offset="0.5" stop-color="#A5A5A5"/><stop offset="1" stop-color="#929292"/></linearGradient><clipPath id="clip37"><rect x="4085" y="1426" width="1179" height="684"/></clipPath><linearGradient x1="5224" y1="1631" x2="5224" y2="1903" gradientUnits="userSpaceOnUse" spreadMethod="reflect" id="fill38"><stop offset="0" stop-color="#FFC746"/><stop offset="0.5" stop-color="#FFC600"/><stop offset="1" stop-color="#E5B600"/></linearGradient><clipPath id="clip39"><rect x="4085" y="1426" width="1179" height="684"/></clipPath><linearGradient x1="5253.5" y1="1631" x2="5253.5" y2="1903" gradientUnits="userSpaceOnUse" spreadMethod="reflect" id="fill40"><stop offset="0" stop-color="#71A6DB"/><stop offset="0.5" stop-color="#559BDB"/><stop offset="1" stop-color="#438AC9"/></linearGradient><clipPath id="clip41"><rect x="4085" y="1426" width="1179" height="684"/></clipPath><linearGradient x1="5260" y1="1631" x2="5260" y2="1903" gradientUnits="userSpaceOnUse" spreadMethod="reflect" id="fill42"><stop offset="0" stop-color="#81B861"/><stop offset="0.5" stop-color="#6FB242"/><stop offset="1" stop-color="#61A235"/></linearGradient><clipPath id="clip43"><rect x="3966" y="1256" width="1386" height="957"/></clipPath><clipPath id="clip44"><rect x="3966" y="1256" width="1386" height="957"/></clipPath><clipPath id="clip45"><rect x="3966" y="1256" width="1386" height="957"/></clipPath><clipPath id="clip46"><rect x="3966" y="1256" width="1386" height="957"/></clipPath><clipPath id="clip47"><rect x="3966" y="1256" width="1386" height="957"/></clipPath><clipPath id="clip48"><rect x="3966" y="1256" width="1386" height="957"/></clipPath><clipPath id="clip49"><rect x="3966" y="1256" width="1386" height="957"/></clipPath><clipPath id="clip50"><rect x="3966" y="1256" width="1386" height="957"/></clipPath><clipPath id="clip51"><rect x="3966" y="1256" width="1386" height="957"/></clipPath><clipPath id="clip52"><rect x="3966" y="1256" width="1386" height="957"/></clipPath><clipPath id="clip53"><rect x="3966" y="1256" width="1386" height="957"/></clipPath><clipPath id="clip54"><rect x="3966" y="1256" width="1386" height="957"/></clipPath><clipPath id="clip55"><rect x="3966" y="1256" width="1386" height="957"/></clipPath><clipPath id="clip56"><rect x="3966" y="1256" width="1386" height="957"/></clipPath><clipPath id="clip57"><rect x="3966" y="1256" width="1386" height="957"/></clipPath><clipPath id="clip58"><rect x="3966" y="1256" width="1386" height="957"/></clipPath><clipPath id="clip59"><rect x="3966" y="1256" width="1386" height="957"/></clipPath></defs><g clip-path="url(#clip7)" transform="translate(-3967 -1256)"><rect x="3967" y="1256" width="1386" height="957" fill="#404040"/><g clip-path="url(#clip8)"><path d="M4320.64 1426.5 4320.64 2107.5M4555.65 1426.5 4555.65 2107.5M4790.66 1426.5 4790.66 2107.5M5025.67 1426.5 5025.67 2107.5M5260.5 1426.5 5260.5 2107.5" stroke="#F2F2F2" stroke-width="3.4375" stroke-linejoin="round" stroke-miterlimit="10" stroke-opacity="0.101961" fill="none"/></g><g clip-path="url(#clip9)"><g clip-path="url(#clip10)" filter="url(#fx0)" transform="translate(4064 1616)"><g clip-path="url(#clip11)"><rect x="21.0002" y="21.8751" width="383" height="272" fill="#FF0000"/></g></g></g><g clip-path="url(#clip12)"><g clip-path="url(#clip13)" filter="url(#fx1)" transform="translate(4446 1616)"><g clip-path="url(#clip14)"><rect x="22" y="21.8751" width="411" height="272" fill="#548235"/></g></g></g><g clip-path="url(#clip15)"><g clip-path="url(#clip16)" filter="url(#fx2)" transform="translate(4857 1616)"><g clip-path="url(#clip17)"><rect x="22" y="21.8751" width="223" height="272" fill="#FF0000"/></g></g></g><g clip-path="url(#clip18)"><g clip-path="url(#clip19)" filter="url(#fx3)" transform="translate(5080 1616)"><g clip-path="url(#clip20)"><rect x="22" y="21.8751" width="98" height="272" fill="#FF0000"/></g></g></g><g clip-path="url(#clip21)"><g clip-path="url(#clip22)" filter="url(#fx4)" transform="translate(5178 1616)"><g clip-path="url(#clip23)"><rect x="22" y="21.8751" width="48.0001" height="272" fill="#FF0000"/></g></g></g><g clip-path="url(#clip24)"><g clip-path="url(#clip25)" filter="url(#fx5)" transform="translate(5226 1616)"><g clip-path="url(#clip26)"><rect x="22" y="21.8751" width="11" height="272" fill="#FF0000"/></g></g></g><g clip-path="url(#clip27)"><g clip-path="url(#clip28)" filter="url(#fx6)" transform="translate(5237 1616)"><g clip-path="url(#clip29)"><rect x="22" y="21.8751" width="2.00006" height="272" fill="#FF0000"/></g></g></g><g clip-path="url(#clip30)"><rect x="4085" y="1631" width="383" height="272" fill="url(#fill31)"/></g><g clip-path="url(#clip32)"><rect x="4468" y="1631" width="411" height="272" fill="#548235"/></g><g clip-path="url(#clip33)"><rect x="4879" y="1631" width="223" height="272" fill="url(#fill34)"/></g><g clip-path="url(#clip35)"><rect x="5102" y="1631" width="98" height="272" fill="url(#fill36)"/></g><g clip-path="url(#clip37)"><rect x="5200" y="1631" width="48" height="272" fill="url(#fill38)"/></g><g clip-path="url(#clip39)"><rect x="5248" y="1631" width="11" height="272" fill="url(#fill40)"/></g><g clip-path="url(#clip41)"><rect x="5259" y="1631" width="2" height="272" fill="url(#fill42)"/></g><g clip-path="url(#clip43)"><path d="M0 0 0.000360892 681" stroke="#F2F2F2" stroke-width="4.58333" stroke-linejoin="round" stroke-miterlimit="10" stroke-opacity="0.541176" fill="none" fill-rule="evenodd" transform="matrix(1 0 0 -1 4085.5 2107.5)"/></g><g clip-path="url(#clip44)"><text fill="#D9D9D9" font-family="Calibri,Calibri_MSFontService,sans-serif" font-weight="400" font-size="41" transform="matrix(1 0 0 1 4266.42 1755)">1</text></g><g clip-path="url(#clip45)"><text fill="#D9D9D9" font-family="Calibri,Calibri_MSFontService,sans-serif" font-weight="400" font-size="41" transform="matrix(1 0 0 1 4222.55 1806)">(1630)</text></g><g clip-path="url(#clip46)"><text fill="#D9D9D9" font-family="Calibri,Calibri_MSFontService,sans-serif" font-weight="400" font-size="41" transform="matrix(1 0 0 1 4663.22 1755)">2</text></g><g clip-path="url(#clip47)"><text fill="#D9D9D9" font-family="Calibri,Calibri_MSFontService,sans-serif" font-weight="400" font-size="41" transform="matrix(1 0 0 1 4619.36 1806)">(1746)</text></g><g clip-path="url(#clip48)"><text fill="#D9D9D9" font-family="Calibri,Calibri_MSFontService,sans-serif" font-weight="400" font-size="41" transform="matrix(1 0 0 1 4979.87 1755)">3</text></g><g clip-path="url(#clip49)"><text fill="#D9D9D9" font-family="Calibri,Calibri_MSFontService,sans-serif" font-weight="400" font-size="41" transform="matrix(1 0 0 1 4946.46 1806)">(948)</text></g><g clip-path="url(#clip50)"><text fill="#D9D9D9" font-family="Calibri,Calibri_MSFontService,sans-serif" font-weight="400" font-size="41" transform="matrix(1 0 0 1 5140.19 1755)">4</text></g><g clip-path="url(#clip51)"><text fill="#D9D9D9" font-family="Calibri,Calibri_MSFontService,sans-serif" font-weight="400" font-size="41" transform="matrix(1 0 0 1 5106.78 1806)">(416)</text></g><g clip-path="url(#clip52)"><text fill="#D9D9D9" font-family="Calibri,Calibri_MSFontService,sans-serif" font-weight="400" font-size="41" transform="matrix(1 0 0 1 4074.83 2172)">0</text></g><g clip-path="url(#clip53)"><text fill="#D9D9D9" font-family="Calibri,Calibri_MSFontService,sans-serif" font-weight="400" font-size="41" transform="matrix(1 0 0 1 4278.56 2172)">1000</text></g><g clip-path="url(#clip54)"><text fill="#D9D9D9" font-family="Calibri,Calibri_MSFontService,sans-serif" font-weight="400" font-size="41" transform="matrix(1 0 0 1 4513.63 2172)">2000</text></g><g clip-path="url(#clip55)"><text fill="#D9D9D9" font-family="Calibri,Calibri_MSFontService,sans-serif" font-weight="400" font-size="41" transform="matrix(1 0 0 1 4748.71 2172)">3000</text></g><g clip-path="url(#clip56)"><text fill="#D9D9D9" font-family="Calibri,Calibri_MSFontService,sans-serif" font-weight="400" font-size="41" transform="matrix(1 0 0 1 4983.78 2172)">4000</text></g><g clip-path="url(#clip57)"><text fill="#D9D9D9" font-family="Calibri,Calibri_MSFontService,sans-serif" font-weight="400" font-size="41" transform="matrix(1 0 0 1 5218.86 2172)">5000</text></g><g clip-path="url(#clip58)"><text fill="#D9D9D9" font-family="Calibri,Calibri_MSFontService,sans-serif" font-weight="400" font-size="41" transform="matrix(6.12323e-17 -1 1 6.12323e-17 4035.67 1861)">Encounters</text></g><g clip-path="url(#clip59)"><text fill="#F2F2F2" font-family="Calibri,Calibri_MSFontService,sans-serif" font-weight="700" font-size="64" transform="matrix(1 0 0 1 4168.54 1352)">Racecount by Quote Encounters</text></g></g></svg>