<svg width="1194" height="1424" xmlns="http://www.w3.org/2000/svg" xmlns:xlink="http://www.w3.org/1999/xlink" xml:space="preserve" overflow="hidden"><defs><clipPath id="clip0"><rect x="1597" y="2814" width="1194" height="1424"/></clipPath><clipPath id="clip1"><rect x="1596" y="2813" width="1195" height="1425"/></clipPath><clipPath id="clip2"><rect x="1647" y="2994" width="1097" height="1197"/></clipPath><clipPath id="clip3"><rect x="1647" y="2994" width="1097" height="1197"/></clipPath><clipPath id="clip4"><rect x="1596" y="2813" width="1195" height="1425"/></clipPath><clipPath id="clip5"><rect x="1596" y="2813" width="1195" height="1425"/></clipPath><clipPath id="clip6"><rect x="1596" y="2813" width="1195" height="1425"/></clipPath><clipPath id="clip7"><rect x="1596" y="2813" width="1195" height="1425"/></clipPath><clipPath id="clip8"><rect x="1596" y="2813" width="1195" height="1425"/></clipPath><clipPath id="clip9"><rect x="-515" y="2231" width="5418" height="714"/></clipPath><clipPath id="clip10"><rect x="1596" y="2813" width="1196" height="1426"/></clipPath><clipPath id="clip11"><rect x="2360" y="4008" width="201" height="199"/></clipPath><clipPath id="clip12"><rect x="2360" y="4008" width="201" height="199"/></clipPath><clipPath id="clip13"><rect x="2360" y="4008" width="201" height="199"/></clipPath><clipPath id="clip14"><rect x="1596" y="2813" width="1196" height="1426"/></clipPath><clipPath id="clip15"><rect x="1824" y="4010" width="202" height="199"/></clipPath><clipPath id="clip16"><rect x="1824" y="4010" width="202" height="199"/></clipPath><clipPath id="clip17"><rect x="1824" y="4010" width="202" height="199"/></clipPath></defs><g clip-path="url(#clip0)" transform="translate(-1597 -2814)"><rect x="1597" y="2814" width="1194" height="1424" fill="#404040"/><g clip-path="url(#clip1)"><path d="M1647.5 4188.5 2740.5 4188.5M1647.5 4017.63 2740.5 4017.63M1647.5 3846.63 2740.5 3846.63M1647.5 3676.62 2740.5 3676.62M1647.5 3506.62 2740.5 3506.62M1647.5 3335.61 2740.5 3335.61M1647.5 3165.6 2740.5 3165.6M1647.5 2994.5 2740.5 2994.5" stroke="#F2F2F2" stroke-width="3.4375" stroke-linejoin="round" stroke-miterlimit="10" stroke-opacity="0.101961" fill="none"/></g><g clip-path="url(#clip2)"><rect x="1826" y="3167" width="189" height="1021" fill="#2D9DFF"/></g><g clip-path="url(#clip3)"><rect x="2373" y="3278" width="189" height="910" fill="#2D9DFF"/></g><g clip-path="url(#clip4)"><text fill="#FFFFFF" font-family="Calibri,Calibri_MSFontService,sans-serif" font-weight="400" font-size="55" transform="matrix(1 0 0 1 1873.02 3064)">53%</text></g><g clip-path="url(#clip5)"><text fill="#FFFFFF" font-family="Calibri,Calibri_MSFontService,sans-serif" font-weight="400" font-size="55" transform="matrix(1 0 0 1 1830.1 3132)">599,205</text></g><g clip-path="url(#clip6)"><text fill="#FFFFFF" font-family="Calibri,Calibri_MSFontService,sans-serif" font-weight="400" font-size="55" transform="matrix(1 0 0 1 2419.87 3175)">47%</text></g><g clip-path="url(#clip7)"><text fill="#FFFFFF" font-family="Calibri,Calibri_MSFontService,sans-serif" font-weight="400" font-size="55" transform="matrix(1 0 0 1 2376.95 3243)">533,700</text></g><g clip-path="url(#clip8)"><g clip-path="url(#clip9)"><text fill="#F2F2F2" font-family="Calibri,Calibri_MSFontService,sans-serif" font-weight="700" font-size="73" transform="matrix(1 0 0 1 1807.12 2918)">Character Handedness</text></g></g><g clip-path="url(#clip10)"><g clip-path="url(#clip11)"><g clip-path="url(#clip12)"><g clip-path="url(#clip13)"><path d="M50.5312 47.4375C55.6875 47.4375 59.8125 51.5625 59.8125 56.7188L59.8125 96.9375C59.8125 97.9688 60.8438 99 61.875 99 62.9062 99 63.9375 97.9688 63.9375 96.9375L63.9375 36.0938C63.9375 30.9375 68.0625 26.8125 73.2188 26.8125 78.375 26.8125 82.5 30.9375 82.5 36.0938L82.5 96.9375C82.5 97.9688 83.5312 99 84.5625 99 85.5938 99 86.625 97.9688 86.625 96.9375L86.625 23.5125 86.625 23.5125C86.625 18.5625 90.75 14.4375 95.9062 14.4375 101.062 14.4375 105.188 18.5625 105.188 23.5125L105.188 23.5125 105.188 96.9375C105.188 97.9688 106.219 99 107.25 99 108.281 99 109.312 97.9688 109.312 96.9375L109.312 36.0938C109.312 30.9375 113.438 26.8125 118.594 26.8125 123.75 26.8125 127.875 30.9375 127.875 36.0938L127.875 96.9375 127.875 120.656 136.331 82.5C137.569 76.9313 143.137 73.425 148.706 74.6625 154.275 75.9 157.781 81.4688 156.544 87.0375L144.169 142.725C143.55 144.787 142.312 146.85 140.25 148.5L117.562 166.031 117.562 181.5 57.75 181.5 57.75 171.188C57.75 156.544 41.25 155.512 41.25 127.875 41.25 126.844 41.25 56.7188 41.25 56.7188 41.25 51.5625 45.375 47.4375 50.5312 47.4375Z" fill="#404040" transform="matrix(-1.0101 0 0 1 2561 4008)"/></g></g></g></g><g clip-path="url(#clip14)"><g clip-path="url(#clip15)"><g clip-path="url(#clip16)"><g clip-path="url(#clip17)"><path d="M50.5312 47.4375C55.6875 47.4375 59.8125 51.5625 59.8125 56.7188L59.8125 96.9375C59.8125 97.9688 60.8438 99 61.875 99 62.9062 99 63.9375 97.9688 63.9375 96.9375L63.9375 36.0938C63.9375 30.9375 68.0625 26.8125 73.2188 26.8125 78.375 26.8125 82.5 30.9375 82.5 36.0938L82.5 96.9375C82.5 97.9688 83.5312 99 84.5625 99 85.5938 99 86.625 97.9688 86.625 96.9375L86.625 23.5125 86.625 23.5125C86.625 18.5625 90.75 14.4375 95.9062 14.4375 101.062 14.4375 105.188 18.5625 105.188 23.5125L105.188 23.5125 105.188 96.9375C105.188 97.9688 106.219 99 107.25 99 108.281 99 109.312 97.9688 109.312 96.9375L109.312 36.0938C109.312 30.9375 113.438 26.8125 118.594 26.8125 123.75 26.8125 127.875 30.9375 127.875 36.0938L127.875 96.9375 127.875 120.656 136.331 82.5C137.569 76.9313 143.137 73.425 148.706 74.6625 154.275 75.9 157.781 81.4688 156.544 87.0375L144.169 142.725C143.55 144.787 142.312 146.85 140.25 148.5L117.562 166.031 117.562 181.5 57.75 181.5 57.75 171.188C57.75 156.544 41.25 155.512 41.25 127.875 41.25 126.844 41.25 56.7188 41.25 56.7188 41.25 51.5625 45.375 47.4375 50.5312 47.4375Z" fill="#404040" transform="matrix(1.0101 0 0 1 1825 4011)"/></g></g></g></g></g></svg>