<svg width="1650" height="990" xmlns="http://www.w3.org/2000/svg" xmlns:xlink="http://www.w3.org/1999/xlink" xml:space="preserve" overflow="hidden"><defs><filter id="fx0" x="-10%" y="-10%" width="120%" height="120%" filterUnits="userSpaceOnUse" primitiveUnits="userSpaceOnUse"><feComponentTransfer color-interpolation-filters="sRGB"><feFuncR type="discrete" tableValues="0 0"/><feFuncG type="discrete" tableValues="0 0"/><feFuncB type="discrete" tableValues="0 0"/><feFuncA type="linear" slope="0.631373" intercept="0"/></feComponentTransfer><feGaussianBlur stdDeviation="6.875 6.875"/></filter><clipPath id="clip1"><rect x="837" y="1005" width="1650" height="990"/></clipPath><clipPath id="clip2"><rect x="837" y="1005" width="1650" height="990"/></clipPath><clipPath id="clip3"><rect x="1014" y="1187" width="1426" height="705"/></clipPath><clipPath id="clip4"><rect x="-3" y="-3" width="1393" height="630"/></clipPath><clipPath id="clip5"><rect x="0" y="0" width="1387" height="618"/></clipPath><clipPath id="clip6"><rect x="1014" y="1187" width="1426" height="705"/></clipPath><clipPath id="clip7"><rect x="837" y="1005" width="1650" height="990"/></clipPath><clipPath id="clip8"><rect x="837" y="1005" width="1650" height="990"/></clipPath><clipPath id="clip9"><rect x="837" y="1005" width="1650" height="990"/></clipPath><clipPath id="clip10"><rect x="837" y="1005" width="1650" height="990"/></clipPath><clipPath id="clip11"><rect x="837" y="1005" width="1650" height="990"/></clipPath><clipPath id="clip12"><rect x="837" y="1005" width="1650" height="990"/></clipPath><clipPath id="clip13"><rect x="837" y="1005" width="1650" height="990"/></clipPath><clipPath id="clip14"><rect x="837" y="1005" width="1650" height="990"/></clipPath><clipPath id="clip15"><rect x="837" y="1005" width="1650" height="990"/></clipPath><clipPath id="clip16"><rect x="837" y="1005" width="1650" height="990"/></clipPath><clipPath id="clip17"><rect x="837" y="1005" width="1650" height="990"/></clipPath><clipPath id="clip18"><rect x="837" y="1005" width="1650" height="990"/></clipPath><clipPath id="clip19"><rect x="837" y="1005" width="1650" height="990"/></clipPath><clipPath id="clip20"><rect x="837" y="1005" width="1650" height="990"/></clipPath><clipPath id="clip21"><rect x="837" y="1005" width="1650" height="990"/></clipPath><clipPath id="clip22"><rect x="837" y="1005" width="1650" height="990"/></clipPath><clipPath id="clip23"><rect x="837" y="1005" width="1650" height="990"/></clipPath></defs><g clip-path="url(#clip1)" transform="translate(-837 -1005)"><rect x="837" y="1005" width="1650" height="990" fill="#404040"/><g clip-path="url(#clip2)"><path d="M1014.5 1772.56 2436.5 1772.56M1014.5 1655.55 2436.5 1655.55M1014.5 1538.55 2436.5 1538.55M1014.5 1421.55 2436.5 1421.55M1014.5 1304.54 2436.5 1304.54M1014.5 1187.5 2436.5 1187.5" stroke="#F2F2F2" stroke-width="3.4375" stroke-linejoin="round" stroke-miterlimit="10" stroke-opacity="0.101961" fill="none"/></g><g clip-path="url(#clip3)"><g clip-path="url(#clip4)" filter="url(#fx0)" transform="translate(1032 1295)"><g clip-path="url(#clip5)"><path d="M22.0346 401.93 101.037 401.93 101.037 600.875 22.0346 600.875ZM180.04 381.93 259.042 381.93 259.042 600.875 180.04 600.875ZM338.045 134.922 417.048 134.922 417.048 600.875 338.045 600.875ZM496.05 85.9201 575.053 85.9201 575.053 600.875 496.05 600.875ZM812.06 21.918 891.063 21.918 891.063 600.875 812.06 600.875ZM970.066 360.929 1049.07 360.929 1049.07 600.875 970.066 600.875ZM1128.07 241.925 1207.07 241.925 1207.07 600.875 1128.07 600.875ZM1286.08 533.935 1365.08 533.935 1365.08 600.875 1286.08 600.875Z" fill="#2D9DFF"/></g></g></g><g clip-path="url(#clip6)"><path d="M1054.03 1690.06 1133.04 1690.06 1133.04 1889 1054.03 1889ZM1212.04 1670.05 1291.04 1670.05 1291.04 1889 1212.04 1889ZM1370.04 1423.05 1449.05 1423.05 1449.05 1889 1370.04 1889ZM1528.05 1374.05 1607.05 1374.05 1607.05 1889 1528.05 1889ZM1844.06 1310.04 1923.06 1310.04 1923.06 1889 1844.06 1889ZM2002.07 1649.05 2081.07 1649.05 2081.07 1889 2002.07 1889ZM2160.07 1530.05 2239.07 1530.05 2239.07 1889 2160.07 1889ZM2318.08 1822.06 2397.08 1822.06 2397.08 1889 2318.08 1889Z" fill="#2D9DFF"/></g><g clip-path="url(#clip7)"><path d="M1014.5 1889.5 2436.5 1889.5" stroke="#F2F2F2" stroke-width="4.58333" stroke-linejoin="round" stroke-miterlimit="10" stroke-opacity="0.541176" fill="none" fill-rule="evenodd"/></g><g clip-path="url(#clip8)"><text fill="#FFFFFF" font-family="Calibri,Calibri_MSFontService,sans-serif" font-weight="700" font-size="46" transform="matrix(1 0 0 1 913.298 1903)">0 K</text></g><g clip-path="url(#clip9)"><text fill="#FFFFFF" font-family="Calibri,Calibri_MSFontService,sans-serif" font-weight="700" font-size="46" transform="matrix(1 0 0 1 890.06 1786)">50 K</text></g><g clip-path="url(#clip10)"><text fill="#FFFFFF" font-family="Calibri,Calibri_MSFontService,sans-serif" font-weight="700" font-size="46" transform="matrix(1 0 0 1 866.823 1669)">100 K</text></g><g clip-path="url(#clip11)"><text fill="#FFFFFF" font-family="Calibri,Calibri_MSFontService,sans-serif" font-weight="700" font-size="46" transform="matrix(1 0 0 1 866.823 1552)">150 K</text></g><g clip-path="url(#clip12)"><text fill="#FFFFFF" font-family="Calibri,Calibri_MSFontService,sans-serif" font-weight="700" font-size="46" transform="matrix(1 0 0 1 866.823 1435)">200 K</text></g><g clip-path="url(#clip13)"><text fill="#FFFFFF" font-family="Calibri,Calibri_MSFontService,sans-serif" font-weight="700" font-size="46" transform="matrix(1 0 0 1 866.823 1318)">250 K</text></g><g clip-path="url(#clip14)"><text fill="#FFFFFF" font-family="Calibri,Calibri_MSFontService,sans-serif" font-weight="700" font-size="46" transform="matrix(1 0 0 1 866.823 1201)">300 K</text></g><g clip-path="url(#clip15)"><text fill="#D9D9D9" font-family="Calibri,Calibri_MSFontService,sans-serif" font-weight="400" font-size="41" transform="matrix(1 0 0 1 1033.38 1954)">L-pinky</text></g><g clip-path="url(#clip16)"><text fill="#D9D9D9" font-family="Calibri,Calibri_MSFontService,sans-serif" font-weight="400" font-size="41" transform="matrix(1 0 0 1 1204.04 1954)">L-ring</text></g><g clip-path="url(#clip17)"><text fill="#D9D9D9" font-family="Calibri,Calibri_MSFontService,sans-serif" font-weight="400" font-size="41" transform="matrix(1 0 0 1 1336.64 1954)">L-middle</text></g><g clip-path="url(#clip18)"><text fill="#D9D9D9" font-family="Calibri,Calibri_MSFontService,sans-serif" font-weight="400" font-size="41" transform="matrix(1 0 0 1 1506.93 1954)">L-index</text></g><g clip-path="url(#clip19)"><text fill="#D9D9D9" font-family="Calibri,Calibri_MSFontService,sans-serif" font-weight="400" font-size="41" transform="matrix(1 0 0 1 1820.44 1954)">R-index</text></g><g clip-path="url(#clip20)"><text fill="#D9D9D9" font-family="Calibri,Calibri_MSFontService,sans-serif" font-weight="400" font-size="41" transform="matrix(1 0 0 1 1966.18 1954)">R-middle</text></g><g clip-path="url(#clip21)"><text fill="#D9D9D9" font-family="Calibri,Calibri_MSFontService,sans-serif" font-weight="400" font-size="41" transform="matrix(1 0 0 1 2149.61 1954)">R-ring</text></g><g clip-path="url(#clip22)"><text fill="#D9D9D9" font-family="Calibri,Calibri_MSFontService,sans-serif" font-weight="400" font-size="41" transform="matrix(1 0 0 1 2294.98 1954)">R-pinky</text></g><g clip-path="url(#clip23)"><text fill="#F2F2F2" font-family="Calibri,Calibri_MSFontService,sans-serif" font-weight="700" font-size="73" transform="matrix(1 0 0 1 1211.57 1110)">Character Count by Finger</text></g></g></svg>