<svg width="2375" height="1425" xmlns="http://www.w3.org/2000/svg" xmlns:xlink="http://www.w3.org/1999/xlink" xml:space="preserve" overflow="hidden"><defs><filter id="fx0" x="-10%" y="-10%" width="120%" height="120%" filterUnits="userSpaceOnUse" primitiveUnits="userSpaceOnUse"><feComponentTransfer color-interpolation-filters="sRGB"><feFuncR type="discrete" tableValues="0 0"/><feFuncG type="discrete" tableValues="0 0"/><feFuncB type="discrete" tableValues="0 0"/><feFuncA type="linear" slope="0.631373" intercept="0"/></feComponentTransfer><feGaussianBlur stdDeviation="6.875 6.875"/></filter><filter id="fx1" x="-10%" y="-10%" width="120%" height="120%" filterUnits="userSpaceOnUse" primitiveUnits="userSpaceOnUse"><feComponentTransfer color-interpolation-filters="sRGB"><feFuncR type="discrete" tableValues="0 0"/><feFuncG type="discrete" tableValues="0 0"/><feFuncB type="discrete" tableValues="0 0"/><feFuncA type="linear" slope="1" intercept="0"/></feComponentTransfer><feGaussianBlur stdDeviation="1.78114 1.78114"/></filter><filter id="fx2" x="-10%" y="-10%" width="120%" height="120%" filterUnits="userSpaceOnUse" primitiveUnits="userSpaceOnUse"><feComponentTransfer color-interpolation-filters="sRGB"><feFuncR type="discrete" tableValues="0 0"/><feFuncG type="discrete" tableValues="0 0"/><feFuncB type="discrete" tableValues="0 0"/><feFuncA type="linear" slope="1" intercept="0"/></feComponentTransfer><feGaussianBlur stdDeviation="1.78114 1.78114"/></filter><filter id="fx3" x="-10%" y="-10%" width="120%" height="120%" filterUnits="userSpaceOnUse" primitiveUnits="userSpaceOnUse"><feComponentTransfer color-interpolation-filters="sRGB"><feFuncR type="discrete" tableValues="0 0"/><feFuncG type="discrete" tableValues="0 0"/><feFuncB type="discrete" tableValues="0 0"/><feFuncA type="linear" slope="1" intercept="0"/></feComponentTransfer><feGaussianBlur stdDeviation="1.78114 1.78114"/></filter><filter id="fx4" x="-10%" y="-10%" width="120%" height="120%" filterUnits="userSpaceOnUse" primitiveUnits="userSpaceOnUse"><feComponentTransfer color-interpolation-filters="sRGB"><feFuncR type="discrete" tableValues="0 0"/><feFuncG type="discrete" tableValues="0 0"/><feFuncB type="discrete" tableValues="0 0"/><feFuncA type="linear" slope="1" intercept="0"/></feComponentTransfer><feGaussianBlur stdDeviation="1.78114 1.78114"/></filter><filter id="fx5" x="-10%" y="-10%" width="120%" height="120%" filterUnits="userSpaceOnUse" primitiveUnits="userSpaceOnUse"><feComponentTransfer color-interpolation-filters="sRGB"><feFuncR type="discrete" tableValues="0 0"/><feFuncG type="discrete" tableValues="0 0"/><feFuncB type="discrete" tableValues="0 0"/><feFuncA type="linear" slope="1" intercept="0"/></feComponentTransfer><feGaussianBlur stdDeviation="1.78114 1.78114"/></filter><filter id="fx6" x="-10%" y="-10%" width="120%" height="120%" filterUnits="userSpaceOnUse" primitiveUnits="userSpaceOnUse"><feComponentTransfer color-interpolation-filters="sRGB"><feFuncR type="discrete" tableValues="0 0"/><feFuncG type="discrete" tableValues="0 0"/><feFuncB type="discrete" tableValues="0 0"/><feFuncA type="linear" slope="1" intercept="0"/></feComponentTransfer><feGaussianBlur stdDeviation="1.78114 1.78114"/></filter><filter id="fx7" x="-10%" y="-10%" width="120%" height="120%" filterUnits="userSpaceOnUse" primitiveUnits="userSpaceOnUse"><feComponentTransfer color-interpolation-filters="sRGB"><feFuncR type="discrete" tableValues="0 0"/><feFuncG type="discrete" tableValues="0 0"/><feFuncB type="discrete" tableValues="0 0"/><feFuncA type="linear" slope="1" intercept="0"/></feComponentTransfer><feGaussianBlur stdDeviation="1.78114 1.78114"/></filter><filter id="fx8" x="-10%" y="-10%" width="120%" height="120%" filterUnits="userSpaceOnUse" primitiveUnits="userSpaceOnUse"><feComponentTransfer color-interpolation-filters="sRGB"><feFuncR type="discrete" tableValues="0 0"/><feFuncG type="discrete" tableValues="0 0"/><feFuncB type="discrete" tableValues="0 0"/><feFuncA type="linear" slope="1" intercept="0"/></feComponentTransfer><feGaussianBlur stdDeviation="1.78114 1.78114"/></filter><filter id="fx9" x="-10%" y="-10%" width="120%" height="120%" filterUnits="userSpaceOnUse" primitiveUnits="userSpaceOnUse"><feComponentTransfer color-interpolation-filters="sRGB"><feFuncR type="discrete" tableValues="0 0"/><feFuncG type="discrete" tableValues="0 0"/><feFuncB type="discrete" tableValues="0 0"/><feFuncA type="linear" slope="1" intercept="0"/></feComponentTransfer><feGaussianBlur stdDeviation="1.78114 1.78114"/></filter><filter id="fx10" x="-10%" y="-10%" width="120%" height="120%" filterUnits="userSpaceOnUse" primitiveUnits="userSpaceOnUse"><feComponentTransfer color-interpolation-filters="sRGB"><feFuncR type="discrete" tableValues="0 0"/><feFuncG type="discrete" tableValues="0 0"/><feFuncB type="discrete" tableValues="0 0"/><feFuncA type="linear" slope="1" intercept="0"/></feComponentTransfer><feGaussianBlur stdDeviation="1.78114 1.78114"/></filter><filter id="fx11" x="-10%" y="-10%" width="120%" height="120%" filterUnits="userSpaceOnUse" primitiveUnits="userSpaceOnUse"><feComponentTransfer color-interpolation-filters="sRGB"><feFuncR type="discrete" tableValues="0 0"/><feFuncG type="discrete" tableValues="0 0"/><feFuncB type="discrete" tableValues="0 0"/><feFuncA type="linear" slope="1" intercept="0"/></feComponentTransfer><feGaussianBlur stdDeviation="1.78114 1.78114"/></filter><filter id="fx12" x="-10%" y="-10%" width="120%" height="120%" filterUnits="userSpaceOnUse" primitiveUnits="userSpaceOnUse"><feComponentTransfer color-interpolation-filters="sRGB"><feFuncR type="discrete" tableValues="0 0"/><feFuncG type="discrete" tableValues="0 0"/><feFuncB type="discrete" tableValues="0 0"/><feFuncA type="linear" slope="1" intercept="0"/></feComponentTransfer><feGaussianBlur stdDeviation="1.78114 1.78114"/></filter><filter id="fx13" x="-10%" y="-10%" width="120%" height="120%" filterUnits="userSpaceOnUse" primitiveUnits="userSpaceOnUse"><feComponentTransfer color-interpolation-filters="sRGB"><feFuncR type="discrete" tableValues="0 0"/><feFuncG type="discrete" tableValues="0 0"/><feFuncB type="discrete" tableValues="0 0"/><feFuncA type="linear" slope="1" intercept="0"/></feComponentTransfer><feGaussianBlur stdDeviation="1.78114 1.78114"/></filter><filter id="fx14" x="-10%" y="-10%" width="120%" height="120%" filterUnits="userSpaceOnUse" primitiveUnits="userSpaceOnUse"><feComponentTransfer color-interpolation-filters="sRGB"><feFuncR type="discrete" tableValues="0 0"/><feFuncG type="discrete" tableValues="0 0"/><feFuncB type="discrete" tableValues="0 0"/><feFuncA type="linear" slope="1" intercept="0"/></feComponentTransfer><feGaussianBlur stdDeviation="1.78114 1.78114"/></filter><filter id="fx15" x="-10%" y="-10%" width="120%" height="120%" filterUnits="userSpaceOnUse" primitiveUnits="userSpaceOnUse"><feComponentTransfer color-interpolation-filters="sRGB"><feFuncR type="discrete" tableValues="0 0"/><feFuncG type="discrete" tableValues="0 0"/><feFuncB type="discrete" tableValues="0 0"/><feFuncA type="linear" slope="1" intercept="0"/></feComponentTransfer><feGaussianBlur stdDeviation="1.78114 1.78114"/></filter><filter id="fx16" x="-10%" y="-10%" width="120%" height="120%" filterUnits="userSpaceOnUse" primitiveUnits="userSpaceOnUse"><feComponentTransfer color-interpolation-filters="sRGB"><feFuncR type="discrete" tableValues="0 0"/><feFuncG type="discrete" tableValues="0 0"/><feFuncB type="discrete" tableValues="0 0"/><feFuncA type="linear" slope="1" intercept="0"/></feComponentTransfer><feGaussianBlur stdDeviation="1.78114 1.78114"/></filter><filter id="fx17" x="-10%" y="-10%" width="120%" height="120%" filterUnits="userSpaceOnUse" primitiveUnits="userSpaceOnUse"><feComponentTransfer color-interpolation-filters="sRGB"><feFuncR type="discrete" tableValues="0 0"/><feFuncG type="discrete" tableValues="0 0"/><feFuncB type="discrete" tableValues="0 0"/><feFuncA type="linear" slope="1" intercept="0"/></feComponentTransfer><feGaussianBlur stdDeviation="1.78114 1.78114"/></filter><filter id="fx18" x="-10%" y="-10%" width="120%" height="120%" filterUnits="userSpaceOnUse" primitiveUnits="userSpaceOnUse"><feComponentTransfer color-interpolation-filters="sRGB"><feFuncR type="discrete" tableValues="0 0"/><feFuncG type="discrete" tableValues="0 0"/><feFuncB type="discrete" tableValues="0 0"/><feFuncA type="linear" slope="1" intercept="0"/></feComponentTransfer><feGaussianBlur stdDeviation="1.78114 1.78114"/></filter><filter id="fx19" x="-10%" y="-10%" width="120%" height="120%" filterUnits="userSpaceOnUse" primitiveUnits="userSpaceOnUse"><feComponentTransfer color-interpolation-filters="sRGB"><feFuncR type="discrete" tableValues="0 0"/><feFuncG type="discrete" tableValues="0 0"/><feFuncB type="discrete" tableValues="0 0"/><feFuncA type="linear" slope="1" intercept="0"/></feComponentTransfer><feGaussianBlur stdDeviation="1.78114 1.78114"/></filter><filter id="fx20" x="-10%" y="-10%" width="120%" height="120%" filterUnits="userSpaceOnUse" primitiveUnits="userSpaceOnUse"><feComponentTransfer color-interpolation-filters="sRGB"><feFuncR type="discrete" tableValues="0 0"/><feFuncG type="discrete" tableValues="0 0"/><feFuncB type="discrete" tableValues="0 0"/><feFuncA type="linear" slope="1" intercept="0"/></feComponentTransfer><feGaussianBlur stdDeviation="1.78114 1.78114"/></filter><filter id="fx21" x="-10%" y="-10%" width="120%" height="120%" filterUnits="userSpaceOnUse" primitiveUnits="userSpaceOnUse"><feComponentTransfer color-interpolation-filters="sRGB"><feFuncR type="discrete" tableValues="0 0"/><feFuncG type="discrete" tableValues="0 0"/><feFuncB type="discrete" tableValues="0 0"/><feFuncA type="linear" slope="1" intercept="0"/></feComponentTransfer><feGaussianBlur stdDeviation="1.78114 1.78114"/></filter><filter id="fx22" x="-10%" y="-10%" width="120%" height="120%" filterUnits="userSpaceOnUse" primitiveUnits="userSpaceOnUse"><feComponentTransfer color-interpolation-filters="sRGB"><feFuncR type="discrete" tableValues="0 0"/><feFuncG type="discrete" tableValues="0 0"/><feFuncB type="discrete" tableValues="0 0"/><feFuncA type="linear" slope="1" intercept="0"/></feComponentTransfer><feGaussianBlur stdDeviation="1.78114 1.78114"/></filter><filter id="fx23" x="-10%" y="-10%" width="120%" height="120%" filterUnits="userSpaceOnUse" primitiveUnits="userSpaceOnUse"><feComponentTransfer color-interpolation-filters="sRGB"><feFuncR type="discrete" tableValues="0 0"/><feFuncG type="discrete" tableValues="0 0"/><feFuncB type="discrete" tableValues="0 0"/><feFuncA type="linear" slope="1" intercept="0"/></feComponentTransfer><feGaussianBlur stdDeviation="1.78114 1.78114"/></filter><filter id="fx24" x="-10%" y="-10%" width="120%" height="120%" filterUnits="userSpaceOnUse" primitiveUnits="userSpaceOnUse"><feComponentTransfer color-interpolation-filters="sRGB"><feFuncR type="discrete" tableValues="0 0"/><feFuncG type="discrete" tableValues="0 0"/><feFuncB type="discrete" tableValues="0 0"/><feFuncA type="linear" slope="1" intercept="0"/></feComponentTransfer><feGaussianBlur stdDeviation="1.78114 1.78114"/></filter><filter id="fx25" x="-10%" y="-10%" width="120%" height="120%" filterUnits="userSpaceOnUse" primitiveUnits="userSpaceOnUse"><feComponentTransfer color-interpolation-filters="sRGB"><feFuncR type="discrete" tableValues="0 0"/><feFuncG type="discrete" tableValues="0 0"/><feFuncB type="discrete" tableValues="0 0"/><feFuncA type="linear" slope="1" intercept="0"/></feComponentTransfer><feGaussianBlur stdDeviation="1.78114 1.78114"/></filter><filter id="fx26" x="-10%" y="-10%" width="120%" height="120%" filterUnits="userSpaceOnUse" primitiveUnits="userSpaceOnUse"><feComponentTransfer color-interpolation-filters="sRGB"><feFuncR type="discrete" tableValues="0 0"/><feFuncG type="discrete" tableValues="0 0"/><feFuncB type="discrete" tableValues="0 0"/><feFuncA type="linear" slope="1" intercept="0"/></feComponentTransfer><feGaussianBlur stdDeviation="1.78114 1.78114"/></filter><clipPath id="clip27"><rect x="1566" y="163" width="2375" height="1425"/></clipPath><clipPath id="clip28"><rect x="1565" y="163" width="2375" height="1425"/></clipPath><clipPath id="clip29"><rect x="1728" y="433" width="2165" height="1108"/></clipPath><clipPath id="clip30"><rect x="-3" y="-3" width="2170" height="833"/></clipPath><clipPath id="clip31"><rect x="0" y="0" width="2164" height="826"/></clipPath><clipPath id="clip32"><rect x="1728" y="433" width="2165" height="1108"/></clipPath><clipPath id="clip33"><rect x="1565" y="163" width="2375" height="1425"/></clipPath><clipPath id="clip34"><rect x="1565" y="163" width="2375" height="1425"/></clipPath><clipPath id="clip35"><rect x="1565" y="163" width="2375" height="1425"/></clipPath><clipPath id="clip36"><rect x="1565" y="163" width="2375" height="1425"/></clipPath><clipPath id="clip37"><rect x="1565" y="163" width="2375" height="1425"/></clipPath><clipPath id="clip38"><rect x="1565" y="163" width="2375" height="1425"/></clipPath><clipPath id="clip39"><rect x="1565" y="163" width="2375" height="1425"/></clipPath><clipPath id="clip40"><rect x="1565" y="163" width="2375" height="1425"/></clipPath><clipPath id="clip41"><rect x="1565" y="163" width="2375" height="1425"/></clipPath><clipPath id="clip42"><rect x="40" y="48" width="41" height="48"/></clipPath><clipPath id="clip43"><rect x="0" y="0" width="122" height="148"/></clipPath><clipPath id="clip44"><rect x="1565" y="163" width="2375" height="1425"/></clipPath><clipPath id="clip45"><rect x="42" y="36" width="43" height="60"/></clipPath><clipPath id="clip46"><rect x="0" y="0" width="126" height="148"/></clipPath><clipPath id="clip47"><rect x="1565" y="163" width="2375" height="1425"/></clipPath><clipPath id="clip48"><rect x="40" y="48" width="39" height="48"/></clipPath><clipPath id="clip49"><rect x="0" y="0" width="117" height="148"/></clipPath><clipPath id="clip50"><rect x="1565" y="163" width="2375" height="1425"/></clipPath><clipPath id="clip51"><rect x="40" y="36" width="43" height="60"/></clipPath><clipPath id="clip52"><rect x="0" y="0" width="125" height="148"/></clipPath><clipPath id="clip53"><rect x="1565" y="163" width="2375" height="1425"/></clipPath><clipPath id="clip54"><rect x="40" y="48" width="43" height="48"/></clipPath><clipPath id="clip55"><rect x="0" y="0" width="123" height="148"/></clipPath><clipPath id="clip56"><rect x="1565" y="163" width="2375" height="1425"/></clipPath><clipPath id="clip57"><rect x="38" y="34" width="37" height="59"/></clipPath><clipPath id="clip58"><rect x="0" y="0" width="111" height="148"/></clipPath><clipPath id="clip59"><rect x="1565" y="163" width="2375" height="1425"/></clipPath><clipPath id="clip60"><rect x="38" y="48" width="43" height="58"/></clipPath><clipPath id="clip61"><rect x="0" y="0" width="121" height="148"/></clipPath><clipPath id="clip62"><rect x="1565" y="163" width="2375" height="1425"/></clipPath><clipPath id="clip63"><rect x="42" y="36" width="41" height="57"/></clipPath><clipPath id="clip64"><rect x="0" y="0" width="126" height="148"/></clipPath><clipPath id="clip65"><rect x="1565" y="163" width="2375" height="1425"/></clipPath><clipPath id="clip66"><rect x="40" y="36" width="27" height="57"/></clipPath><clipPath id="clip67"><rect x="0" y="0" width="106" height="148"/></clipPath><clipPath id="clip68"><rect x="1565" y="163" width="2375" height="1425"/></clipPath><clipPath id="clip69"><rect x="36" y="36" width="31" height="70"/></clipPath><clipPath id="clip70"><rect x="0" y="0" width="108" height="148"/></clipPath><clipPath id="clip71"><rect x="1565" y="163" width="2375" height="1425"/></clipPath><clipPath id="clip72"><rect x="42" y="36" width="41" height="57"/></clipPath><clipPath id="clip73"><rect x="0" y="0" width="121" height="148"/></clipPath><clipPath id="clip74"><rect x="1565" y="163" width="2375" height="1425"/></clipPath><clipPath id="clip75"><rect x="42" y="36" width="25" height="57"/></clipPath><clipPath id="clip76"><rect x="0" y="0" width="106" height="148"/></clipPath><clipPath id="clip77"><rect x="1565" y="163" width="2375" height="1425"/></clipPath><clipPath id="clip78"><rect x="40" y="48" width="62" height="45"/></clipPath><clipPath id="clip79"><rect x="0" y="0" width="142" height="148"/></clipPath><clipPath id="clip80"><rect x="1565" y="163" width="2375" height="1425"/></clipPath><clipPath id="clip81"><rect x="42" y="48" width="41" height="45"/></clipPath><clipPath id="clip82"><rect x="0" y="0" width="126" height="148"/></clipPath><clipPath id="clip83"><rect x="1565" y="163" width="2375" height="1425"/></clipPath><clipPath id="clip84"><rect x="40" y="48" width="45" height="48"/></clipPath><clipPath id="clip85"><rect x="0" y="0" width="126" height="148"/></clipPath><clipPath id="clip86"><rect x="1565" y="163" width="2375" height="1425"/></clipPath><clipPath id="clip87"><rect x="42" y="48" width="43" height="58"/></clipPath><clipPath id="clip88"><rect x="0" y="0" width="125" height="148"/></clipPath><clipPath id="clip89"><rect x="1565" y="163" width="2375" height="1425"/></clipPath><clipPath id="clip90"><rect x="40" y="48" width="43" height="58"/></clipPath><clipPath id="clip91"><rect x="0" y="0" width="125" height="148"/></clipPath><clipPath id="clip92"><rect x="1565" y="163" width="2375" height="1425"/></clipPath><clipPath id="clip93"><rect x="42" y="48" width="33" height="45"/></clipPath><clipPath id="clip94"><rect x="0" y="0" width="114" height="148"/></clipPath><clipPath id="clip95"><rect x="1565" y="163" width="2375" height="1425"/></clipPath><clipPath id="clip96"><rect x="40" y="48" width="37" height="48"/></clipPath><clipPath id="clip97"><rect x="0" y="0" width="116" height="148"/></clipPath><clipPath id="clip98"><rect x="1565" y="163" width="2375" height="1425"/></clipPath><clipPath id="clip99"><rect x="38" y="42" width="37" height="54"/></clipPath><clipPath id="clip100"><rect x="0" y="0" width="113" height="148"/></clipPath><clipPath id="clip101"><rect x="1565" y="163" width="2375" height="1425"/></clipPath><clipPath id="clip102"><rect x="42" y="48" width="41" height="48"/></clipPath><clipPath id="clip103"><rect x="0" y="0" width="126" height="148"/></clipPath><clipPath id="clip104"><rect x="1565" y="163" width="2375" height="1425"/></clipPath><clipPath id="clip105"><rect x="38" y="48" width="45" height="45"/></clipPath><clipPath id="clip106"><rect x="0" y="0" width="121" height="148"/></clipPath><clipPath id="clip107"><rect x="1565" y="163" width="2375" height="1425"/></clipPath><clipPath id="clip108"><rect x="38" y="48" width="62" height="45"/></clipPath><clipPath id="clip109"><rect x="0" y="0" width="138" height="148"/></clipPath><clipPath id="clip110"><rect x="1565" y="163" width="2375" height="1425"/></clipPath><clipPath id="clip111"><rect x="38" y="48" width="43" height="45"/></clipPath><clipPath id="clip112"><rect x="0" y="0" width="120" height="148"/></clipPath><clipPath id="clip113"><rect x="1565" y="163" width="2375" height="1425"/></clipPath><clipPath id="clip114"><rect x="38" y="48" width="45" height="58"/></clipPath><clipPath id="clip115"><rect x="0" y="0" width="121" height="148"/></clipPath><clipPath id="clip116"><rect x="1565" y="163" width="2375" height="1425"/></clipPath><clipPath id="clip117"><rect x="40" y="48" width="37" height="45"/></clipPath><clipPath id="clip118"><rect x="0" y="0" width="116" height="148"/></clipPath><clipPath id="clip119"><rect x="1565" y="163" width="2375" height="1425"/></clipPath><clipPath id="clip120"><rect x="1565" y="163" width="2375" height="1425"/></clipPath><clipPath id="clip121"><rect x="1565" y="163" width="2375" height="1425"/></clipPath><clipPath id="clip122"><rect x="1565" y="163" width="2375" height="1425"/></clipPath></defs><g clip-path="url(#clip27)" transform="translate(-1566 -163)"><rect x="1566" y="163" width="2375" height="1425" fill="#404040"/><g clip-path="url(#clip28)"><path d="M1728.5 1537.5 3890.5 1537.5M1728.5 1353.54 3890.5 1353.54M1728.5 1169.54 3890.5 1169.54M1728.5 801.526 3890.5 801.526M1728.5 617.52 3890.5 617.52M1728.5 433.5 3890.5 433.5" stroke="#F2F2F2" stroke-width="3.4375" stroke-linejoin="round" stroke-miterlimit="10" stroke-opacity="0.101961" fill="none"/></g><g clip-path="url(#clip29)"><g clip-path="url(#clip30)" filter="url(#fx0)" transform="translate(1727 587)"><g clip-path="url(#clip31)"><path d="M22.0573 525.911 63.0587 525.911 63.0587 405.907 22.0573 405.907ZM105.06 381.907 147.061 381.907 147.061 405.907 105.06 405.907ZM188.063 803.92 230.064 803.92 230.064 405.907 188.063 405.907ZM271.066 437.908 313.067 437.908 313.067 405.907 271.066 405.907ZM354.068 449.909 396.07 449.909 396.07 405.907 354.068 405.907ZM438.071 506.911 479.072 506.911 479.072 405.907 438.071 405.907ZM521.074 304.904 562.075 304.904 562.075 405.907 521.074 405.907ZM604.076 241.902 646.078 241.902 646.078 405.907 604.076 405.907ZM687.079 602.914 729.081 602.914 729.081 405.907 687.079 405.907ZM770.082 404.907 812.083 404.907 812.083 405.907 770.082 405.907ZM853.085 240.902 895.086 240.902 895.086 405.907 853.085 405.907ZM937.087 367.906 978.089 367.906 978.089 405.907 937.087 405.907ZM1020.09 361.906 1061.09 361.906 1061.09 405.907 1020.09 405.907ZM1103.09 473.91 1144.09 473.91 1144.09 405.907 1103.09 405.907ZM1186.1 143.899 1228.1 143.899 1228.1 405.907 1186.1 405.907ZM1269.1 617.914 1311.1 617.914 1311.1 405.907 1269.1 405.907ZM1352.1 424.908 1394.1 424.908 1394.1 405.907 1352.1 405.907ZM1435.1 696.917 1477.11 696.917 1477.11 405.907 1435.1 405.907ZM1519.11 584.913 1560.11 584.913 1560.11 405.907 1519.11 405.907ZM1602.11 361.906 1643.11 361.906 1643.11 405.907 1602.11 405.907ZM1685.11 225.901 1726.11 225.901 1726.11 405.907 1685.11 405.907ZM1768.11 383.907 1810.12 383.907 1810.12 405.907 1768.11 405.907ZM1851.12 115.898 1893.12 115.898 1893.12 405.907 1851.12 405.907ZM1934.12 446.909 1976.12 446.909 1976.12 405.907 1934.12 405.907ZM2017.12 21.8948 2059.12 21.8948 2059.12 405.907 2017.12 405.907ZM2101.13 412.908 2142.13 412.908 2142.13 405.907 2101.13 405.907Z" fill="#2D9DFF"/></g></g></g><g clip-path="url(#clip32)"><path d="M1749.06 1106.04 1790.06 1106.04 1790.06 986.032 1749.06 986.032ZM1832.06 962.031 1874.06 962.031 1874.06 986.032 1832.06 986.032ZM1915.06 1384.05 1957.06 1384.05 1957.06 986.032 1915.06 986.032ZM1998.07 1018.03 2040.07 1018.03 2040.07 986.032 1998.07 986.032ZM2081.07 1030.03 2123.07 1030.03 2123.07 986.032 2081.07 986.032ZM2165.07 1087.04 2206.07 1087.04 2206.07 986.032 2165.07 986.032ZM2248.07 885.029 2289.08 885.029 2289.08 986.032 2248.07 986.032ZM2331.08 822.027 2373.08 822.027 2373.08 986.032 2331.08 986.032ZM2414.08 1183.04 2456.08 1183.04 2456.08 986.032 2414.08 986.032ZM2497.08 985.032 2539.08 985.032 2539.08 986.032 2497.08 986.032ZM2580.08 821.027 2622.09 821.027 2622.09 986.032 2580.08 986.032ZM2664.09 948.031 2705.09 948.031 2705.09 986.032 2664.09 986.032ZM2747.09 942.031 2788.09 942.031 2788.09 986.032 2747.09 986.032ZM2830.09 1054.03 2871.09 1054.03 2871.09 986.032 2830.09 986.032ZM2913.1 724.024 2955.1 724.024 2955.1 986.032 2913.1 986.032ZM2996.1 1198.04 3038.1 1198.04 3038.1 986.032 2996.1 986.032ZM3079.1 1005.03 3121.1 1005.03 3121.1 986.032 3079.1 986.032ZM3162.1 1277.04 3204.1 1277.04 3204.1 986.032 3162.1 986.032ZM3246.11 1165.04 3287.11 1165.04 3287.11 986.032 3246.11 986.032ZM3329.11 942.031 3370.11 942.031 3370.11 986.032 3329.11 986.032ZM3412.11 806.026 3453.11 806.026 3453.11 986.032 3412.11 986.032ZM3495.11 964.032 3537.12 964.032 3537.12 986.032 3495.11 986.032ZM3578.12 696.023 3620.12 696.023 3620.12 986.032 3578.12 986.032ZM3661.12 1027.03 3703.12 1027.03 3703.12 986.032 3661.12 986.032ZM3744.12 602.02 3786.12 602.02 3786.12 986.032 3744.12 986.032ZM3828.13 993.033 3869.13 993.033 3869.13 986.032 3828.13 986.032Z" fill="#2D9DFF"/></g><g clip-path="url(#clip33)"><path d="M1728.5 985.5 3890.5 985.5" stroke="#F2F2F2" stroke-width="4.58333" stroke-linejoin="round" stroke-miterlimit="10" stroke-opacity="0.541176" fill="none" fill-rule="evenodd"/></g><g clip-path="url(#clip34)"><text fill="#D9D9D9" font-family="Calibri,Calibri_MSFontService,sans-serif" font-weight="400" font-size="41" transform="matrix(1 0 0 1 1595.57 1549)">-1.5%</text></g><g clip-path="url(#clip35)"><text fill="#D9D9D9" font-family="Calibri,Calibri_MSFontService,sans-serif" font-weight="400" font-size="41" transform="matrix(1 0 0 1 1595.57 1365)">-1.0%</text></g><g clip-path="url(#clip36)"><text fill="#D9D9D9" font-family="Calibri,Calibri_MSFontService,sans-serif" font-weight="400" font-size="41" transform="matrix(1 0 0 1 1595.57 1181)">-0.5%</text></g><g clip-path="url(#clip37)"><text fill="#D9D9D9" font-family="Calibri,Calibri_MSFontService,sans-serif" font-weight="400" font-size="41" transform="matrix(1 0 0 1 1608.2 997)">0.0%</text></g><g clip-path="url(#clip38)"><text fill="#D9D9D9" font-family="Calibri,Calibri_MSFontService,sans-serif" font-weight="400" font-size="41" transform="matrix(1 0 0 1 1608.2 813)">0.5%</text></g><g clip-path="url(#clip39)"><text fill="#D9D9D9" font-family="Calibri,Calibri_MSFontService,sans-serif" font-weight="400" font-size="41" transform="matrix(1 0 0 1 1608.2 629)">1.0%</text></g><g clip-path="url(#clip40)"><text fill="#D9D9D9" font-family="Calibri,Calibri_MSFontService,sans-serif" font-weight="400" font-size="41" transform="matrix(1 0 0 1 1608.2 446)">1.5%</text></g><g clip-path="url(#clip41)"><g clip-path="url(#clip42)" filter="url(#fx1)" transform="translate(1714 981)"><g clip-path="url(#clip43)"><path d="M23.7939-0.832519C23.7939-0.581868 23.7044-0.384928 23.5254-0.241699 23.3464-0.09847 23.0644 0.00447591 22.6794 0.0671387 22.2945 0.129801 21.7261 0.161133 20.9741 0.161133 20.1685 0.161133 19.5821 0.129801 19.2151 0.0671387 18.8481 0.00447591 18.5885-0.09847 18.4363-0.241699 18.2841-0.384928 18.208-0.581868 18.208-0.832519L18.208-2.73926C17.2233-1.68294 16.0999-0.859375 14.8376-0.268555 13.5754 0.322266 12.1745 0.617676 10.6348 0.617676 9.36361 0.617676 8.19539 0.452067 7.13013 0.12085 6.06486-0.210368 5.14282-0.702718 4.36401-1.3562 3.5852-2.00968 2.98096-2.81982 2.55127-3.78662 2.12158-4.75342 1.90674-5.88135 1.90674-7.17041 1.90674-8.56689 2.17977-9.77987 2.72583-10.8093 3.27189-11.8388 4.08651-12.6892 5.16968-13.3606 6.25285-14.032 7.6001-14.5288 9.21142-14.8511 10.8228-15.1733 12.6937-15.3345 14.8242-15.3345L17.1606-15.3345 17.1606-16.7847C17.1606-17.5366 17.0846-18.1946 16.9324-18.7585 16.7802-19.3225 16.5295-19.7925 16.1804-20.1685 15.8313-20.5444 15.3658-20.8219 14.7839-21.001 14.2021-21.18 13.4814-21.2695 12.6221-21.2695 11.4941-21.2695 10.4871-21.1442 9.60083-20.8936 8.7146-20.6429 7.93131-20.3654 7.25098-20.061 6.57064-19.7567 6.0022-19.4792 5.54565-19.2285 5.08911-18.9779 4.71761-18.8525 4.43115-18.8525 4.23421-18.8525 4.05965-18.9152 3.90747-19.0405 3.75529-19.1659 3.62996-19.3449 3.53149-19.5776 3.43302-19.8104 3.35693-20.0968 3.30322-20.437 3.24951-20.7772 3.22266-21.1532 3.22266-21.5649 3.22266-22.12 3.26742-22.5586 3.35693-22.8809 3.44645-23.2031 3.61654-23.4941 3.86719-23.7537 4.11784-24.0133 4.55648-24.2997 5.1831-24.613 5.80973-24.9263 6.54378-25.2173 7.38525-25.4858 8.22672-25.7544 9.14429-25.9737 10.1379-26.1438 11.1316-26.3139 12.1566-26.3989 13.2129-26.3989 15.0928-26.3989 16.6996-26.2154 18.0334-25.8484 19.3673-25.4814 20.4639-24.9174 21.3232-24.1565 22.1826-23.3956 22.8092-22.4154 23.2031-21.2158 23.597-20.0163 23.7939-18.5929 23.7939-16.9458ZM17.1606-11.0913 14.5825-11.0913C13.4904-11.0913 12.5594-11.0107 11.7895-10.8496 11.0197-10.6885 10.3931-10.4468 9.90967-10.1245 9.42627-9.80224 9.07267-9.41284 8.84888-8.9563 8.62508-8.49975 8.51318-7.97607 8.51318-7.38525 8.51318-6.38265 8.83097-5.59489 9.46655-5.02197 10.1021-4.44906 10.9839-4.1626 12.1118-4.1626 13.0607-4.1626 13.9335-4.4043 14.7302-4.88769 15.5269-5.37109 16.3371-6.07829 17.1606-7.00928Z" fill="#D9D9D9" transform="matrix(1.15 0 0 1.15 45.0475 86)"/></g></g><text fill="#D9D9D9" font-family="Calibri,Calibri_MSFontService,sans-serif" font-weight="700" font-size="55" transform="matrix(1 0 0 1 1756.16 1056)">a</text></g><g clip-path="url(#clip44)"><g clip-path="url(#clip45)" filter="url(#fx2)" transform="translate(1795 981)"><g clip-path="url(#clip46)"><path d="M27.5-13.2129C27.5-11.0824 27.2673-9.16667 26.8018-7.46582 26.3363-5.76497 25.6649-4.31478 24.7876-3.11523 23.9103-1.91569 22.8316-0.993652 21.5515-0.349121 20.2714 0.29541 18.8167 0.617676 17.1875 0.617676 16.3818 0.617676 15.6299 0.541585 14.9316 0.389404 14.2334 0.237223 13.5665-0.00895183 12.9309-0.349121 12.2953-0.68929 11.6687-1.11898 11.051-1.63818 10.4333-2.15739 9.80224-2.78402 9.15771-3.51807L9.15771-0.913086C9.15771-0.716146 9.10848-0.550537 9.01001-0.41626 8.91154-0.281982 8.75041-0.170085 8.52661-0.0805664 8.30281 0.00895182 8.00293 0.0716146 7.62695 0.107422 7.25098 0.143229 6.79443 0.161133 6.25732 0.161133 5.70231 0.161133 5.24129 0.143229 4.87427 0.107422 4.50724 0.0716146 4.21183 0.00895182 3.98804-0.0805664 3.76424-0.170085 3.60758-0.281982 3.51807-0.41626 3.42855-0.550537 3.38379-0.716146 3.38379-0.913086L3.38379-36.228C3.38379-36.4071 3.4375-36.5682 3.54492-36.7114 3.65234-36.8547 3.83586-36.9755 4.09546-37.074 4.35506-37.1724 4.69971-37.2485 5.12939-37.3022 5.55908-37.356 6.10514-37.3828 6.76758-37.3828 7.43001-37.3828 7.97607-37.356 8.40576-37.3022 8.83545-37.2485 9.18009-37.1724 9.4397-37.074 9.6993-36.9755 9.88281-36.8547 9.99023-36.7114 10.0977-36.5682 10.1514-36.4071 10.1514-36.228L10.1514-22.9883C10.7601-23.597 11.3688-24.1162 11.9775-24.5459 12.5863-24.9756 13.195-25.3292 13.8037-25.6067 14.4124-25.8842 15.0391-26.0856 15.6836-26.2109 16.3281-26.3363 17.0085-26.3989 17.7246-26.3989 19.4971-26.3989 21.001-26.0453 22.2363-25.3381 23.4717-24.6309 24.4788-23.6776 25.2576-22.478 26.0364-21.2785 26.6048-19.8775 26.9629-18.2751 27.321-16.6728 27.5-14.9854 27.5-13.2129ZM20.4907-12.7295C20.4907-13.75 20.4146-14.7347 20.2624-15.6836 20.1103-16.6325 19.8462-17.474 19.4702-18.208 19.0942-18.9421 18.6064-19.5284 18.0066-19.967 17.4068-20.4057 16.6504-20.625 15.7373-20.625 15.2897-20.625 14.8511-20.5623 14.4214-20.437 13.9917-20.3117 13.5486-20.0968 13.092-19.7925 12.6355-19.4881 12.1655-19.0942 11.6821-18.6108 11.1987-18.1274 10.6885-17.5277 10.1514-16.8115L10.1514-8.8623C11.1003-7.64486 12.0089-6.71834 12.8772-6.08276 13.7455-5.44718 14.6541-5.12939 15.603-5.12939 16.4803-5.12939 17.2233-5.35319 17.832-5.80078 18.4408-6.24837 18.9465-6.83024 19.3494-7.54639 19.7522-8.26253 20.0431-9.07715 20.2222-9.99023 20.4012-10.9033 20.4907-11.8164 20.4907-12.7295Z" fill="#D9D9D9" transform="matrix(1.15 0 0 1.15 46.0188 86)"/></g></g><text fill="#D9D9D9" font-family="Calibri,Calibri_MSFontService,sans-serif" font-weight="700" font-size="55" transform="matrix(1 0 0 1 1838.13 1056)">b</text></g><g clip-path="url(#clip47)"><g clip-path="url(#clip48)" filter="url(#fx3)" transform="translate(1882 981)"><g clip-path="url(#clip49)"><path d="M21.5112-4.72656C21.5112-4.26107 21.4978-3.87166 21.4709-3.55835 21.4441-3.24504 21.4083-2.98096 21.3635-2.76611 21.3188-2.55127 21.2651-2.37671 21.2024-2.24243 21.1397-2.10815 21.001-1.93807 20.7861-1.73218 20.5713-1.52629 20.2043-1.27563 19.6851-0.980225 19.1659-0.684814 18.575-0.420736 17.9126-0.187988 17.2502 0.0447591 16.5295 0.232747 15.7507 0.375977 14.9719 0.519206 14.1707 0.59082 13.3472 0.59082 11.5031 0.59082 9.86938 0.304362 8.44604-0.268555 7.0227-0.841471 5.82764-1.68742 4.86084-2.8064 3.89404-3.92537 3.16447-5.29053 2.67212-6.90185 2.17977-8.51318 1.93359-10.3573 1.93359-12.4341 1.93359-14.8332 2.23348-16.9055 2.83325-18.6511 3.43302-20.3967 4.27002-21.8424 5.34424-22.9883 6.41846-24.1341 7.68961-24.9845 9.15771-25.5395 10.6258-26.0946 12.2371-26.3721 13.9917-26.3721 14.7078-26.3721 15.4106-26.3094 16.0999-26.1841 16.7891-26.0588 17.4337-25.8887 18.0334-25.6738 18.6332-25.459 19.1703-25.2173 19.6448-24.9487 20.1192-24.6802 20.4549-24.4474 20.6519-24.2505 20.8488-24.0535 20.9875-23.8879 21.0681-23.7537 21.1487-23.6194 21.2113-23.4448 21.2561-23.23 21.3009-23.0151 21.3367-22.7511 21.3635-22.4377 21.3904-22.1244 21.4038-21.744 21.4038-21.2964 21.4038-20.258 21.3143-19.5284 21.1353-19.1077 20.9562-18.6869 20.7235-18.4766 20.437-18.4766 20.1326-18.4766 19.8104-18.6019 19.4702-18.8525 19.13-19.1032 18.7272-19.3807 18.2617-19.6851 17.7962-19.9894 17.2412-20.2669 16.5967-20.5176 15.9521-20.7682 15.1823-20.8936 14.2871-20.8936 12.5326-20.8936 11.1898-20.2177 10.2588-18.866 9.3278-17.5142 8.8623-15.5314 8.8623-12.9175 8.8623-11.6284 8.97868-10.4915 9.21142-9.50683 9.44417-8.52213 9.78882-7.69857 10.2454-7.03613 10.7019-6.3737 11.2748-5.87687 11.9641-5.54565 12.6534-5.21444 13.4546-5.04883 14.3677-5.04883 15.2987-5.04883 16.0999-5.18758 16.7712-5.46509 17.4426-5.74259 18.029-6.05143 18.5303-6.3916 19.0316-6.73177 19.4523-7.04061 19.7925-7.31811 20.1326-7.59562 20.4191-7.73437 20.6519-7.73437 20.813-7.73437 20.9473-7.68962 21.0547-7.6001 21.1621-7.51058 21.2471-7.34497 21.3098-7.10327 21.3725-6.86157 21.4217-6.55273 21.4575-6.17676 21.4933-5.80078 21.5112-5.31738 21.5112-4.72656Z" fill="#D9D9D9" transform="matrix(1.15 0 0 1.15 45.4244 86)"/></g></g><text fill="#D9D9D9" font-family="Calibri,Calibri_MSFontService,sans-serif" font-weight="700" font-size="55" transform="matrix(1 0 0 1 1924.54 1056)">c</text></g><g clip-path="url(#clip50)"><g clip-path="url(#clip51)" filter="url(#fx4)" transform="translate(1962 981)"><g clip-path="url(#clip52)"><path d="M26.1035-0.913086C26.1035-0.716146 26.0588-0.550537 25.9692-0.41626 25.8797-0.281982 25.7275-0.170085 25.5127-0.0805664 25.2978 0.00895182 25.0069 0.0716146 24.6399 0.107422 24.2729 0.143229 23.8208 0.161133 23.2837 0.161133 22.7108 0.161133 22.2453 0.143229 21.8872 0.107422 21.5291 0.0716146 21.2382 0.00895182 21.0144-0.0805664 20.7906-0.170085 20.6295-0.281982 20.531-0.41626 20.4325-0.550537 20.3833-0.716146 20.3833-0.913086L20.3833-3.57178C19.1479-2.24691 17.8544-1.21745 16.5027-0.483398 15.151 0.250651 13.6515 0.617676 12.0044 0.617676 10.1782 0.617676 8.63403 0.264079 7.37183-0.443115 6.10962-1.15031 5.08016-2.10368 4.28345-3.30322 3.48673-4.50277 2.90934-5.90373 2.55127-7.5061 2.1932-9.10848 2.01416-10.7959 2.01416-12.5684 2.01416-14.6989 2.24243-16.6146 2.69897-18.3154 3.15552-20.0163 3.82243-21.4665 4.69971-22.666 5.57698-23.8656 6.66911-24.7876 7.97607-25.4321 9.28304-26.0767 10.7869-26.3989 12.4878-26.3989 13.8306-26.3989 15.048-26.1259 16.1401-25.5798 17.2323-25.0338 18.3154-24.2326 19.3896-23.1763L19.3896-36.1475C19.3896-36.3265 19.4389-36.4876 19.5374-36.6309 19.6358-36.7741 19.8149-36.8949 20.0745-36.9934 20.3341-37.0919 20.6787-37.168 21.1084-37.2217 21.5381-37.2754 22.0841-37.3022 22.7466-37.3022 23.409-37.3022 23.9551-37.2754 24.3848-37.2217 24.8144-37.168 25.1546-37.0919 25.4053-36.9934 25.6559-36.8949 25.835-36.7741 25.9424-36.6309 26.0498-36.4876 26.1035-36.3265 26.1035-36.1475ZM19.3896-16.9189C18.4228-18.1364 17.4963-19.0674 16.6101-19.7119 15.7239-20.3564 14.7974-20.6787 13.8306-20.6787 12.9533-20.6787 12.1969-20.4594 11.5613-20.0208 10.9257-19.5821 10.4154-18.9958 10.0305-18.2617 9.64559-17.5277 9.35913-16.7086 9.17114-15.8044 8.98315-14.9003 8.88916-13.9738 8.88916-13.0249 8.88916-12.0223 8.96973-11.0465 9.13086-10.0977 9.29199-9.14876 9.55607-8.30281 9.92309-7.55981 10.2901-6.81681 10.778-6.22152 11.3867-5.77393 11.9954-5.32633 12.7653-5.10254 13.6963-5.10254 14.1618-5.10254 14.6138-5.16968 15.0525-5.30395 15.4911-5.43823 15.9387-5.65755 16.3953-5.96191 16.8518-6.26628 17.3218-6.66463 17.8052-7.15698 18.2886-7.64933 18.8167-8.25358 19.3896-8.96973Z" fill="#D9D9D9" transform="matrix(1.15 0 0 1.15 45.322 86)"/></g></g><text fill="#D9D9D9" font-family="Calibri,Calibri_MSFontService,sans-serif" font-weight="700" font-size="55" transform="matrix(1 0 0 1 2004.44 1056)">d</text></g><g clip-path="url(#clip53)"><g clip-path="url(#clip54)" filter="url(#fx5)" transform="translate(2046 981)"><g clip-path="url(#clip55)"><path d="M25.5127-13.5889C25.5127-12.7653 25.3292-12.1566 24.9622-11.7627 24.5951-11.3688 24.0894-11.1719 23.4448-11.1719L8.8623-11.1719C8.8623-10.1514 8.98315-9.22485 9.22485-8.39233 9.46655-7.55981 9.85148-6.85262 10.3796-6.27075 10.9078-5.68888 11.5881-5.24577 12.4207-4.94141 13.2532-4.63704 14.2513-4.48486 15.415-4.48486 16.5967-4.48486 17.6351-4.56991 18.5303-4.73999 19.4255-4.91007 20.1998-5.09806 20.8533-5.30395 21.5068-5.50985 22.0483-5.69783 22.478-5.86792 22.9077-6.038 23.2568-6.12305 23.5254-6.12305 23.6865-6.12305 23.8208-6.09171 23.9282-6.02905 24.0356-5.96639 24.1252-5.85449 24.1968-5.69336 24.2684-5.53223 24.3176-5.30395 24.3445-5.00854 24.3713-4.71313 24.3848-4.34163 24.3848-3.89404 24.3848-3.50016 24.3758-3.16447 24.3579-2.88696 24.34-2.60946 24.3131-2.37223 24.2773-2.17529 24.2415-1.97835 24.1878-1.81274 24.1162-1.67847 24.0446-1.54419 23.9506-1.41439 23.8342-1.28906 23.7179-1.16374 23.4001-0.993652 22.8809-0.778809 22.3617-0.563965 21.6992-0.353597 20.8936-0.147705 20.0879 0.0581868 19.1658 0.237223 18.1274 0.389404 17.089 0.541585 15.979 0.617676 14.7974 0.617676 12.6668 0.617676 10.8004 0.349121 9.198-0.187988 7.59562-0.725098 6.25732-1.53971 5.1831-2.63184 4.10889-3.72396 3.3077-5.10254 2.77954-6.76758 2.25138-8.43262 1.9873-10.3841 1.9873-12.6221 1.9873-14.7526 2.26481-16.6728 2.81982-18.3826 3.37484-20.0924 4.1805-21.5426 5.23682-22.7332 6.29313-23.9237 7.57772-24.8324 9.09058-25.459 10.6034-26.0856 12.3088-26.3989 14.2065-26.3989 16.2118-26.3989 17.926-26.1035 19.3494-25.5127 20.7727-24.9219 21.9409-24.1028 22.854-23.0554 23.7671-22.0081 24.4385-20.7682 24.8682-19.3359 25.2978-17.9036 25.5127-16.346 25.5127-14.6631ZM18.96-15.5225C19.0137-17.4202 18.6332-18.9107 17.8186-19.9939 17.004-21.0771 15.7463-21.6186 14.0454-21.6187 13.186-21.6186 12.4386-21.4575 11.803-21.1353 11.1674-20.813 10.6392-20.3788 10.2185-19.8328 9.79777-19.2867 9.4755-18.6422 9.25171-17.8992 9.02791-17.1562 8.89811-16.3639 8.8623-15.5225Z" fill="#D9D9D9" transform="matrix(1.15 0 0 1.15 45.3901 86)"/></g></g><text fill="#D9D9D9" font-family="Calibri,Calibri_MSFontService,sans-serif" font-weight="700" font-size="55" transform="matrix(1 0 0 1 2088.51 1056)">e</text></g><g clip-path="url(#clip56)"><g clip-path="url(#clip57)" filter="url(#fx6)" transform="translate(2134 981)"><g clip-path="url(#clip58)"><path d="M17.832-33.999C17.832-33.4798 17.8141-33.0636 17.7783-32.7502 17.7425-32.4369 17.6888-32.1952 17.6172-32.0251 17.5456-31.8551 17.465-31.7387 17.3755-31.676 17.286-31.6134 17.1875-31.582 17.0801-31.582 16.9548-31.582 16.816-31.6134 16.6638-31.676 16.5116-31.7387 16.3236-31.8058 16.0999-31.8774 15.8761-31.9491 15.612-32.0162 15.3076-32.0789 15.0033-32.1415 14.6452-32.1728 14.2334-32.1728 13.75-32.1728 13.3337-32.0968 12.9846-31.9446 12.6355-31.7924 12.3446-31.5507 12.1118-31.2195 11.8791-30.8883 11.709-30.4586 11.6016-29.9304 11.4941-29.4023 11.4404-28.7533 11.4404-27.9834L11.4404-25.7812 15.8179-25.7812C15.979-25.7812 16.1267-25.7365 16.261-25.647 16.3953-25.5575 16.5072-25.4097 16.5967-25.2039 16.6862-24.998 16.7533-24.716 16.7981-24.3579 16.8429-23.9998 16.8652-23.5612 16.8652-23.042 16.8652-22.0573 16.7757-21.3546 16.5967-20.9338 16.4176-20.5131 16.158-20.3027 15.8179-20.3027L11.4404-20.3027 11.4404-0.913086C11.4404-0.734049 11.3867-0.577393 11.2793-0.443115 11.1719-0.308838 10.9928-0.19694 10.7422-0.107422 10.4915-0.0179036 10.1424 0.049235 9.69482 0.0939941 9.24723 0.138753 8.70117 0.161133 8.05664 0.161133 7.41211 0.161133 6.87052 0.138753 6.43188 0.0939941 5.99324 0.049235 5.64412-0.0179036 5.38452-0.107422 5.12492-0.19694 4.94588-0.308838 4.84741-0.443115 4.74894-0.577393 4.69971-0.734049 4.69971-0.913086L4.69971-20.3027 1.69189-20.3027C1.35173-20.3027 1.0966-20.5131 0.926514-20.9338 0.756429-21.3546 0.671387-22.0573 0.671387-23.042 0.671387-23.5612 0.693766-23.9998 0.738525-24.3579 0.783284-24.716 0.845947-24.998 0.926514-25.2039 1.00708-25.4097 1.1145-25.5575 1.24878-25.647 1.38306-25.7365 1.53971-25.7812 1.71875-25.7812L4.69971-25.7812 4.69971-27.7954C4.69971-29.4246 4.86084-30.8525 5.1831-32.0789 5.50537-33.3053 6.01115-34.3258 6.70044-35.1404 7.38973-35.955 8.26701-36.5682 9.33227-36.98 10.3975-37.3918 11.6553-37.5976 13.1055-37.5977 13.8037-37.5976 14.4661-37.5395 15.0928-37.4231 15.7194-37.3067 16.2118-37.1814 16.5698-37.0471 16.9279-36.9128 17.1696-36.7875 17.2949-36.6711 17.4202-36.5548 17.5232-36.3847 17.6038-36.1609 17.6843-35.9371 17.7425-35.6506 17.7783-35.3015 17.8141-34.9524 17.832-34.5182 17.832-33.999Z" fill="#D9D9D9" transform="matrix(1.15 0 0 1.15 45.6863 86)"/></g></g><text fill="#D9D9D9" font-family="Calibri,Calibri_MSFontService,sans-serif" font-weight="700" font-size="55" transform="matrix(1 0 0 1 2176.8 1056)">f</text></g><g clip-path="url(#clip59)"><g clip-path="url(#clip60)" filter="url(#fx7)" transform="translate(2213 981)"><g clip-path="url(#clip61)"><path d="M24.9756-23.2031C24.9756-22.3437 24.8771-21.7082 24.6802-21.2964 24.4832-20.8846 24.2415-20.6787 23.9551-20.6787L21.1353-20.6787C21.5291-20.249 21.8111-19.7611 21.9812-19.2151 22.1513-18.669 22.2363-18.1006 22.2363-17.5098 22.2363-16.1133 22.0036-14.8735 21.5381-13.7903 21.0726-12.7071 20.4057-11.794 19.5374-11.051 18.669-10.308 17.6217-9.74406 16.3953-9.35913 15.1689-8.9742 13.8037-8.78174 12.2998-8.78174 11.5299-8.78174 10.7959-8.87573 10.0977-9.06372 9.39941-9.25171 8.8623-9.47103 8.48633-9.72168 8.27148-9.48893 8.07902-9.21142 7.90894-8.88916 7.73885-8.56689 7.65381-8.20882 7.65381-7.81494 7.65381-7.29573 7.88208-6.87052 8.33862-6.53931 8.79517-6.20809 9.43522-6.02458 10.2588-5.98877L16.0864-5.77393C17.4471-5.72021 18.6601-5.52775 19.7253-5.19653 20.7906-4.86531 21.6858-4.39982 22.4109-3.80005 23.136-3.20028 23.691-2.47965 24.0759-1.63818 24.4609-0.796712 24.6533 0.161133 24.6533 1.23535 24.6533 2.41699 24.3937 3.53149 23.8745 4.57886 23.3553 5.62622 22.5765 6.53483 21.5381 7.30469 20.4997 8.07454 19.1972 8.68327 17.6306 9.13086 16.064 9.57845 14.2334 9.80224 12.1387 9.80225 10.0977 9.80224 8.35653 9.64111 6.91528 9.31885 5.47404 8.99658 4.2924 8.54899 3.37036 7.97607 2.44832 7.40316 1.77694 6.71834 1.3562 5.92163 0.935465 5.12492 0.725098 4.25212 0.725098 3.30322 0.725098 2.7124 0.801188 2.14844 0.953369 1.61133 1.10555 1.07422 1.32935 0.559489 1.62476 0.0671387 1.92017-0.425212 2.28271-0.895182 2.7124-1.34277 3.14209-1.79036 3.63444-2.22005 4.18945-2.63184 3.4196-3.04362 2.8243-3.60311 2.40356-4.3103 1.98283-5.0175 1.77246-5.79183 1.77246-6.6333 1.77246-7.68961 2.01416-8.65194 2.49756-9.52026 2.98096-10.3886 3.60758-11.1719 4.37744-11.8701 3.75081-12.4967 3.24951-13.2487 2.87353-14.126 2.49756-15.0033 2.30957-16.0954 2.30957-17.4023 2.30957-18.7988 2.55575-20.0476 3.0481-21.1487 3.54045-22.2498 4.22526-23.1807 5.10254-23.9416 5.97982-24.7026 7.02718-25.2844 8.24463-25.6873 9.46208-26.0901 10.8048-26.2915 12.2729-26.2915 13.0249-26.2915 13.7455-26.2467 14.4348-26.1572 15.1241-26.0677 15.7642-25.9424 16.355-25.7812L23.9551-25.7812C24.2594-25.7812 24.5056-25.5843 24.6936-25.1904 24.8816-24.7965 24.9756-24.1341 24.9756-23.2031ZM16.3013-17.5366C16.3013-18.8257 15.9432-19.8283 15.227-20.5444 14.5109-21.2606 13.4993-21.6186 12.1924-21.6187 11.5299-21.6186 10.9481-21.5068 10.4468-21.283 9.94547-21.0592 9.52921-20.7548 9.198-20.3699 8.86678-19.9849 8.6206-19.5374 8.45947-19.0271 8.29834-18.5168 8.21777-17.9842 8.21777-17.4292 8.21777-16.2118 8.57585-15.2494 9.29199-14.5422 10.0081-13.835 11.0018-13.4814 12.2729-13.4814 12.9533-13.4814 13.5441-13.5889 14.0454-13.8037 14.5467-14.0186 14.963-14.314 15.2942-14.6899 15.6254-15.0659 15.8761-15.5001 16.0461-15.9924 16.2162-16.4848 16.3013-16.9995 16.3013-17.5366ZM17.8857 1.58447C17.8857 0.778809 17.5635 0.161133 16.9189-0.268555 16.2744-0.698242 15.3882-0.93099 14.2603-0.966797L9.45312-1.10107C8.98763-0.760905 8.61613-0.434163 8.33862-0.12085 8.06112 0.192464 7.83732 0.49235 7.66724 0.778809 7.49715 1.06527 7.38525 1.34277 7.33154 1.61133 7.27783 1.87988 7.25098 2.15739 7.25098 2.44385 7.25098 3.33903 7.70304 4.01937 8.60718 4.48486 9.51131 4.95036 10.7869 5.1831 12.4341 5.1831 13.4546 5.1831 14.314 5.08016 15.0122 4.87427 15.7104 4.66838 16.2744 4.39534 16.7041 4.05518 17.1338 3.71501 17.4381 3.33455 17.6172 2.91382 17.7962 2.49308 17.8857 2.04997 17.8857 1.58447Z" fill="#D9D9D9" transform="matrix(1.15 0 0 1.15 45.4956 86)"/></g></g><text fill="#D9D9D9" font-family="Calibri,Calibri_MSFontService,sans-serif" font-weight="700" font-size="55" transform="matrix(1 0 0 1 2255.61 1056)">g</text></g><g clip-path="url(#clip62)"><g clip-path="url(#clip63)" filter="url(#fx8)" transform="translate(2294 981)"><g clip-path="url(#clip64)"><path d="M26.2646-0.913086C26.2646-0.734049 26.2109-0.577393 26.1035-0.443115 25.9961-0.308838 25.8171-0.19694 25.5664-0.107422 25.3158-0.0179036 24.9711 0.049235 24.5325 0.0939941 24.0938 0.138753 23.5522 0.161133 22.9077 0.161133 22.2453 0.161133 21.6947 0.138753 21.2561 0.0939941 20.8175 0.049235 20.4728-0.0179036 20.2222-0.107422 19.9715-0.19694 19.7925-0.308838 19.6851-0.443115 19.5776-0.577393 19.5239-0.734049 19.5239-0.913086L19.5239-14.5825C19.5239-15.7463 19.4389-16.6593 19.2688-17.3218 19.0987-17.9842 18.8525-18.5527 18.5303-19.0271 18.208-19.5015 17.7917-19.8686 17.2815-20.1282 16.7712-20.3878 16.1759-20.5176 15.4956-20.5176 14.6362-20.5176 13.7679-20.2043 12.8906-19.5776 12.0133-18.951 11.1003-18.0379 10.1514-16.8384L10.1514-0.913086C10.1514-0.734049 10.0977-0.577393 9.99023-0.443115 9.88281-0.308838 9.6993-0.19694 9.4397-0.107422 9.18009-0.0179036 8.83545 0.049235 8.40576 0.0939941 7.97607 0.138753 7.43001 0.161133 6.76758 0.161133 6.10514 0.161133 5.55908 0.138753 5.12939 0.0939941 4.69971 0.049235 4.35506-0.0179036 4.09546-0.107422 3.83586-0.19694 3.65234-0.308838 3.54492-0.443115 3.4375-0.577393 3.38379-0.734049 3.38379-0.913086L3.38379-36.228C3.38379-36.4071 3.4375-36.5682 3.54492-36.7114 3.65234-36.8547 3.83586-36.9755 4.09546-37.074 4.35506-37.1724 4.69971-37.2485 5.12939-37.3022 5.55908-37.356 6.10514-37.3828 6.76758-37.3828 7.43001-37.3828 7.97607-37.356 8.40576-37.3022 8.83545-37.2485 9.18009-37.1724 9.4397-37.074 9.6993-36.9755 9.88281-36.8547 9.99023-36.7114 10.0977-36.5682 10.1514-36.4071 10.1514-36.228L10.1514-22.9883C11.3151-24.1341 12.5012-24.989 13.7097-25.553 14.9182-26.1169 16.1759-26.3989 17.4829-26.3989 19.1121-26.3989 20.4862-26.1304 21.6052-25.5933 22.7242-25.0561 23.6283-24.3221 24.3176-23.3911 25.0069-22.4601 25.5037-21.3725 25.8081-20.1282 26.1125-18.8839 26.2646-17.3755 26.2646-15.603Z" fill="#D9D9D9" transform="matrix(1.15 0 0 1.15 45.928 86)"/></g></g><text fill="#D9D9D9" font-family="Calibri,Calibri_MSFontService,sans-serif" font-weight="700" font-size="55" transform="matrix(1 0 0 1 2337.04 1056)">h</text></g><g clip-path="url(#clip65)"><g clip-path="url(#clip66)" filter="url(#fx9)" transform="translate(2386 981)"><g clip-path="url(#clip67)"><path d="M10.1514-0.913086C10.1514-0.734049 10.0977-0.577393 9.99023-0.443115 9.88281-0.308838 9.6993-0.19694 9.4397-0.107422 9.18009-0.0179036 8.83545 0.049235 8.40576 0.0939941 7.97607 0.138753 7.43001 0.161133 6.76758 0.161133 6.10514 0.161133 5.55908 0.138753 5.12939 0.0939941 4.69971 0.049235 4.35506-0.0179036 4.09546-0.107422 3.83586-0.19694 3.65234-0.308838 3.54492-0.443115 3.4375-0.577393 3.38379-0.734049 3.38379-0.913086L3.38379-24.8145C3.38379-24.9935 3.4375-25.1501 3.54492-25.2844 3.65234-25.4187 3.83586-25.5351 4.09546-25.6335 4.35506-25.732 4.69971-25.8081 5.12939-25.8618 5.55908-25.9155 6.10514-25.9424 6.76758-25.9424 7.43001-25.9424 7.97607-25.9155 8.40576-25.8618 8.83545-25.8081 9.18009-25.732 9.4397-25.6335 9.6993-25.5351 9.88281-25.4187 9.99023-25.2844 10.0977-25.1501 10.1514-24.9935 10.1514-24.8145ZM10.6616-32.9785C10.6616-31.6178 10.3841-30.6779 9.8291-30.1587 9.27409-29.6395 8.24463-29.3799 6.74072-29.3799 5.21891-29.3799 4.19393-29.6305 3.66577-30.1318 3.13761-30.6331 2.87353-31.5373 2.87353-32.8442 2.87353-34.2049 3.14657-35.1493 3.69263-35.6775 4.23869-36.2056 5.27262-36.4697 6.79443-36.4697 8.29834-36.4697 9.31885-36.2146 9.85596-35.7043 10.3931-35.1941 10.6616-34.2855 10.6616-32.9785Z" fill="#D9D9D9" transform="matrix(1.15 0 0 1.15 45.0886 86)"/></g></g><text fill="#D9D9D9" font-family="Calibri,Calibri_MSFontService,sans-serif" font-weight="700" font-size="55" transform="matrix(1 0 0 1 2428.2 1056)">i</text></g><g clip-path="url(#clip68)"><g clip-path="url(#clip69)" filter="url(#fx10)" transform="translate(2468 981)"><g clip-path="url(#clip70)"><path d="M10.6616-0.107422C10.6616 1.77246 10.5005 3.29427 10.1782 4.45801 9.85596 5.62174 9.36808 6.60197 8.7146 7.39868 8.06112 8.19539 7.24202 8.79516 6.25732 9.198 5.27262 9.60083 4.11784 9.80224 2.79297 9.80225 2.05892 9.80224 1.43229 9.75301 0.913086 9.65454 0.39388 9.55607 0.0179036 9.45312-0.214844 9.3457-0.447591 9.23828-0.608724 9.104-0.698242 8.94287-0.78776 8.78174-0.850423 8.59822-0.88623 8.39233-0.922038 8.18644-0.948893 7.95369-0.966797 7.69409-0.9847 7.43449-0.993652 7.09879-0.993652 6.68701-0.993652 6.18571-0.980224 5.76945-0.953369 5.43823-0.926514 5.10701-0.877279 4.84294-0.805664 4.646-0.734049 4.44906-0.653483 4.30583-0.563965 4.21631-0.474447 4.12679-0.358073 4.08203-0.214844 4.08203-0.125326 4.08203 0.0581869 4.10441 0.335693 4.14917 0.6132 4.19393 0.913086 4.21631 1.23535 4.21631 1.70085 4.21631 2.10368 4.14469 2.44385 4.00146 2.78402 3.85824 3.06152 3.62996 3.27637 3.31665 3.49121 3.00334 3.65234 2.6005 3.75977 2.10815 3.86719 1.6158 3.9209 0.832519 3.9209-0.241699L3.9209-24.8145C3.9209-24.9935 3.97461-25.1501 4.08203-25.2844 4.18945-25.4187 4.36849-25.5351 4.61914-25.6335 4.86979-25.732 5.20996-25.8081 5.63965-25.8618 6.06934-25.9155 6.6154-25.9424 7.27783-25.9424 7.94027-25.9424 8.48633-25.9155 8.91601-25.8618 9.3457-25.8081 9.69035-25.732 9.94995-25.6335 10.2096-25.5351 10.3931-25.4187 10.5005-25.2844 10.6079-25.1501 10.6616-24.9935 10.6616-24.8145ZM11.1719-32.9785C11.1719-31.6178 10.8988-30.6779 10.3528-30.1587 9.80672-29.6395 8.77279-29.3799 7.25098-29.3799 5.74707-29.3799 4.72656-29.6305 4.18945-30.1318 3.65234-30.6331 3.38379-31.5373 3.38379-32.8442 3.38379-34.2049 3.6613-35.1493 4.21631-35.6775 4.77132-36.2056 5.80078-36.4697 7.30469-36.4697 8.8265-36.4697 9.85148-36.2146 10.3796-35.7043 10.9078-35.1941 11.1719-34.2855 11.1719-32.9785Z" fill="#D9D9D9" transform="matrix(1.15 0 0 1.15 45.9653 86)"/></g></g><text fill="#D9D9D9" font-family="Calibri,Calibri_MSFontService,sans-serif" font-weight="700" font-size="55" transform="matrix(1 0 0 1 2511.08 1056)">j</text></g><g clip-path="url(#clip71)"><g clip-path="url(#clip72)" filter="url(#fx11)" transform="translate(2545 981)"><g clip-path="url(#clip73)"><path d="M25.647-0.88623C25.647-0.707194 25.5977-0.550537 25.4993-0.41626 25.4008-0.281982 25.2218-0.174561 24.9622-0.0939941 24.7026-0.0134277 24.349 0.049235 23.9014 0.0939941 23.4538 0.138753 22.8719 0.161133 22.1558 0.161133 21.4217 0.161133 20.8264 0.143229 20.3699 0.107422 19.9133 0.0716146 19.5373 0.0134277 19.2419-0.0671387 18.9465-0.147705 18.7183-0.259603 18.5571-0.402832 18.396-0.546061 18.2528-0.734049 18.1274-0.966797L10.1514-13.5889 10.1514-0.913086C10.1514-0.734049 10.0977-0.577393 9.99023-0.443115 9.88281-0.308838 9.6993-0.19694 9.4397-0.107422 9.18009-0.0179036 8.83545 0.049235 8.40576 0.0939941 7.97607 0.138753 7.43001 0.161133 6.76758 0.161133 6.10514 0.161133 5.55908 0.138753 5.12939 0.0939941 4.69971 0.049235 4.35506-0.0179036 4.09546-0.107422 3.83586-0.19694 3.65234-0.308838 3.54492-0.443115 3.4375-0.577393 3.38379-0.734049 3.38379-0.913086L3.38379-36.228C3.38379-36.4071 3.4375-36.5682 3.54492-36.7114 3.65234-36.8547 3.83586-36.9755 4.09546-37.074 4.35506-37.1724 4.69971-37.2485 5.12939-37.3022 5.55908-37.356 6.10514-37.3828 6.76758-37.3828 7.43001-37.3828 7.97607-37.356 8.40576-37.3022 8.83545-37.2485 9.18009-37.1724 9.4397-37.074 9.6993-36.9755 9.88281-36.8547 9.99023-36.7114 10.0977-36.5682 10.1514-36.4071 10.1514-36.228L10.1514-15.2002 17.2412-24.7339C17.3844-24.9487 17.5456-25.1367 17.7246-25.2978 17.9036-25.459 18.1409-25.5843 18.4363-25.6738 18.7317-25.7633 19.0987-25.8305 19.5374-25.8752 19.976-25.92 20.5355-25.9424 21.2158-25.9424 21.8783-25.9424 22.4377-25.92 22.8943-25.8752 23.3508-25.8305 23.7179-25.7633 23.9954-25.6738 24.2729-25.5843 24.4653-25.4724 24.5728-25.3381 24.6802-25.2039 24.7339-25.0382 24.7339-24.8413 24.7339-24.5728 24.6667-24.2863 24.5325-23.9819 24.3982-23.6776 24.1968-23.3553 23.9282-23.0151L16.9189-15.0659 25.0293-2.52441C25.2441-2.16634 25.4008-1.8575 25.4993-1.5979 25.5977-1.3383 25.647-1.10107 25.647-0.88623Z" fill="#D9D9D9" transform="matrix(1.15 0 0 1.15 45.9409 86)"/></g></g><text fill="#D9D9D9" font-family="Calibri,Calibri_MSFontService,sans-serif" font-weight="700" font-size="55" transform="matrix(1 0 0 1 2588.06 1056)">k</text></g><g clip-path="url(#clip74)"><g clip-path="url(#clip75)" filter="url(#fx12)" transform="translate(2635 981)"><g clip-path="url(#clip76)"><path d="M10.1514-0.913086C10.1514-0.734049 10.0977-0.577393 9.99023-0.443115 9.88281-0.308838 9.6993-0.19694 9.4397-0.107422 9.18009-0.0179036 8.83545 0.049235 8.40576 0.0939941 7.97607 0.138753 7.43001 0.161133 6.76758 0.161133 6.10514 0.161133 5.55908 0.138753 5.12939 0.0939941 4.69971 0.049235 4.35506-0.0179036 4.09546-0.107422 3.83586-0.19694 3.65234-0.308838 3.54492-0.443115 3.4375-0.577393 3.38379-0.734049 3.38379-0.913086L3.38379-36.228C3.38379-36.4071 3.4375-36.5682 3.54492-36.7114 3.65234-36.8547 3.83586-36.9755 4.09546-37.074 4.35506-37.1724 4.69971-37.2485 5.12939-37.3022 5.55908-37.356 6.10514-37.3828 6.76758-37.3828 7.43001-37.3828 7.97607-37.356 8.40576-37.3022 8.83545-37.2485 9.18009-37.1724 9.4397-37.074 9.6993-36.9755 9.88281-36.8547 9.99023-36.7114 10.0977-36.5682 10.1514-36.4071 10.1514-36.228Z" fill="#D9D9D9" transform="matrix(1.15 0 0 1.15 45.5432 86)"/></g></g><text fill="#D9D9D9" font-family="Calibri,Calibri_MSFontService,sans-serif" font-weight="700" font-size="55" transform="matrix(1 0 0 1 2677.66 1056)">l</text></g><g clip-path="url(#clip77)"><g clip-path="url(#clip78)" filter="url(#fx13)" transform="translate(2703 981)"><g clip-path="url(#clip79)"><path d="M41.4917-0.913086C41.4917-0.734049 41.438-0.577393 41.3306-0.443115 41.2231-0.308838 41.0441-0.19694 40.7935-0.107422 40.5428-0.0179036 40.2026 0.049235 39.7729 0.0939941 39.3433 0.138753 38.7972 0.161133 38.1348 0.161133 37.4544 0.161133 36.8994 0.138753 36.4697 0.0939941 36.04 0.049235 35.6954-0.0179036 35.4358-0.107422 35.1762-0.19694 34.9971-0.308838 34.8987-0.443115 34.8002-0.577393 34.751-0.734049 34.751-0.913086L34.751-15.1196C34.751-15.9253 34.6749-16.6593 34.5227-17.3218 34.3705-17.9842 34.1378-18.5527 33.8245-19.0271 33.5111-19.5015 33.1173-19.8686 32.6428-20.1282 32.1684-20.3878 31.5999-20.5176 30.9375-20.5176 30.1318-20.5176 29.3172-20.2043 28.4937-19.5776 27.6701-18.951 26.7749-18.0379 25.8081-16.8384L25.8081-0.913086C25.8081-0.734049 25.7544-0.577393 25.647-0.443115 25.5395-0.308838 25.356-0.19694 25.0964-0.107422 24.8368-0.0179036 24.4922 0.049235 24.0625 0.0939941 23.6328 0.138753 23.0957 0.161133 22.4512 0.161133 21.7887 0.161133 21.2427 0.138753 20.813 0.0939941 20.3833 0.049235 20.0387-0.0179036 19.7791-0.107422 19.5194-0.19694 19.3359-0.308838 19.2285-0.443115 19.1211-0.577393 19.0674-0.734049 19.0674-0.913086L19.0674-15.1196C19.0674-15.9253 18.9913-16.6593 18.8391-17.3218 18.6869-17.9842 18.4587-18.5527 18.1543-19.0271 17.8499-19.5015 17.4561-19.8686 16.9727-20.1282 16.4893-20.3878 15.9253-20.5176 15.2808-20.5176 14.4572-20.5176 13.6336-20.2043 12.8101-19.5776 11.9865-18.951 11.1003-18.0379 10.1514-16.8384L10.1514-0.913086C10.1514-0.734049 10.0977-0.577393 9.99023-0.443115 9.88281-0.308838 9.6993-0.19694 9.4397-0.107422 9.18009-0.0179036 8.83545 0.049235 8.40576 0.0939941 7.97607 0.138753 7.43001 0.161133 6.76758 0.161133 6.10514 0.161133 5.55908 0.138753 5.12939 0.0939941 4.69971 0.049235 4.35506-0.0179036 4.09546-0.107422 3.83586-0.19694 3.65234-0.308838 3.54492-0.443115 3.4375-0.577393 3.38379-0.734049 3.38379-0.913086L3.38379-24.8682C3.38379-25.0472 3.42855-25.2039 3.51807-25.3381 3.60758-25.4724 3.76872-25.5843 4.00146-25.6738 4.23421-25.7633 4.5341-25.8305 4.90112-25.8752 5.26815-25.92 5.72917-25.9424 6.28418-25.9424 6.8571-25.9424 7.33154-25.92 7.70752-25.8752 8.0835-25.8305 8.37443-25.7633 8.58032-25.6738 8.78621-25.5843 8.93392-25.4724 9.02344-25.3381 9.11295-25.2039 9.15771-25.0472 9.15771-24.8682L9.15771-22.102C10.4826-23.5343 11.803-24.6086 13.1189-25.3247 14.4348-26.0408 15.8089-26.3989 17.2412-26.3989 18.2259-26.3989 19.1121-26.296 19.8999-26.0901 20.6877-25.8842 21.3904-25.5888 22.0081-25.2039 22.6257-24.8189 23.1584-24.3579 23.606-23.8208 24.0535-23.2837 24.4295-22.6839 24.7339-22.0215 25.45-22.7913 26.1527-23.4538 26.842-24.0088 27.5313-24.5638 28.2117-25.0159 28.8831-25.365 29.5544-25.7141 30.2258-25.9737 30.8972-26.1438 31.5686-26.3139 32.2534-26.3989 32.9517-26.3989 34.5451-26.3989 35.8879-26.1304 36.98-25.5933 38.0721-25.0561 38.9539-24.3266 39.6252-23.4045 40.2966-22.4825 40.7755-21.4038 41.062-20.1685 41.3485-18.9331 41.4917-17.6261 41.4917-16.2476Z" fill="#D9D9D9" transform="matrix(1.15 0 0 1.15 45.0774 86)"/></g></g><text fill="#D9D9D9" font-family="Calibri,Calibri_MSFontService,sans-serif" font-weight="700" font-size="55" transform="matrix(1 0 0 1 2745.19 1056)">m</text></g><g clip-path="url(#clip80)"><g clip-path="url(#clip81)" filter="url(#fx14)" transform="translate(2793 981)"><g clip-path="url(#clip82)"><path d="M26.2646-0.913086C26.2646-0.734049 26.2109-0.577393 26.1035-0.443115 25.9961-0.308838 25.8171-0.19694 25.5664-0.107422 25.3158-0.0179036 24.9711 0.049235 24.5325 0.0939941 24.0938 0.138753 23.5522 0.161133 22.9077 0.161133 22.2453 0.161133 21.6947 0.138753 21.2561 0.0939941 20.8175 0.049235 20.4728-0.0179036 20.2222-0.107422 19.9715-0.19694 19.7925-0.308838 19.6851-0.443115 19.5776-0.577393 19.5239-0.734049 19.5239-0.913086L19.5239-14.5825C19.5239-15.7463 19.4389-16.6593 19.2688-17.3218 19.0987-17.9842 18.8525-18.5527 18.5303-19.0271 18.208-19.5015 17.7917-19.8686 17.2815-20.1282 16.7712-20.3878 16.1759-20.5176 15.4956-20.5176 14.6362-20.5176 13.7679-20.2043 12.8906-19.5776 12.0133-18.951 11.1003-18.0379 10.1514-16.8384L10.1514-0.913086C10.1514-0.734049 10.0977-0.577393 9.99023-0.443115 9.88281-0.308838 9.6993-0.19694 9.4397-0.107422 9.18009-0.0179036 8.83545 0.049235 8.40576 0.0939941 7.97607 0.138753 7.43001 0.161133 6.76758 0.161133 6.10514 0.161133 5.55908 0.138753 5.12939 0.0939941 4.69971 0.049235 4.35506-0.0179036 4.09546-0.107422 3.83586-0.19694 3.65234-0.308838 3.54492-0.443115 3.4375-0.577393 3.38379-0.734049 3.38379-0.913086L3.38379-24.8682C3.38379-25.0472 3.42855-25.2039 3.51807-25.3381 3.60758-25.4724 3.76872-25.5843 4.00146-25.6738 4.23421-25.7633 4.5341-25.8305 4.90112-25.8752 5.26815-25.92 5.72917-25.9424 6.28418-25.9424 6.8571-25.9424 7.33154-25.92 7.70752-25.8752 8.0835-25.8305 8.37443-25.7633 8.58032-25.6738 8.78621-25.5843 8.93392-25.4724 9.02344-25.3381 9.11295-25.2039 9.15771-25.0472 9.15771-24.8682L9.15771-22.102C10.4826-23.5343 11.8298-24.6086 13.1995-25.3247 14.5691-26.0408 15.9969-26.3989 17.4829-26.3989 19.1121-26.3989 20.4862-26.1304 21.6052-25.5933 22.7242-25.0561 23.6283-24.3266 24.3176-23.4045 25.0069-22.4825 25.5037-21.4038 25.8081-20.1685 26.1125-18.9331 26.2646-17.4471 26.2646-15.7104Z" fill="#D9D9D9" transform="matrix(1.15 0 0 1.15 45.8372 86)"/></g></g><text fill="#D9D9D9" font-family="Calibri,Calibri_MSFontService,sans-serif" font-weight="700" font-size="55" transform="matrix(1 0 0 1 2835.95 1056)">n</text></g><g clip-path="url(#clip83)"><g clip-path="url(#clip84)" filter="url(#fx15)" transform="translate(2876 981)"><g clip-path="url(#clip85)"><path d="M27.6074-13.1323C27.6074-11.0913 27.3389-9.22933 26.8018-7.54639 26.2646-5.86344 25.45-4.41325 24.3579-3.1958 23.2658-1.97835 21.8962-1.03841 20.249-0.375977 18.6019 0.286458 16.6772 0.617676 14.4751 0.617676 12.3446 0.617676 10.4915 0.322266 8.91601-0.268555 7.34049-0.859375 6.03353-1.71875 4.99512-2.84668 3.95671-3.97461 3.18685-5.36214 2.68555-7.00928 2.18424-8.65641 1.93359-10.5363 1.93359-12.6489 1.93359-14.6899 2.20662-16.5564 2.75269-18.2483 3.29875-19.9402 4.11784-21.3904 5.20996-22.5989 6.30208-23.8074 7.66724-24.7428 9.30542-25.4053 10.9436-26.0677 12.8638-26.3989 15.0659-26.3989 17.2144-26.3989 19.0763-26.108 20.6519-25.5261 22.2274-24.9443 23.5299-24.0894 24.5593-22.9614 25.5888-21.8335 26.3542-20.446 26.8555-18.7988 27.3568-17.1517 27.6074-15.2629 27.6074-13.1323ZM20.6519-12.8638C20.6519-14.0454 20.5579-15.1331 20.3699-16.1267 20.1819-17.1204 19.8641-17.9842 19.4165-18.7183 18.9689-19.4523 18.3736-20.0252 17.6306-20.437 16.8876-20.8488 15.9521-21.0547 14.8242-21.0547 13.8216-21.0547 12.9443-20.8712 12.1924-20.5041 11.4404-20.1371 10.8228-19.6 10.3394-18.8928 9.85596-18.1856 9.49341-17.3352 9.25171-16.3416 9.01001-15.3479 8.88916-14.2155 8.88916-12.9443 8.88916-11.7627 8.98763-10.675 9.18457-9.6814 9.38151-8.68774 9.6993-7.82389 10.1379-7.08984 10.5766-6.35579 11.1719-5.78735 11.9238-5.38452 12.6758-4.98169 13.6068-4.78027 14.7168-4.78027 15.7373-4.78027 16.6235-4.96379 17.3755-5.33081 18.1274-5.69783 18.7451-6.23047 19.2285-6.92871 19.7119-7.62695 20.07-8.4729 20.3027-9.46655 20.5355-10.4602 20.6519-11.5926 20.6519-12.8638Z" fill="#D9D9D9" transform="matrix(1.15 0 0 1.15 45.9661 86)"/></g></g><text fill="#D9D9D9" font-family="Calibri,Calibri_MSFontService,sans-serif" font-weight="700" font-size="55" transform="matrix(1 0 0 1 2919.08 1056)">o</text></g><g clip-path="url(#clip86)"><g clip-path="url(#clip87)" filter="url(#fx16)" transform="translate(2960 981)"><g clip-path="url(#clip88)"><path d="M27.5-13.2397C27.5-11.1092 27.2717-9.18904 26.8152-7.47925 26.3586-5.76945 25.6917-4.31478 24.8145-3.11523 23.9372-1.91569 22.845-0.993652 21.5381-0.349121 20.2311 0.29541 18.7362 0.617676 17.0532 0.617676 16.355 0.617676 15.7149 0.550537 15.1331 0.41626 14.5512 0.281982 13.9872 0.0760905 13.4412-0.201416 12.8951-0.478922 12.3535-0.823568 11.8164-1.23535 11.2793-1.64714 10.7243-2.13053 10.1514-2.68555L10.1514 8.59375C10.1514 8.77279 10.0977 8.93392 9.99023 9.07715 9.88281 9.22038 9.6993 9.34123 9.4397 9.4397 9.18009 9.53817 8.83545 9.61426 8.40576 9.66797 7.97607 9.72168 7.43001 9.74853 6.76758 9.74853 6.10514 9.74853 5.55908 9.72168 5.12939 9.66797 4.69971 9.61426 4.35506 9.53817 4.09546 9.4397 3.83586 9.34123 3.65234 9.22038 3.54492 9.07715 3.4375 8.93392 3.38379 8.77279 3.38379 8.59375L3.38379-24.8682C3.38379-25.0472 3.42855-25.2039 3.51807-25.3381 3.60758-25.4724 3.76424-25.5843 3.98804-25.6738 4.21183-25.7633 4.50724-25.8305 4.87427-25.8752 5.24129-25.92 5.70231-25.9424 6.25732-25.9424 6.79443-25.9424 7.2465-25.92 7.61352-25.8752 7.98055-25.8305 8.27596-25.7633 8.49975-25.6738 8.72355-25.5843 8.88021-25.4724 8.96973-25.3381 9.05924-25.2039 9.104-25.0472 9.104-24.8682L9.104-22.0483C9.80225-22.7645 10.4871-23.3956 11.1584-23.9416 11.8298-24.4877 12.5146-24.9443 13.2129-25.3113 13.9111-25.6783 14.6318-25.9513 15.3748-26.1304 16.1178-26.3094 16.91-26.3989 17.7515-26.3989 19.506-26.3989 21.001-26.0543 22.2363-25.365 23.4717-24.6757 24.4788-23.7313 25.2576-22.5317 26.0364-21.3322 26.6048-19.9357 26.9629-18.3423 27.321-16.7489 27.5-15.048 27.5-13.2397ZM20.4639-12.7563C20.4639-13.7769 20.3878-14.7571 20.2356-15.697 20.0834-16.637 19.8238-17.474 19.4568-18.208 19.0898-18.9421 18.6064-19.5284 18.0066-19.967 17.4068-20.4057 16.6593-20.625 15.7642-20.625 15.3166-20.625 14.8735-20.5579 14.4348-20.4236 13.9962-20.2893 13.5486-20.07 13.092-19.7656 12.6355-19.4613 12.1655-19.0674 11.6821-18.584 11.1987-18.1006 10.6885-17.5008 10.1514-16.7847L10.1514-8.88916C11.1003-7.68962 12.0044-6.7631 12.8638-6.10962 13.7231-5.45614 14.6183-5.12939 15.5493-5.12939 16.4266-5.12939 17.1741-5.35319 17.7917-5.80078 18.4094-6.24837 18.9152-6.83472 19.3091-7.55981 19.703-8.28491 19.9939-9.104 20.1819-10.0171 20.3699-10.9302 20.4639-11.8433 20.4639-12.7563Z" fill="#D9D9D9" transform="matrix(1.15 0 0 1.15 45.1404 86)"/></g></g><text fill="#D9D9D9" font-family="Calibri,Calibri_MSFontService,sans-serif" font-weight="700" font-size="55" transform="matrix(1 0 0 1 3002.26 1056)">p</text></g><g clip-path="url(#clip89)"><g clip-path="url(#clip90)" filter="url(#fx17)" transform="translate(3043 981)"><g clip-path="url(#clip91)"><path d="M26.1035 8.59375C26.1035 8.77279 26.0498 8.93392 25.9424 9.07715 25.835 9.22038 25.6559 9.34123 25.4053 9.4397 25.1546 9.53817 24.8144 9.61426 24.3848 9.66797 23.9551 9.72168 23.409 9.74853 22.7466 9.74853 22.0841 9.74853 21.5381 9.72168 21.1084 9.66797 20.6787 9.61426 20.3341 9.53817 20.0745 9.4397 19.8149 9.34123 19.6358 9.22038 19.5374 9.07715 19.4389 8.93392 19.3896 8.77279 19.3896 8.59375L19.3896-2.79297C18.7451-2.20215 18.1185-1.68742 17.5098-1.24878 16.901-0.81014 16.2923-0.452067 15.6836-0.174561 15.0749 0.102946 14.4482 0.304362 13.8037 0.429687 13.1592 0.555013 12.4788 0.617676 11.7627 0.617676 10.0081 0.617676 8.51318 0.264079 7.27783-0.443115 6.04248-1.15031 5.0354-2.10368 4.25659-3.30322 3.47778-4.50277 2.90934-5.90373 2.55127-7.5061 2.1932-9.10848 2.01416-10.7959 2.01416-12.5684 2.01416-14.6989 2.24691-16.6146 2.7124-18.3154 3.1779-20.0163 3.85824-21.4665 4.75342-22.666 5.6486-23.8656 6.74967-24.7876 8.05664-25.4321 9.36361-26.0767 10.8765-26.3989 12.5952-26.3989 13.2576-26.3989 13.8932-26.3318 14.502-26.1975 15.1107-26.0632 15.7194-25.8305 16.3281-25.4993 16.9368-25.168 17.568-24.7384 18.2214-24.2102 18.8749-23.682 19.5955-23.033 20.3833-22.2632L20.3833-24.8682C20.3833-25.0472 20.4325-25.2039 20.531-25.3381 20.6295-25.4724 20.7906-25.5843 21.0144-25.6738 21.2382-25.7633 21.5291-25.8305 21.8872-25.8752 22.2453-25.92 22.7108-25.9424 23.2837-25.9424 23.8208-25.9424 24.2729-25.92 24.6399-25.8752 25.0069-25.8305 25.2978-25.7633 25.5127-25.6738 25.7275-25.5843 25.8797-25.4724 25.9692-25.3381 26.0588-25.2039 26.1035-25.0472 26.1035-24.8682ZM19.3896-16.9189C18.4228-18.1364 17.4963-19.0674 16.6101-19.7119 15.7239-20.3564 14.7974-20.6787 13.8306-20.6787 12.9533-20.6787 12.1969-20.4594 11.5613-20.0208 10.9257-19.5821 10.4154-18.9958 10.0305-18.2617 9.64559-17.5277 9.35913-16.7086 9.17114-15.8044 8.98315-14.9003 8.88916-13.9738 8.88916-13.0249 8.88916-12.0223 8.96973-11.0421 9.13086-10.0842 9.29199-9.12638 9.55607-8.28044 9.92309-7.54639 10.2901-6.81234 10.778-6.22152 11.3867-5.77393 11.9954-5.32633 12.7653-5.10254 13.6963-5.10254 14.1618-5.10254 14.6138-5.16968 15.0525-5.30395 15.4911-5.43823 15.9387-5.65755 16.3953-5.96191 16.8518-6.26628 17.3218-6.66463 17.8052-7.15698 18.2886-7.64933 18.8167-8.25358 19.3896-8.96973Z" fill="#D9D9D9" transform="matrix(1.15 0 0 1.15 45.2917 86)"/></g></g><text fill="#D9D9D9" font-family="Calibri,Calibri_MSFontService,sans-serif" font-weight="700" font-size="55" transform="matrix(1 0 0 1 3085.41 1056)">q</text></g><g clip-path="url(#clip92)"><g clip-path="url(#clip93)" filter="url(#fx18)" transform="translate(3131 981)"><g clip-path="url(#clip94)"><path d="M18.772-22.6392C18.772-21.9946 18.7541-21.4665 18.7183-21.0547 18.6825-20.6429 18.6287-20.3206 18.5571-20.0879 18.4855-19.8551 18.3915-19.694 18.2751-19.6045 18.1588-19.515 18.0111-19.4702 17.832-19.4702 17.6888-19.4702 17.5277-19.5015 17.3486-19.5642 17.1696-19.6269 16.9682-19.694 16.7444-19.7656 16.5206-19.8372 16.2744-19.9044 16.0059-19.967 15.7373-20.0297 15.4419-20.061 15.1196-20.061 14.7437-20.061 14.3677-19.9849 13.9917-19.8328 13.6157-19.6806 13.2263-19.4434 12.8235-19.1211 12.4207-18.7988 11.9999-18.3691 11.5613-17.832 11.1226-17.2949 10.6527-16.6325 10.1514-15.8447L10.1514-0.913086C10.1514-0.734049 10.0977-0.577393 9.99023-0.443115 9.88281-0.308838 9.6993-0.19694 9.4397-0.107422 9.18009-0.0179036 8.83545 0.049235 8.40576 0.0939941 7.97607 0.138753 7.43001 0.161133 6.76758 0.161133 6.10514 0.161133 5.55908 0.138753 5.12939 0.0939941 4.69971 0.049235 4.35506-0.0179036 4.09546-0.107422 3.83586-0.19694 3.65234-0.308838 3.54492-0.443115 3.4375-0.577393 3.38379-0.734049 3.38379-0.913086L3.38379-24.8682C3.38379-25.0472 3.42855-25.2039 3.51807-25.3381 3.60758-25.4724 3.76872-25.5843 4.00146-25.6738 4.23421-25.7633 4.5341-25.8305 4.90112-25.8752 5.26815-25.92 5.72917-25.9424 6.28418-25.9424 6.8571-25.9424 7.33154-25.92 7.70752-25.8752 8.0835-25.8305 8.37443-25.7633 8.58032-25.6738 8.78621-25.5843 8.93392-25.4724 9.02344-25.3381 9.11295-25.2039 9.15771-25.0472 9.15771-24.8682L9.15771-21.8872C9.78434-22.7824 10.3752-23.5209 10.9302-24.1028 11.4852-24.6847 12.0133-25.1457 12.5146-25.4858 13.0159-25.826 13.5173-26.0632 14.0186-26.1975 14.5199-26.3318 15.0212-26.3989 15.5225-26.3989 15.7552-26.3989 16.0059-26.3855 16.2744-26.3586 16.543-26.3318 16.8205-26.287 17.1069-26.2244 17.3934-26.1617 17.644-26.0901 17.8589-26.0095 18.0737-25.929 18.2304-25.8439 18.3289-25.7544 18.4273-25.6649 18.4989-25.5664 18.5437-25.459 18.5885-25.3516 18.6287-25.2039 18.6645-25.0159 18.7004-24.8279 18.7272-24.5459 18.7451-24.1699 18.763-23.7939 18.772-23.2837 18.772-22.6392Z" fill="#D9D9D9" transform="matrix(1.15 0 0 1.15 45.4277 86)"/></g></g><text fill="#D9D9D9" font-family="Calibri,Calibri_MSFontService,sans-serif" font-weight="700" font-size="55" transform="matrix(1 0 0 1 3173.54 1056)">r</text></g><g clip-path="url(#clip95)"><g clip-path="url(#clip96)" filter="url(#fx19)" transform="translate(3213 981)"><g clip-path="url(#clip97)"><path d="M20.249-7.68066C20.249-6.31999 19.9939-5.12044 19.4836-4.08203 18.9734-3.04362 18.2528-2.17529 17.3218-1.47705 16.3908-0.778808 15.2897-0.255127 14.0186 0.0939941 12.7474 0.443115 11.3688 0.617676 9.88281 0.617676 8.98763 0.617676 8.13273 0.550537 7.31811 0.41626 6.5035 0.281982 5.77392 0.111898 5.12939-0.0939941 4.48486-0.299886 3.94775-0.510254 3.51807-0.725098 3.08838-0.939941 2.77506-1.14136 2.57812-1.32935 2.38118-1.51733 2.229-1.81274 2.12158-2.21558 2.01416-2.61841 1.96045-3.2137 1.96045-4.00146 1.96045-4.52067 1.97835-4.93693 2.01416-5.25024 2.04997-5.56356 2.10368-5.81421 2.17529-6.0022 2.24691-6.19019 2.33643-6.31551 2.44385-6.37817 2.55127-6.44084 2.68555-6.47217 2.84668-6.47217 3.04362-6.47217 3.33455-6.36027 3.71948-6.13647 4.10441-5.91268 4.58333-5.6665 5.15625-5.39795 5.72917-5.12939 6.39608-4.87874 7.15698-4.646 7.91789-4.41325 8.78174-4.29687 9.74853-4.29687 10.3573-4.29687 10.8988-4.35954 11.3733-4.48486 11.8477-4.61019 12.2595-4.78922 12.6086-5.02197 12.9578-5.25472 13.2218-5.55013 13.4009-5.9082 13.5799-6.26628 13.6694-6.67806 13.6694-7.14355 13.6694-7.68066 13.5038-8.14168 13.1726-8.52661 12.8414-8.91154 12.4027-9.24723 11.8567-9.53369 11.3106-9.82015 10.693-10.0887 10.0037-10.3394 9.31437-10.59 8.60718-10.8675 7.88208-11.1719 7.15698-11.4762 6.44979-11.8254 5.7605-12.2192 5.07121-12.6131 4.45353-13.0965 3.90747-13.6694 3.36141-14.2423 2.92277-14.9316 2.59155-15.7373 2.26033-16.543 2.09473-17.5098 2.09473-18.6377 2.09473-19.7835 2.31852-20.8354 2.76611-21.7932 3.2137-22.7511 3.85824-23.5701 4.69971-24.2505 5.54118-24.9308 6.56616-25.459 7.77466-25.835 8.98315-26.2109 10.3394-26.3989 11.8433-26.3989 12.5952-26.3989 13.3248-26.3452 14.032-26.2378 14.7392-26.1304 15.3792-25.9961 15.9521-25.835 16.5251-25.6738 17.0085-25.4993 17.4023-25.3113 17.7962-25.1233 18.0782-24.9622 18.2483-24.8279 18.4184-24.6936 18.5392-24.5593 18.6108-24.425 18.6825-24.2908 18.7362-24.1296 18.772-23.9416 18.8078-23.7537 18.8391-23.5209 18.866-23.2434 18.8928-22.9659 18.9062-22.6213 18.9062-22.2095 18.9062-21.7261 18.8928-21.3322 18.866-21.0278 18.8391-20.7235 18.7943-20.4818 18.7317-20.3027 18.669-20.1237 18.584-20.0028 18.4766-19.9402 18.3691-19.8775 18.2438-19.8462 18.1006-19.8462 17.9395-19.8462 17.6888-19.9402 17.3486-20.1282 17.0085-20.3162 16.5833-20.5176 16.073-20.7324 15.5627-20.9473 14.9719-21.1487 14.3005-21.3367 13.6291-21.5247 12.8638-21.6186 12.0044-21.6187 11.3957-21.6186 10.8675-21.556 10.4199-21.4307 9.97233-21.3053 9.6053-21.1263 9.31885-20.8936 9.03239-20.6608 8.81754-20.3878 8.67432-20.0745 8.53109-19.7611 8.45947-19.4255 8.45947-19.0674 8.45947-18.5124 8.62956-18.0469 8.96973-17.6709 9.30989-17.2949 9.75749-16.9637 10.3125-16.6772 10.8675-16.3908 11.4986-16.1222 12.2058-15.8716 12.913-15.6209 13.6291-15.3479 14.3542-15.0525 15.0793-14.7571 15.7955-14.4124 16.5027-14.0186 17.2099-13.6247 17.841-13.1413 18.396-12.5684 18.951-11.9954 19.3986-11.3106 19.7388-10.5139 20.0789-9.7172 20.249-8.77279 20.249-7.68066Z" fill="#D9D9D9" transform="matrix(1.15 0 0 1.15 45.3875 86)"/></g></g><text fill="#D9D9D9" font-family="Calibri,Calibri_MSFontService,sans-serif" font-weight="700" font-size="55" transform="matrix(1 0 0 1 3255.5 1056)">s</text></g><g clip-path="url(#clip98)"><g clip-path="url(#clip99)" filter="url(#fx20)" transform="translate(3297 981)"><g clip-path="url(#clip100)"><path d="M17.5635-3.27637C17.5635-2.48861 17.5142-1.88436 17.4158-1.46362 17.3173-1.04289 17.1875-0.747477 17.0264-0.577393 16.8652-0.407308 16.628-0.255127 16.3147-0.12085 16.0014 0.0134277 15.6344 0.129801 15.2136 0.228271 14.7929 0.326741 14.3363 0.402832 13.844 0.456543 13.3516 0.510254 12.8548 0.537109 12.3535 0.537109 11.0107 0.537109 9.847 0.367025 8.8623 0.0268555 7.8776-0.313314 7.06299-0.836995 6.41846-1.54419 5.77392-2.25138 5.29948-3.14209 4.99512-4.21631 4.69075-5.29053 4.53857-6.56169 4.53857-8.02978L4.53857-20.3027 1.66504-20.3027C1.32487-20.3027 1.06527-20.5131 0.88623-20.9338 0.707194-21.3546 0.617676-22.0573 0.617676-23.042 0.617676-23.5612 0.640055-23.9998 0.684814-24.3579 0.729573-24.716 0.796712-24.998 0.88623-25.2039 0.975749-25.4097 1.08765-25.5575 1.22192-25.647 1.3562-25.7365 1.51286-25.7812 1.69189-25.7812L4.53857-25.7812 4.53857-31.1255C4.53857-31.3045 4.58781-31.4657 4.68628-31.6089 4.78475-31.7521 4.96379-31.873 5.22339-31.9714 5.48299-32.0699 5.83211-32.1415 6.27075-32.1863 6.70939-32.231 7.25098-32.2534 7.89551-32.2534 8.55794-32.2534 9.10848-32.231 9.54712-32.1863 9.98576-32.1415 10.3304-32.0699 10.5811-31.9714 10.8317-31.873 11.0107-31.7521 11.1182-31.6089 11.2256-31.4657 11.2793-31.3045 11.2793-31.1255L11.2793-25.7812 16.4893-25.7812C16.6683-25.7812 16.8249-25.7365 16.9592-25.647 17.0935-25.5575 17.2054-25.4097 17.2949-25.2039 17.3844-24.998 17.4516-24.716 17.4963-24.3579 17.5411-23.9998 17.5635-23.5612 17.5635-23.042 17.5635-22.0573 17.474-21.3546 17.2949-20.9338 17.1159-20.5131 16.8563-20.3027 16.5161-20.3027L11.2793-20.3027 11.2793-9.05029C11.2793-7.74333 11.4852-6.7631 11.897-6.10962 12.3088-5.45614 13.0428-5.12939 14.0991-5.12939 14.4572-5.12939 14.7795-5.16073 15.0659-5.22339 15.3524-5.28605 15.6075-5.35767 15.8313-5.43823 16.0551-5.5188 16.2431-5.59041 16.3953-5.65308 16.5474-5.71574 16.6862-5.74707 16.8115-5.74707 16.9189-5.74707 17.0219-5.71574 17.1204-5.65308 17.2188-5.59041 17.2949-5.46509 17.3486-5.2771 17.4023-5.08911 17.4516-4.83398 17.4963-4.51172 17.5411-4.18945 17.5635-3.77767 17.5635-3.27637Z" fill="#D9D9D9" transform="matrix(1.15 0 0 1.15 45.9712 86)"/></g></g><text fill="#D9D9D9" font-family="Calibri,Calibri_MSFontService,sans-serif" font-weight="700" font-size="55" transform="matrix(1 0 0 1 3340.09 1056)">t</text></g><g clip-path="url(#clip101)"><g clip-path="url(#clip102)" filter="url(#fx21)" transform="translate(3375 981)"><g clip-path="url(#clip103)"><path d="M26.1035-0.913086C26.1035-0.734049 26.0588-0.577393 25.9692-0.443115 25.8797-0.308838 25.7231-0.19694 25.4993-0.107422 25.2755-0.0179036 24.9801 0.049235 24.613 0.0939941 24.246 0.138753 23.785 0.161133 23.23 0.161133 22.6392 0.161133 22.1602 0.138753 21.7932 0.0939941 21.4262 0.049235 21.1353-0.0179036 20.9204-0.107422 20.7056-0.19694 20.5534-0.308838 20.4639-0.443115 20.3743-0.577393 20.3296-0.734049 20.3296-0.913086L20.3296-3.6792C19.0047-2.24691 17.6575-1.17269 16.2878-0.456543 14.9182 0.259603 13.4993 0.617676 12.0312 0.617676 10.3841 0.617676 9.00106 0.349121 7.88208-0.187988 6.7631-0.725098 5.85897-1.45915 5.16968-2.39014 4.48039-3.32113 3.98804-4.39982 3.69263-5.62622 3.39722-6.85262 3.24951-8.37891 3.24951-10.2051L3.24951-24.8682C3.24951-25.0472 3.29875-25.2039 3.39722-25.3381 3.49569-25.4724 3.67472-25.5843 3.93433-25.6738 4.19393-25.7633 4.54305-25.8305 4.98169-25.8752 5.42033-25.92 5.96191-25.9424 6.60644-25.9424 7.26888-25.9424 7.81494-25.92 8.24463-25.8752 8.67432-25.8305 9.01896-25.7633 9.27856-25.6738 9.53817-25.5843 9.72168-25.4724 9.8291-25.3381 9.93652-25.2039 9.99023-25.0472 9.99023-24.8682L9.99023-11.333C9.99023-10.0798 10.0708-9.12191 10.2319-8.45947 10.3931-7.79704 10.6392-7.2286 10.9705-6.75415 11.3017-6.2797 11.7224-5.91268 12.2327-5.65308 12.7429-5.39347 13.3382-5.26367 14.0186-5.26367 14.8779-5.26367 15.7418-5.57699 16.6101-6.20361 17.4784-6.83024 18.4049-7.74333 19.3896-8.94287L19.3896-24.8682C19.3896-25.0472 19.4389-25.2039 19.5374-25.3381 19.6358-25.4724 19.8149-25.5843 20.0745-25.6738 20.3341-25.7633 20.6787-25.8305 21.1084-25.8752 21.5381-25.92 22.0841-25.9424 22.7466-25.9424 23.409-25.9424 23.9551-25.92 24.3848-25.8752 24.8144-25.8305 25.1546-25.7633 25.4053-25.6738 25.6559-25.5843 25.835-25.4724 25.9424-25.3381 26.0498-25.2039 26.1035-25.0472 26.1035-24.8682Z" fill="#D9D9D9" transform="matrix(1.15 0 0 1.15 45.8979 86)"/></g></g><text fill="#D9D9D9" font-family="Calibri,Calibri_MSFontService,sans-serif" font-weight="700" font-size="55" transform="matrix(1 0 0 1 3418.01 1056)">u</text></g><g clip-path="url(#clip104)"><g clip-path="url(#clip105)" filter="url(#fx22)" transform="translate(3460 981)"><g clip-path="url(#clip106)"><path d="M25.4321-24.895C25.4321-24.8055 25.4277-24.6981 25.4187-24.5728 25.4097-24.4474 25.3918-24.3087 25.365-24.1565 25.3381-24.0043 25.3023-23.8298 25.2576-23.6328 25.2128-23.4359 25.1546-23.2121 25.083-22.9614L17.8857-1.28906C17.7962-0.9847 17.6754-0.738525 17.5232-0.550537 17.371-0.362549 17.1204-0.214844 16.7712-0.107422 16.4221-3.72529e-09 15.9477 0.0716146 15.3479 0.107422 14.7481 0.143229 13.9648 0.161133 12.998 0.161133 12.0492 0.161133 11.2748 0.138753 10.675 0.0939941 10.0753 0.049235 9.6053-0.0268555 9.26514-0.134277 8.92497-0.241699 8.67879-0.389404 8.52661-0.577393 8.37443-0.765381 8.25358-1.0026 8.16406-1.28906L0.966797-22.9614C0.859375-23.3195 0.774333-23.6418 0.71167-23.9282 0.649007-24.2147 0.6132-24.4206 0.604248-24.5459 0.595296-24.6712 0.59082-24.7876 0.59082-24.895 0.59082-25.0741 0.640055-25.2307 0.738525-25.365 0.836995-25.4993 1.01156-25.6112 1.26221-25.7007 1.51286-25.7902 1.8575-25.8529 2.29614-25.8887 2.73478-25.9245 3.28532-25.9424 3.94775-25.9424 4.6818-25.9424 5.27262-25.92 5.72021-25.8752 6.16781-25.8305 6.5214-25.7678 6.78101-25.6873 7.04061-25.6067 7.22412-25.4903 7.33154-25.3381 7.43896-25.186 7.52848-25.0024 7.6001-24.7876L13.0518-7.19727 13.2129-6.52588 13.374-7.19727 18.7451-24.7876C18.7988-25.0024 18.8839-25.186 19.0002-25.3381 19.1166-25.4903 19.3001-25.6067 19.5508-25.6873 19.8014-25.7678 20.1371-25.8305 20.5579-25.8752 20.9786-25.92 21.5291-25.9424 22.2095-25.9424 22.8719-25.9424 23.4135-25.9245 23.8342-25.8887 24.255-25.8529 24.5817-25.7902 24.8145-25.7007 25.0472-25.6112 25.2083-25.4993 25.2978-25.365 25.3874-25.2307 25.4321-25.0741 25.4321-24.895Z" fill="#D9D9D9" transform="matrix(1.15 0 0 1.15 45.791 86)"/></g></g><text fill="#D9D9D9" font-family="Calibri,Calibri_MSFontService,sans-serif" font-weight="700" font-size="55" transform="matrix(1 0 0 1 3502.91 1056)">v</text></g><g clip-path="url(#clip107)"><g clip-path="url(#clip108)" filter="url(#fx23)" transform="translate(3536 981)"><g clip-path="url(#clip109)"><path d="M40.0415-24.9219C40.0415-24.7249 40.0146-24.4832 39.9609-24.1968 39.9072-23.9103 39.8088-23.4985 39.6655-22.9614L33.2739-1.28906C33.1844-0.9847 33.068-0.738525 32.9248-0.550537 32.7816-0.362549 32.5623-0.214844 32.2668-0.107422 31.9714-3.72529e-09 31.5507 0.0716146 31.0046 0.107422 30.4586 0.143229 29.7469 0.161133 28.8696 0.161133 27.9923 0.161133 27.2762 0.138753 26.7212 0.0939941 26.1662 0.049235 25.732-0.0268555 25.4187-0.134277 25.1054-0.241699 24.8771-0.389404 24.7339-0.577393 24.5907-0.765381 24.4832-1.0026 24.4116-1.28906L20.3833-15.8447 20.3296-16.0864 20.2759-15.8447 16.5698-1.28906C16.4982-0.9847 16.3953-0.738525 16.261-0.550537 16.1267-0.362549 15.8984-0.214844 15.5762-0.107422 15.2539-3.72529e-09 14.8153 0.0716146 14.2603 0.107422 13.7052 0.143229 12.9891 0.161133 12.1118 0.161133 11.2166 0.161133 10.496 0.138753 9.94995 0.0939941 9.40389 0.049235 8.9742-0.0268555 8.66089-0.134277 8.34757-0.241699 8.1193-0.389404 7.97607-0.577393 7.83284-0.765381 7.72542-1.0026 7.65381-1.28906L1.31592-22.9614C1.15478-23.4806 1.05184-23.8879 1.00708-24.1833 0.962321-24.4788 0.939941-24.7249 0.939941-24.9219 0.939941-25.1009 0.989176-25.2576 1.08765-25.3918 1.18612-25.5261 1.36515-25.6335 1.62476-25.7141 1.88436-25.7947 2.23348-25.8529 2.67212-25.8887 3.11076-25.9245 3.6613-25.9424 4.32373-25.9424 5.03988-25.9424 5.62174-25.9245 6.06934-25.8887 6.51693-25.8529 6.86605-25.7902 7.1167-25.7007 7.36735-25.6112 7.54191-25.4903 7.64038-25.3381 7.73885-25.186 7.81494-25.0024 7.86865-24.7876L12.6221-7.19727 12.6758-6.875 12.7295-7.19727 17.1875-24.7876C17.2412-25.0024 17.3263-25.186 17.4426-25.3381 17.559-25.4903 17.7336-25.6112 17.9663-25.7007 18.1991-25.7902 18.5258-25.8529 18.9465-25.8887 19.3673-25.9245 19.9089-25.9424 20.5713-25.9424 21.2337-25.9424 21.7708-25.92 22.1826-25.8752 22.5944-25.8305 22.9211-25.7678 23.1628-25.6873 23.4045-25.6067 23.5746-25.4993 23.6731-25.365 23.7716-25.2307 23.8477-25.0741 23.9014-24.895L28.6816-7.17041 28.7622-6.875 28.8159-7.19727 33.3813-24.7876C33.4172-25.0024 33.4888-25.186 33.5962-25.3381 33.7036-25.4903 33.8826-25.6112 34.1333-25.7007 34.3839-25.7902 34.7241-25.8529 35.1538-25.8887 35.5835-25.9245 36.1296-25.9424 36.792-25.9424 37.4544-25.9424 37.996-25.9245 38.4167-25.8887 38.8375-25.8529 39.1687-25.7947 39.4104-25.7141 39.6521-25.6335 39.8177-25.5261 39.9072-25.3918 39.9967-25.2576 40.0415-25.1009 40.0415-24.9219Z" fill="#D9D9D9" transform="matrix(1.15 0 0 1.15 45.4717 86)"/></g></g><text fill="#D9D9D9" font-family="Calibri,Calibri_MSFontService,sans-serif" font-weight="700" font-size="55" transform="matrix(1 0 0 1 3578.59 1056)">w</text></g><g clip-path="url(#clip110)"><g clip-path="url(#clip111)" filter="url(#fx24)" transform="translate(3627 981)"><g clip-path="url(#clip112)"><path d="M24.1968-1.39648C24.34-1.09212 24.4071-0.841471 24.3982-0.644531 24.3892-0.447591 24.2594-0.286458 24.0088-0.161133 23.7581-0.0358073 23.3732 0.049235 22.854 0.0939941 22.3348 0.138753 21.6455 0.161133 20.7861 0.161133 19.9805 0.161133 19.3315 0.147705 18.8391 0.12085 18.3468 0.0939941 17.9618 0.0402832 17.6843-0.0402832 17.4068-0.12085 17.2009-0.21932 17.0666-0.335693 16.9324-0.452067 16.8294-0.599772 16.7578-0.778809L12.3267-9.29199 7.89551-0.778809C7.82389-0.599772 7.72542-0.452067 7.6001-0.335693 7.47477-0.21932 7.28231-0.12085 7.0227-0.0402832 6.7631 0.0402832 6.40055 0.0939941 5.93506 0.12085 5.46956 0.147705 4.86084 0.161133 4.10889 0.161133 3.32113 0.161133 2.6945 0.138753 2.229 0.0939941 1.76351 0.049235 1.42334-0.0358073 1.2085-0.161133 0.993652-0.286458 0.881755-0.447591 0.872803-0.644531 0.863851-0.841471 0.939941-1.09212 1.10107-1.39648L7.73437-13.186 1.61133-24.2505C1.4502-24.5728 1.36515-24.8458 1.3562-25.0696 1.34725-25.2934 1.45915-25.4679 1.69189-25.5933 1.92464-25.7186 2.29614-25.8081 2.8064-25.8618 3.31665-25.9155 4.01042-25.9424 4.88769-25.9424 5.67546-25.9424 6.30656-25.929 6.78101-25.9021 7.25545-25.8752 7.62695-25.835 7.89551-25.7812 8.16406-25.7275 8.361-25.6425 8.48633-25.5261 8.61165-25.4097 8.71907-25.262 8.80859-25.083L13.0786-17.0801 17.3218-25.083C17.3755-25.2262 17.4561-25.3516 17.5635-25.459 17.6709-25.5664 17.841-25.6559 18.0737-25.7275 18.3065-25.7992 18.6243-25.8529 19.0271-25.8887 19.4299-25.9245 19.9805-25.9424 20.6787-25.9424 21.4665-25.9424 22.0976-25.9245 22.572-25.8887 23.0465-25.8529 23.3866-25.7723 23.5925-25.647 23.7984-25.5216 23.8969-25.3471 23.8879-25.1233 23.879-24.8995 23.776-24.6086 23.5791-24.2505L17.6172-13.374Z" fill="#D9D9D9" transform="matrix(1.15 0 0 1.15 45.4724 86)"/></g></g><text fill="#D9D9D9" font-family="Calibri,Calibri_MSFontService,sans-serif" font-weight="700" font-size="55" transform="matrix(1 0 0 1 3669.59 1056)">x</text></g><g clip-path="url(#clip113)"><g clip-path="url(#clip114)" filter="url(#fx25)" transform="translate(3710 981)"><g clip-path="url(#clip115)"><path d="M17.2681 0 14.3677 8.48633C14.2065 8.93392 13.7679 9.25618 13.0518 9.45312 12.3356 9.65006 11.2882 9.74853 9.90967 9.74853 9.19352 9.74853 8.6206 9.7172 8.19092 9.65454 7.76123 9.59188 7.43896 9.48893 7.22412 9.3457 7.00928 9.20247 6.8929 9.02344 6.875 8.80859 6.8571 8.59375 6.91081 8.33415 7.03613 8.02978L10.2319 0C9.99918-0.107422 9.78882-0.273031 9.60083-0.496826 9.41284-0.720622 9.27409-0.957845 9.18457-1.2085L0.939941-23.23C0.707194-23.8566 0.59082-24.3355 0.59082-24.6667 0.59082-24.998 0.698242-25.2576 0.913086-25.4456 1.12793-25.6335 1.49048-25.7633 2.00073-25.835 2.51099-25.9066 3.18685-25.9424 4.02832-25.9424 4.79818-25.9424 5.4069-25.929 5.85449-25.9021 6.30208-25.8752 6.6512-25.8081 6.90185-25.7007 7.15251-25.5933 7.34049-25.4277 7.46582-25.2039 7.59115-24.9801 7.71647-24.6623 7.8418-24.2505L13.4814-8.21777 13.562-8.21777 18.7183-24.5728C18.8257-25.0382 18.9644-25.3471 19.1345-25.4993 19.3046-25.6514 19.5866-25.7633 19.9805-25.835 20.3743-25.9066 21.0636-25.9424 22.0483-25.9424 22.8182-25.9424 23.4583-25.9066 23.9685-25.835 24.4788-25.7633 24.8547-25.6291 25.0964-25.4321 25.3381-25.2352 25.459-24.9711 25.459-24.6399 25.459-24.3087 25.3874-23.9193 25.2441-23.4717Z" fill="#D9D9D9" transform="matrix(1.15 0 0 1.15 45.2341 86)"/></g></g><text fill="#D9D9D9" font-family="Calibri,Calibri_MSFontService,sans-serif" font-weight="700" font-size="55" transform="matrix(1 0 0 1 3752.35 1056)">y</text></g><g clip-path="url(#clip116)"><g clip-path="url(#clip117)" filter="url(#fx26)" transform="translate(3795 981)"><g clip-path="url(#clip118)"><path d="M20.1416-2.76611C20.1416-2.24691 20.1147-1.80379 20.061-1.43677 20.0073-1.06974 19.9357-0.778809 19.8462-0.563965 19.7567-0.349121 19.6403-0.201416 19.4971-0.12085 19.3538-0.0402832 19.1927 0 19.0137 0L3.35693 0C2.87353 0 2.50203-0.161133 2.24243-0.483398 1.98283-0.805664 1.85303-1.33382 1.85303-2.06787L1.85303-3.30322C1.85303-3.62549 1.86645-3.91642 1.89331-4.17602 1.92017-4.43563 1.97388-4.68628 2.05444-4.92798 2.13501-5.16968 2.24243-5.41585 2.37671-5.6665 2.51099-5.91715 2.68555-6.19466 2.90039-6.49902L11.8701-20.3564 3.38379-20.3564C3.04362-20.3564 2.77059-20.5713 2.5647-21.001 2.35881-21.4307 2.25586-22.12 2.25586-23.0688 2.25586-23.5881 2.27824-24.0222 2.323-24.3713 2.36776-24.7205 2.4349-24.998 2.52441-25.2039 2.61393-25.4097 2.73031-25.5575 2.87353-25.647 3.01676-25.7365 3.18685-25.7812 3.38379-25.7812L18.02-25.7812C18.2707-25.7812 18.4855-25.7544 18.6645-25.7007 18.8436-25.647 18.9913-25.5485 19.1077-25.4053 19.224-25.262 19.3136-25.0651 19.3762-24.8145 19.4389-24.5638 19.4702-24.2505 19.4702-23.8745L19.4702-22.5586C19.4702-22.2005 19.4523-21.8827 19.4165-21.6052 19.3807-21.3277 19.327-21.0636 19.2554-20.813 19.1838-20.5623 19.0808-20.3117 18.9465-20.061 18.8123-19.8104 18.6556-19.5418 18.4766-19.2554L9.56055-5.4248 19.0137-5.4248C19.1748-5.4248 19.327-5.389 19.4702-5.31738 19.6134-5.24577 19.7343-5.11149 19.8328-4.91455 19.9312-4.71761 20.0073-4.44458 20.061-4.09546 20.1147-3.74634 20.1416-3.30322 20.1416-2.76611Z" fill="#D9D9D9" transform="matrix(1.15 0 0 1.15 45.4827 86)"/></g></g><text fill="#D9D9D9" font-family="Calibri,Calibri_MSFontService,sans-serif" font-weight="700" font-size="55" transform="matrix(1 0 0 1 3837.6 1056)">z</text></g><g clip-path="url(#clip119)"><text fill="#F2F2F2" font-family="Calibri,Calibri_MSFontService,sans-serif" font-weight="700" font-size="73" transform="matrix(1 0 0 1 2383.21 268)">Frequency Difference</text></g><g clip-path="url(#clip120)"><text fill="#F2F2F2" font-family="Calibri,Calibri_MSFontService,sans-serif" font-weight="700" font-size="73" transform="matrix(1 0 0 1 2454.59 357)">Typeracer</text></g><g clip-path="url(#clip121)"><text fill="#F2F2F2" font-family="Calibri,Calibri_MSFontService,sans-serif" font-weight="700" font-size="73" transform="matrix(1 0 0 1 2795.23 357)">-</text></g><g clip-path="url(#clip122)"><text fill="#F2F2F2" font-family="Calibri,Calibri_MSFontService,sans-serif" font-weight="700" font-size="73" transform="matrix(1 0 0 1 2822.27 357)">Norvig</text></g></g></svg>