<svg width="1320" height="1320" xmlns="http://www.w3.org/2000/svg" xmlns:xlink="http://www.w3.org/1999/xlink" xml:space="preserve" overflow="hidden"><defs><filter id="fx0" x="-10%" y="-10%" width="120%" height="120%" filterUnits="userSpaceOnUse" primitiveUnits="userSpaceOnUse"><feComponentTransfer color-interpolation-filters="sRGB"><feFuncR type="discrete" tableValues="0 0"/><feFuncG type="discrete" tableValues="0 0"/><feFuncB type="discrete" tableValues="0 0"/><feFuncA type="linear" slope="0.631373" intercept="0"/></feComponentTransfer><feGaussianBlur stdDeviation="6.875 6.875"/></filter><clipPath id="clip1"><rect x="3407" y="959" width="1320" height="1320"/></clipPath><clipPath id="clip2"><rect x="3406" y="959" width="1320" height="1320"/></clipPath><clipPath id="clip3"><rect x="3477" y="1140" width="886" height="1036"/></clipPath><clipPath id="clip4"><rect x="-3" y="-3" width="711" height="1032"/></clipPath><clipPath id="clip5"><rect x="0" y="0" width="706" height="1027"/></clipPath><clipPath id="clip6"><rect x="3477" y="1140" width="886" height="1036"/></clipPath><clipPath id="clip7"><rect x="3406" y="959" width="1320" height="1320"/></clipPath><clipPath id="clip8"><rect x="3406" y="959" width="1320" height="1320"/></clipPath><clipPath id="clip9"><rect x="3406" y="959" width="1320" height="1320"/></clipPath><clipPath id="clip10"><rect x="3406" y="959" width="1320" height="1320"/></clipPath><clipPath id="clip11"><rect x="3406" y="959" width="1320" height="1320"/></clipPath><clipPath id="clip12"><rect x="3406" y="959" width="1320" height="1320"/></clipPath><clipPath id="clip13"><rect x="3406" y="959" width="1320" height="1320"/></clipPath><clipPath id="clip14"><rect x="3406" y="959" width="1320" height="1320"/></clipPath><clipPath id="clip15"><rect x="3406" y="959" width="1320" height="1320"/></clipPath><clipPath id="clip16"><rect x="3406" y="959" width="1320" height="1320"/></clipPath><clipPath id="clip17"><rect x="3406" y="959" width="1320" height="1320"/></clipPath><clipPath id="clip18"><rect x="3406" y="959" width="1320" height="1320"/></clipPath><clipPath id="clip19"><rect x="3406" y="959" width="1320" height="1320"/></clipPath><clipPath id="clip20"><rect x="3406" y="959" width="1320" height="1320"/></clipPath><clipPath id="clip21"><rect x="3406" y="959" width="1320" height="1320"/></clipPath><clipPath id="clip22"><rect x="3406" y="959" width="1320" height="1320"/></clipPath><clipPath id="clip23"><rect x="3406" y="959" width="1320" height="1320"/></clipPath><clipPath id="clip24"><rect x="3406" y="959" width="1320" height="1320"/></clipPath></defs><g clip-path="url(#clip1)" transform="translate(-3407 -959)"><rect x="3407" y="959" width="1320" height="1320" fill="#404040"/><g clip-path="url(#clip2)"><path d="M4360.5 1140.5 4360.5 2172.5M4139.64 1140.5 4139.64 2172.5M3918.63 1140.5 3918.63 2172.5M3698.62 1140.5 3698.62 2172.5M3477.5 1140.5 3477.5 2172.5" stroke="#F2F2F2" stroke-width="3.4375" stroke-linejoin="round" stroke-miterlimit="10" stroke-opacity="0.101961" fill="none"/></g><g clip-path="url(#clip3)"><g clip-path="url(#clip4)" filter="url(#fx0)" transform="translate(3676 1150)"><g clip-path="url(#clip5)"><path d="M22.1213 1004.95 684.143 1004.95 684.143 960.944 22.1213 960.944ZM169.126 910.942 684.143 910.942 684.143 866.941 169.126 866.941ZM169.126 816.939 684.143 816.939 684.143 772.938 169.126 772.938ZM169.126 722.936 684.143 722.936 684.143 678.935 169.126 678.935ZM169.126 628.933 684.143 628.933 684.143 584.932 169.126 584.932ZM169.126 534.93 684.143 534.93 684.143 491.929 169.126 491.929ZM169.126 440.927 684.143 440.927 684.143 397.926 169.126 397.926ZM169.126 347.924 684.143 347.924 684.143 303.922 169.126 303.922ZM243.129 253.921 684.143 253.921 684.143 209.919 243.129 209.919ZM243.129 159.918 684.143 159.918 684.143 115.916 243.129 115.916ZM395.133 65.9147 684.143 65.9147 684.143 21.9132 395.133 21.9132Z" fill="#2D9DFF"/></g></g></g><g clip-path="url(#clip6)"><path d="M3698.12 2148.07 4360.14 2148.07 4360.14 2104.07 3698.12 2104.07ZM3845.13 2054.07 4360.14 2054.07 4360.14 2010.07 3845.13 2010.07ZM3845.13 1960.06 4360.14 1960.06 4360.14 1916.06 3845.13 1916.06ZM3845.13 1866.06 4360.14 1866.06 4360.14 1822.06 3845.13 1822.06ZM3845.13 1772.06 4360.14 1772.06 4360.14 1728.06 3845.13 1728.06ZM3845.13 1678.06 4360.14 1678.06 4360.14 1635.05 3845.13 1635.05ZM3845.13 1584.05 4360.14 1584.05 4360.14 1541.05 3845.13 1541.05ZM3845.13 1491.05 4360.14 1491.05 4360.14 1447.05 3845.13 1447.05ZM3919.13 1397.05 4360.14 1397.05 4360.14 1353.04 3919.13 1353.04ZM3919.13 1303.04 4360.14 1303.04 4360.14 1259.04 3919.13 1259.04ZM4071.13 1209.04 4360.14 1209.04 4360.14 1165.04 4071.13 1165.04Z" fill="#2D9DFF"/></g><g clip-path="url(#clip7)"><text fill="#D9D9D9" font-family="Calibri,Calibri_MSFontService,sans-serif" font-weight="400" font-size="41" transform="matrix(1 0 0 1 3991.78 1201)">3.9</text></g><g clip-path="url(#clip8)"><text fill="#D9D9D9" font-family="Calibri,Calibri_MSFontService,sans-serif" font-weight="400" font-size="41" transform="matrix(1 0 0 1 4349.8 2238)">0</text></g><g clip-path="url(#clip9)"><text fill="#D9D9D9" font-family="Calibri,Calibri_MSFontService,sans-serif" font-weight="400" font-size="41" transform="matrix(1 0 0 1 4129.2 2238)">3</text></g><g clip-path="url(#clip10)"><text fill="#D9D9D9" font-family="Calibri,Calibri_MSFontService,sans-serif" font-weight="400" font-size="41" transform="matrix(1 0 0 1 3908.61 2238)">6</text></g><g clip-path="url(#clip11)"><text fill="#D9D9D9" font-family="Calibri,Calibri_MSFontService,sans-serif" font-weight="400" font-size="41" transform="matrix(1 0 0 1 3688.02 2238)">9</text></g><g clip-path="url(#clip12)"><text fill="#D9D9D9" font-family="Calibri,Calibri_MSFontService,sans-serif" font-weight="400" font-size="41" transform="matrix(1 0 0 1 3456.98 2238)">12</text></g><g clip-path="url(#clip13)"><text fill="#FFFFFF" font-family="Calibri,Calibri_MSFontService,sans-serif" font-weight="400" font-size="48" transform="matrix(1 0 0 1 4404.9 2140)">hillbilly</text></g><g clip-path="url(#clip14)"><text fill="#FFFFFF" font-family="Calibri,Calibri_MSFontService,sans-serif" font-weight="400" font-size="48" transform="matrix(1 0 0 1 4404.9 2046)">billion</text></g><g clip-path="url(#clip15)"><text fill="#FFFFFF" font-family="Calibri,Calibri_MSFontService,sans-serif" font-weight="400" font-size="48" transform="matrix(1 0 0 1 4404.9 1952)">million</text></g><g clip-path="url(#clip16)"><text fill="#FFFFFF" font-family="Calibri,Calibri_MSFontService,sans-serif" font-weight="400" font-size="48" transform="matrix(1 0 0 1 4404.9 1858)">opinion</text></g><g clip-path="url(#clip17)"><text fill="#FFFFFF" font-family="Calibri,Calibri_MSFontService,sans-serif" font-weight="400" font-size="48" transform="matrix(1 0 0 1 4404.9 1764)">pumpkin</text></g><g clip-path="url(#clip18)"><text fill="#FFFFFF" font-family="Calibri,Calibri_MSFontService,sans-serif" font-weight="400" font-size="48" transform="matrix(1 0 0 1 4404.9 1670)">minimum</text></g><g clip-path="url(#clip19)"><text fill="#FFFFFF" font-family="Calibri,Calibri_MSFontService,sans-serif" font-weight="400" font-size="48" transform="matrix(1 0 0 1 4404.9 1577)">bumpkin</text></g><g clip-path="url(#clip20)"><text fill="#FFFFFF" font-family="Calibri,Calibri_MSFontService,sans-serif" font-weight="400" font-size="48" transform="matrix(1 0 0 1 4404.9 1483)">ponyboy</text></g><g clip-path="url(#clip21)"><text fill="#FFFFFF" font-family="Calibri,Calibri_MSFontService,sans-serif" font-weight="400" font-size="48" transform="matrix(1 0 0 1 4404.9 1389)">moulin</text></g><g clip-path="url(#clip22)"><text fill="#FFFFFF" font-family="Calibri,Calibri_MSFontService,sans-serif" font-weight="400" font-size="48" transform="matrix(1 0 0 1 4404.9 1295)">humbly</text></g><g clip-path="url(#clip23)"><text fill="#FFFFFF" font-family="Calibri,Calibri_MSFontService,sans-serif" font-weight="400" font-size="48" transform="matrix(1 0 0 1 4404.9 1201)">Average (right)</text></g><g clip-path="url(#clip24)"><text fill="#F2F2F2" font-family="Calibri,Calibri_MSFontService,sans-serif" font-weight="700" font-size="73" transform="matrix(1 0 0 1 3711.71 1063)">Longest Right Words</text></g></g></svg>