<svg width="2166" height="1299" xmlns="http://www.w3.org/2000/svg" xmlns:xlink="http://www.w3.org/1999/xlink" xml:space="preserve" overflow="hidden"><defs><filter id="fx0" x="-10%" y="-10%" width="120%" height="120%" filterUnits="userSpaceOnUse" primitiveUnits="userSpaceOnUse"><feComponentTransfer color-interpolation-filters="sRGB"><feFuncR type="discrete" tableValues="0 0"/><feFuncG type="discrete" tableValues="0 0"/><feFuncB type="discrete" tableValues="0 0"/><feFuncA type="linear" slope="0.631373" intercept="0"/></feComponentTransfer><feGaussianBlur stdDeviation="6.875 6.875"/></filter><clipPath id="clip1"><rect x="1505" y="583" width="2166" height="1299"/></clipPath><clipPath id="clip2"><rect x="1505" y="582" width="2166" height="1300"/></clipPath><clipPath id="clip3"><rect x="2155" y="763" width="1448" height="1016"/></clipPath><clipPath id="clip4"><rect x="-3" y="-3" width="1359" height="1017"/></clipPath><clipPath id="clip5"><rect x="0" y="0" width="1352" height="1011"/></clipPath><clipPath id="clip6"><rect x="2155" y="763" width="1448" height="1016"/></clipPath><clipPath id="clip7"><rect x="1505" y="582" width="2166" height="1300"/></clipPath><clipPath id="clip8"><rect x="1505" y="582" width="2166" height="1300"/></clipPath><clipPath id="clip9"><rect x="1505" y="582" width="2166" height="1300"/></clipPath><clipPath id="clip10"><rect x="1505" y="582" width="2166" height="1300"/></clipPath><clipPath id="clip11"><rect x="1505" y="582" width="2166" height="1300"/></clipPath><clipPath id="clip12"><rect x="1505" y="582" width="2166" height="1300"/></clipPath><clipPath id="clip13"><rect x="1505" y="582" width="2166" height="1300"/></clipPath><clipPath id="clip14"><rect x="1505" y="582" width="2166" height="1300"/></clipPath><clipPath id="clip15"><rect x="1505" y="582" width="2166" height="1300"/></clipPath><clipPath id="clip16"><rect x="1505" y="582" width="2166" height="1300"/></clipPath><clipPath id="clip17"><rect x="1505" y="582" width="2166" height="1300"/></clipPath><clipPath id="clip18"><rect x="1505" y="582" width="2166" height="1300"/></clipPath><clipPath id="clip19"><rect x="1505" y="582" width="2166" height="1300"/></clipPath><clipPath id="clip20"><rect x="1505" y="582" width="2166" height="1300"/></clipPath><clipPath id="clip21"><rect x="1505" y="582" width="2166" height="1300"/></clipPath><clipPath id="clip22"><rect x="1505" y="582" width="2166" height="1300"/></clipPath><clipPath id="clip23"><rect x="1505" y="582" width="2166" height="1300"/></clipPath><clipPath id="clip24"><rect x="1505" y="582" width="2166" height="1300"/></clipPath><clipPath id="clip25"><rect x="1505" y="582" width="2166" height="1300"/></clipPath><clipPath id="clip26"><rect x="1505" y="582" width="2166" height="1300"/></clipPath><clipPath id="clip27"><rect x="1505" y="582" width="2166" height="1300"/></clipPath><clipPath id="clip28"><rect x="1505" y="582" width="2166" height="1300"/></clipPath><clipPath id="clip29"><rect x="1505" y="582" width="2166" height="1300"/></clipPath><clipPath id="clip30"><rect x="1505" y="582" width="2166" height="1300"/></clipPath></defs><g clip-path="url(#clip1)" transform="translate(-1505 -583)"><rect x="1506" y="583" width="2165" height="1299" fill="#404040"/><g clip-path="url(#clip2)"><path d="M2155.5 763.5 2155.5 1775.5M2335.58 763.5 2335.58 1775.5M2516.58 763.5 2516.58 1775.5M2697.59 763.5 2697.59 1775.5M2877.59 763.5 2877.59 1775.5M3058.6 763.5 3058.6 1775.5M3238.61 763.5 3238.61 1775.5M3419.61 763.5 3419.61 1775.5M3599.5 763.5 3599.5 1775.5" stroke="#F2F2F2" stroke-width="3.4375" stroke-linejoin="round" stroke-miterlimit="10" stroke-opacity="0.101961" fill="none"/></g><g clip-path="url(#clip3)"><g clip-path="url(#clip4)" filter="url(#fx0)" transform="translate(2134 771)"><g clip-path="url(#clip5)"><path d="M1330.11 988.933 21 988.933 21 949.931 1330.11 949.931ZM1285.11 904.93 21 904.93 21 865.928 1285.11 865.928ZM924.1 819.927 21 819.927 21 780.926 924.1 780.926ZM834.097 735.924 21 735.924 21 696.923 834.097 696.923ZM789.096 651.921 21 651.921 21 612.92 789.096 612.92ZM789.096 566.919 21 566.919 21 527.917 789.096 527.917ZM789.096 482.916 21 482.916 21 443.915 789.096 443.915ZM744.094 398.913 21 398.913 21 359.912 744.094 359.912ZM744.094 314.91 21 314.91 21 274.909 744.094 274.909ZM744.094 229.908 21 229.908 21 190.906 744.094 190.906ZM343.081 145.905 21 145.905 21 106.904 343.081 106.904ZM210.077 61.9021 21 61.9021 21 21.9008 210.077 21.9008Z" fill="#2D9DFF"/></g></g></g><g clip-path="url(#clip6)"><path d="M3464.11 1753.06 2155 1753.06 2155 1714.06 3464.11 1714.06ZM3419.11 1669.05 2155 1669.05 2155 1630.05 3419.11 1630.05ZM3058.1 1584.05 2155 1584.05 2155 1545.05 3058.1 1545.05ZM2968.1 1500.05 2155 1500.05 2155 1461.05 2968.1 1461.05ZM2923.1 1416.05 2155 1416.05 2155 1377.05 2923.1 1377.05ZM2923.1 1331.04 2155 1331.04 2155 1292.04 2923.1 1292.04ZM2923.1 1247.04 2155 1247.04 2155 1208.04 2923.1 1208.04ZM2878.09 1163.04 2155 1163.04 2155 1124.04 2878.09 1124.04ZM2878.09 1079.04 2155 1079.04 2155 1039.03 2878.09 1039.03ZM2878.09 994.033 2155 994.033 2155 955.031 2878.09 955.031ZM2477.08 910.03 2155 910.03 2155 871.029 2477.08 871.029ZM2344.08 826.027 2155 826.027 2155 786.026 2344.08 786.026Z" fill="#2D9DFF"/></g><g clip-path="url(#clip7)"><text fill="#D9D9D9" font-family="Calibri,Calibri_MSFontService,sans-serif" font-weight="400" font-size="41" transform="matrix(1 0 0 1 2504.46 904)">7.1</text></g><g clip-path="url(#clip8)"><text fill="#D9D9D9" font-family="Calibri,Calibri_MSFontService,sans-serif" font-weight="400" font-size="41" transform="matrix(1 0 0 1 2371.92 820)">4.2</text></g><g clip-path="url(#clip9)"><text fill="#D9D9D9" font-family="Calibri,Calibri_MSFontService,sans-serif" font-weight="400" font-size="41" transform="matrix(1 0 0 1 2144.95 1841)">0</text></g><g clip-path="url(#clip10)"><text fill="#D9D9D9" font-family="Calibri,Calibri_MSFontService,sans-serif" font-weight="400" font-size="41" transform="matrix(1 0 0 1 2325.52 1841)">4</text></g><g clip-path="url(#clip11)"><text fill="#D9D9D9" font-family="Calibri,Calibri_MSFontService,sans-serif" font-weight="400" font-size="41" transform="matrix(1 0 0 1 2506.08 1841)">8</text></g><g clip-path="url(#clip12)"><text fill="#D9D9D9" font-family="Calibri,Calibri_MSFontService,sans-serif" font-weight="400" font-size="41" transform="matrix(1 0 0 1 2676.2 1841)">12</text></g><g clip-path="url(#clip13)"><text fill="#D9D9D9" font-family="Calibri,Calibri_MSFontService,sans-serif" font-weight="400" font-size="41" transform="matrix(1 0 0 1 2856.77 1841)">16</text></g><g clip-path="url(#clip14)"><text fill="#D9D9D9" font-family="Calibri,Calibri_MSFontService,sans-serif" font-weight="400" font-size="41" transform="matrix(1 0 0 1 3037.33 1841)">20</text></g><g clip-path="url(#clip15)"><text fill="#D9D9D9" font-family="Calibri,Calibri_MSFontService,sans-serif" font-weight="400" font-size="41" transform="matrix(1 0 0 1 3217.9 1841)">24</text></g><g clip-path="url(#clip16)"><text fill="#D9D9D9" font-family="Calibri,Calibri_MSFontService,sans-serif" font-weight="400" font-size="41" transform="matrix(1 0 0 1 3398.47 1841)">28</text></g><g clip-path="url(#clip17)"><text fill="#D9D9D9" font-family="Calibri,Calibri_MSFontService,sans-serif" font-weight="400" font-size="41" transform="matrix(1 0 0 1 3579.03 1841)">32</text></g><g clip-path="url(#clip18)"><text fill="#FFFFFF" font-family="Calibri,Calibri_MSFontService,sans-serif" font-weight="400" font-size="48" transform="matrix(1 0 0 1 1602.79 1748)">floccinaucinihilipilification</text></g><g clip-path="url(#clip19)"><text fill="#FFFFFF" font-family="Calibri,Calibri_MSFontService,sans-serif" font-weight="400" font-size="48" transform="matrix(1 0 0 1 1535.42 1663)">antidisestablishmentarianism</text></g><g clip-path="url(#clip20)"><text fill="#FFFFFF" font-family="Calibri,Calibri_MSFontService,sans-serif" font-weight="400" font-size="48" transform="matrix(1 0 0 1 1623.51 1579)">7976931348623157e308</text></g><g clip-path="url(#clip21)"><text fill="#FFFFFF" font-family="Calibri,Calibri_MSFontService,sans-serif" font-weight="400" font-size="48" transform="matrix(1 0 0 1 1765.73 1495)">interrelationships</text></g><g clip-path="url(#clip22)"><text fill="#FFFFFF" font-family="Calibri,Calibri_MSFontService,sans-serif" font-weight="400" font-size="48" transform="matrix(1 0 0 1 1739.56 1410)">misunderstandings</text></g><g clip-path="url(#clip23)"><text fill="#FFFFFF" font-family="Calibri,Calibri_MSFontService,sans-serif" font-weight="400" font-size="48" transform="matrix(1 0 0 1 1738.69 1326)">nonphotosynthetic</text></g><g clip-path="url(#clip24)"><text fill="#FFFFFF" font-family="Calibri,Calibri_MSFontService,sans-serif" font-weight="400" font-size="48" transform="matrix(1 0 0 1 1795.87 1242)">institutionalized</text></g><g clip-path="url(#clip25)"><text fill="#FFFFFF" font-family="Calibri,Calibri_MSFontService,sans-serif" font-weight="400" font-size="48" transform="matrix(1 0 0 1 1758.37 1157)">misunderstanding</text></g><g clip-path="url(#clip26)"><text fill="#FFFFFF" font-family="Calibri,Calibri_MSFontService,sans-serif" font-weight="400" font-size="48" transform="matrix(1 0 0 1 1815.6 1073)">extraterrestrial</text></g><g clip-path="url(#clip27)"><text fill="#FFFFFF" font-family="Calibri,Calibri_MSFontService,sans-serif" font-weight="400" font-size="48" transform="matrix(1 0 0 1 1808.68 989)">enthusiastically</text></g><g clip-path="url(#clip28)"><text fill="#FFFFFF" font-family="Calibri,Calibri_MSFontService,sans-serif" font-weight="400" font-size="48" transform="matrix(1 0 0 1 1629.1 904)">Average (Unique Words)</text></g><g clip-path="url(#clip29)"><text fill="#FFFFFF" font-family="Calibri,Calibri_MSFontService,sans-serif" font-weight="400" font-size="48" transform="matrix(1 0 0 1 1720.86 820)">Average (All Words)</text></g><g clip-path="url(#clip30)"><text fill="#F2F2F2" font-family="Calibri,Calibri_MSFontService,sans-serif" font-weight="700" font-size="73" transform="matrix(1 0 0 1 2334.69 687)">Longest Words</text></g></g></svg>