<svg width="1320" height="1319" xmlns="http://www.w3.org/2000/svg" xmlns:xlink="http://www.w3.org/1999/xlink" xml:space="preserve" overflow="hidden"><defs><filter id="fx0" x="-10%" y="-10%" width="120%" height="120%" filterUnits="userSpaceOnUse" primitiveUnits="userSpaceOnUse"><feComponentTransfer color-interpolation-filters="sRGB"><feFuncR type="discrete" tableValues="0 0"/><feFuncG type="discrete" tableValues="0 0"/><feFuncB type="discrete" tableValues="0 0"/><feFuncA type="linear" slope="0.631373" intercept="0"/></feComponentTransfer><feGaussianBlur stdDeviation="6.875 6.875"/></filter><clipPath id="clip1"><rect x="1956" y="963" width="1320" height="1319"/></clipPath><clipPath id="clip2"><rect x="1955" y="962" width="1320" height="1320"/></clipPath><clipPath id="clip3"><rect x="2296" y="1143" width="912" height="1036"/></clipPath><clipPath id="clip4"><rect x="-3" y="-3" width="807" height="1032"/></clipPath><clipPath id="clip5"><rect x="0" y="0" width="800" height="1026"/></clipPath><clipPath id="clip6"><rect x="2296" y="1143" width="912" height="1036"/></clipPath><clipPath id="clip7"><rect x="1955" y="962" width="1320" height="1320"/></clipPath><clipPath id="clip8"><rect x="1955" y="962" width="1320" height="1320"/></clipPath><clipPath id="clip9"><rect x="1955" y="962" width="1320" height="1320"/></clipPath><clipPath id="clip10"><rect x="1955" y="962" width="1320" height="1320"/></clipPath><clipPath id="clip11"><rect x="1955" y="962" width="1320" height="1320"/></clipPath><clipPath id="clip12"><rect x="1955" y="962" width="1320" height="1320"/></clipPath><clipPath id="clip13"><rect x="1955" y="962" width="1320" height="1320"/></clipPath><clipPath id="clip14"><rect x="1955" y="962" width="1320" height="1320"/></clipPath><clipPath id="clip15"><rect x="1955" y="962" width="1320" height="1320"/></clipPath><clipPath id="clip16"><rect x="1955" y="962" width="1320" height="1320"/></clipPath><clipPath id="clip17"><rect x="1955" y="962" width="1320" height="1320"/></clipPath><clipPath id="clip18"><rect x="1955" y="962" width="1320" height="1320"/></clipPath><clipPath id="clip19"><rect x="1955" y="962" width="1320" height="1320"/></clipPath><clipPath id="clip20"><rect x="1955" y="962" width="1320" height="1320"/></clipPath><clipPath id="clip21"><rect x="1955" y="962" width="1320" height="1320"/></clipPath><clipPath id="clip22"><rect x="1955" y="962" width="1320" height="1320"/></clipPath><clipPath id="clip23"><rect x="1955" y="962" width="1320" height="1320"/></clipPath><clipPath id="clip24"><rect x="1955" y="962" width="1320" height="1320"/></clipPath></defs><g clip-path="url(#clip1)" transform="translate(-1956 -963)"><rect x="1956" y="963" width="1320" height="1319" fill="#404040"/><g clip-path="url(#clip2)"><path d="M2296.5 1143.5 2296.5 2176.5M2523.58 1143.5 2523.58 2176.5M2750.59 1143.5 2750.59 2176.5M2977.6 1143.5 2977.6 2176.5M3204.5 1143.5 3204.5 2176.5" stroke="#F2F2F2" stroke-width="3.4375" stroke-linejoin="round" stroke-miterlimit="10" stroke-opacity="0.101961" fill="none"/></g><g clip-path="url(#clip3)"><g clip-path="url(#clip4)" filter="url(#fx0)" transform="translate(2275 1154)"><g clip-path="url(#clip5)"><path d="M778.1 1003.95 21 1003.95 21 959.944 778.1 959.944ZM778.1 909.943 21 909.943 21 865.941 778.1 865.941ZM778.1 815.939 21 815.939 21 772.938 778.1 772.938ZM778.1 721.936 21 721.936 21 678.935 778.1 678.935ZM778.1 628.933 21 628.933 21 584.932 778.1 584.932ZM702.098 534.93 21 534.93 21 490.929 702.098 490.929ZM702.098 440.927 21 440.927 21 396.926 702.098 396.926ZM702.098 346.924 21 346.924 21 302.923 702.098 302.923ZM702.098 252.921 21 252.921 21 208.919 702.098 208.919ZM702.098 158.918 21 158.918 21 115.916 702.098 115.916ZM412.088 64.9148 21 64.9148 21 21.9134 412.088 21.9134Z" fill="#2D9DFF"/></g></g></g><g clip-path="url(#clip6)"><path d="M3053.1 2151.07 2296 2151.07 2296 2107.07 3053.1 2107.07ZM3053.1 2057.07 2296 2057.07 2296 2013.07 3053.1 2013.07ZM3053.1 1963.06 2296 1963.06 2296 1920.06 3053.1 1920.06ZM3053.1 1869.06 2296 1869.06 2296 1826.06 3053.1 1826.06ZM3053.1 1776.06 2296 1776.06 2296 1732.06 3053.1 1732.06ZM2977.1 1682.06 2296 1682.06 2296 1638.05 2977.1 1638.05ZM2977.1 1588.05 2296 1588.05 2296 1544.05 2977.1 1544.05ZM2977.1 1494.05 2296 1494.05 2296 1450.05 2977.1 1450.05ZM2977.1 1400.05 2296 1400.05 2296 1356.04 2977.1 1356.04ZM2977.1 1306.04 2296 1306.04 2296 1263.04 2977.1 1263.04ZM2687.09 1212.04 2296 1212.04 2296 1169.04 2687.09 1169.04Z" fill="#2D9DFF"/></g><g clip-path="url(#clip7)"><text fill="#D9D9D9" font-family="Calibri,Calibri_MSFontService,sans-serif" font-weight="400" font-size="41" transform="matrix(1 0 0 1 2714.88 1204)">5.2</text></g><g clip-path="url(#clip8)"><text fill="#D9D9D9" font-family="Calibri,Calibri_MSFontService,sans-serif" font-weight="400" font-size="41" transform="matrix(1 0 0 1 2285.75 2241)">0</text></g><g clip-path="url(#clip9)"><text fill="#D9D9D9" font-family="Calibri,Calibri_MSFontService,sans-serif" font-weight="400" font-size="41" transform="matrix(1 0 0 1 2512.85 2241)">3</text></g><g clip-path="url(#clip10)"><text fill="#D9D9D9" font-family="Calibri,Calibri_MSFontService,sans-serif" font-weight="400" font-size="41" transform="matrix(1 0 0 1 2739.96 2241)">6</text></g><g clip-path="url(#clip11)"><text fill="#D9D9D9" font-family="Calibri,Calibri_MSFontService,sans-serif" font-weight="400" font-size="41" transform="matrix(1 0 0 1 2967.06 2241)">9</text></g><g clip-path="url(#clip12)"><text fill="#D9D9D9" font-family="Calibri,Calibri_MSFontService,sans-serif" font-weight="400" font-size="41" transform="matrix(1 0 0 1 3183.72 2241)">12</text></g><g clip-path="url(#clip13)"><text fill="#FFFFFF" font-family="Calibri,Calibri_MSFontService,sans-serif" font-weight="400" font-size="48" transform="matrix(1 0 0 1 2037.91 2143)">aggregates</text></g><g clip-path="url(#clip14)"><text fill="#FFFFFF" font-family="Calibri,Calibri_MSFontService,sans-serif" font-weight="400" font-size="48" transform="matrix(1 0 0 1 2034.38 2049)">segregated</text></g><g clip-path="url(#clip15)"><text fill="#FFFFFF" font-family="Calibri,Calibri_MSFontService,sans-serif" font-weight="400" font-size="48" transform="matrix(1 0 0 1 2038.64 1955)">afterwards</text></g><g clip-path="url(#clip16)"><text fill="#FFFFFF" font-family="Calibri,Calibri_MSFontService,sans-serif" font-weight="400" font-size="48" transform="matrix(1 0 0 1 2034.22 1862)">devastated</text></g><g clip-path="url(#clip17)"><text fill="#FFFFFF" font-family="Calibri,Calibri_MSFontService,sans-serif" font-weight="400" font-size="48" transform="matrix(1 0 0 1 2033.26 1768)">aggravated</text></g><g clip-path="url(#clip18)"><text fill="#FFFFFF" font-family="Calibri,Calibri_MSFontService,sans-serif" font-weight="400" font-size="48" transform="matrix(1 0 0 1 2070.75 1674)">attracted</text></g><g clip-path="url(#clip19)"><text fill="#FFFFFF" font-family="Calibri,Calibri_MSFontService,sans-serif" font-weight="400" font-size="48" transform="matrix(1 0 0 1 2056.82 1580)">addresses</text></g><g clip-path="url(#clip20)"><text fill="#FFFFFF" font-family="Calibri,Calibri_MSFontService,sans-serif" font-weight="400" font-size="48" transform="matrix(1 0 0 1 2065.11 1486)">extracted</text></g><g clip-path="url(#clip21)"><text fill="#FFFFFF" font-family="Calibri,Calibri_MSFontService,sans-serif" font-weight="400" font-size="48" transform="matrix(1 0 0 1 2065.59 1392)">retreated</text></g><g clip-path="url(#clip22)"><text fill="#FFFFFF" font-family="Calibri,Calibri_MSFontService,sans-serif" font-weight="400" font-size="48" transform="matrix(1 0 0 1 2057.46 1298)">afterward</text></g><g clip-path="url(#clip23)"><text fill="#FFFFFF" font-family="Calibri,Calibri_MSFontService,sans-serif" font-weight="400" font-size="48" transform="matrix(1 0 0 1 1985.73 1205)">Average (left)</text></g><g clip-path="url(#clip24)"><text fill="#F2F2F2" font-family="Calibri,Calibri_MSFontService,sans-serif" font-weight="700" font-size="73" transform="matrix(1 0 0 1 2284.44 1067)">Longest Left Words</text></g></g></svg>