<svg width="1320" height="1320" xmlns="http://www.w3.org/2000/svg" xmlns:xlink="http://www.w3.org/1999/xlink" xml:space="preserve" overflow="hidden"><defs><clipPath id="clip0"><rect x="533" y="670" width="1320" height="1320"/></clipPath><clipPath id="clip1"><rect x="532" y="670" width="1320" height="1320"/></clipPath><clipPath id="clip2"><rect x="583" y="851" width="1222" height="1092"/></clipPath><clipPath id="clip3"><rect x="583" y="851" width="1222" height="1092"/></clipPath><clipPath id="clip4"><rect x="532" y="670" width="1320" height="1320"/></clipPath><clipPath id="clip5"><rect x="532" y="670" width="1320" height="1320"/></clipPath><clipPath id="clip6"><rect x="532" y="670" width="1320" height="1320"/></clipPath><clipPath id="clip7"><rect x="532" y="670" width="1320" height="1320"/></clipPath><clipPath id="clip8"><rect x="532" y="670" width="1320" height="1320"/></clipPath><clipPath id="clip9"><rect x="-996" y="141" width="4377" height="661"/></clipPath><clipPath id="clip10"><rect x="532" y="670" width="1321" height="1321"/></clipPath><clipPath id="clip11"><rect x="1395" y="1776" width="204" height="185"/></clipPath><clipPath id="clip12"><rect x="1395" y="1776" width="204" height="185"/></clipPath><clipPath id="clip13"><rect x="1395" y="1776" width="204" height="185"/></clipPath><clipPath id="clip14"><rect x="532" y="670" width="1321" height="1321"/></clipPath><clipPath id="clip15"><rect x="786" y="1779" width="204" height="185"/></clipPath><clipPath id="clip16"><rect x="786" y="1779" width="204" height="185"/></clipPath><clipPath id="clip17"><rect x="786" y="1779" width="204" height="185"/></clipPath></defs><g clip-path="url(#clip0)" transform="translate(-533 -670)"><rect x="533" y="670" width="1320" height="1320" fill="#404040"/><g clip-path="url(#clip1)"><path d="M583.5 1939.5 1802.5 1939.5M583.5 1758.56 1802.5 1758.56M583.5 1577.55 1802.5 1577.55M583.5 1395.55 1802.5 1395.55M583.5 1214.54 1802.5 1214.54M583.5 1032.53 1802.5 1032.53M583.5 851.5 1802.5 851.5" stroke="#F2F2F2" stroke-width="3.4375" stroke-linejoin="round" stroke-miterlimit="10" stroke-opacity="0.101961" fill="none"/></g><g clip-path="url(#clip2)"><rect x="783" y="1051" width="210" height="889" fill="#2D9DFF"/></g><g clip-path="url(#clip3)"><rect x="1393" y="1666" width="210" height="274" fill="#2D9DFF"/></g><g clip-path="url(#clip4)"><text fill="#FFFFFF" font-family="Calibri,Calibri_MSFontService,sans-serif" font-weight="400" font-size="55" transform="matrix(1 0 0 1 840.492 948)">76%</text></g><g clip-path="url(#clip5)"><text fill="#FFFFFF" font-family="Calibri,Calibri_MSFontService,sans-serif" font-weight="400" font-size="55" transform="matrix(1 0 0 1 846.221 1016)">490</text></g><g clip-path="url(#clip6)"><text fill="#FFFFFF" font-family="Calibri,Calibri_MSFontService,sans-serif" font-weight="400" font-size="55" transform="matrix(1 0 0 1 1450.07 1563)">24%</text></g><g clip-path="url(#clip7)"><text fill="#FFFFFF" font-family="Calibri,Calibri_MSFontService,sans-serif" font-weight="400" font-size="55" transform="matrix(1 0 0 1 1455.8 1631)">151</text></g><g clip-path="url(#clip8)"><g clip-path="url(#clip9)"><text fill="#F2F2F2" font-family="Calibri,Calibri_MSFontService,sans-serif" font-weight="700" font-size="73" transform="matrix(1 0 0 1 880.263 775)">Word Handedness</text></g></g><g clip-path="url(#clip10)"><g clip-path="url(#clip11)"><g clip-path="url(#clip12)"><g clip-path="url(#clip13)"><path d="M46.7032 43.8438C51.4688 43.8438 55.2813 47.6563 55.2813 52.4219L55.2813 89.5939C55.2813 90.547 56.2344 91.5001 57.1876 91.5001 58.1407 91.5001 59.0938 90.547 59.0938 89.5939L59.0938 33.3594C59.0938 28.5938 62.9063 24.7813 67.672 24.7813 72.4376 24.7813 76.2501 28.5938 76.2501 33.3594L76.2501 89.5939C76.2501 90.547 77.2032 91.5001 78.1563 91.5001 79.1095 91.5001 80.0626 90.547 80.0626 89.5939L80.0626 21.7313 80.0626 21.7313C80.0626 17.1563 83.8751 13.3438 88.6407 13.3438 93.4064 13.3438 97.2189 17.1563 97.2189 21.7313L97.2189 21.7313 97.2189 89.5939C97.2189 90.547 98.172 91.5001 99.1251 91.5001 100.078 91.5001 101.031 90.547 101.031 89.5939L101.031 33.3594C101.031 28.5938 104.844 24.7813 109.61 24.7813 114.375 24.7813 118.188 28.5938 118.188 33.3594L118.188 89.5939 118.188 111.516 126.003 76.2501C127.147 71.1032 132.294 67.8626 137.441 69.0063 142.588 70.1501 145.828 75.297 144.685 80.4439L133.247 131.913C132.675 133.819 131.531 135.725 129.625 137.25L108.656 153.453 108.656 167.75 53.3751 167.75 53.3751 158.219C53.3751 144.685 38.125 143.731 38.125 118.188 38.125 117.235 38.125 52.4219 38.125 52.4219 38.125 47.6563 41.9376 43.8438 46.7032 43.8438Z" fill="#404040" transform="matrix(-1.10382 0 0 1 1598 1777)"/></g></g></g></g><g clip-path="url(#clip14)"><g clip-path="url(#clip15)"><g clip-path="url(#clip16)"><g clip-path="url(#clip17)"><path d="M46.7032 43.8438C51.4688 43.8438 55.2813 47.6563 55.2813 52.4219L55.2813 89.5939C55.2813 90.547 56.2344 91.5001 57.1876 91.5001 58.1407 91.5001 59.0938 90.547 59.0938 89.5939L59.0938 33.3594C59.0938 28.5938 62.9063 24.7813 67.672 24.7813 72.4376 24.7813 76.2501 28.5938 76.2501 33.3594L76.2501 89.5939C76.2501 90.547 77.2032 91.5001 78.1563 91.5001 79.1095 91.5001 80.0626 90.547 80.0626 89.5939L80.0626 21.7313 80.0626 21.7313C80.0626 17.1563 83.8751 13.3438 88.6407 13.3438 93.4064 13.3438 97.2189 17.1563 97.2189 21.7313L97.2189 21.7313 97.2189 89.5939C97.2189 90.547 98.172 91.5001 99.1251 91.5001 100.078 91.5001 101.031 90.547 101.031 89.5939L101.031 33.3594C101.031 28.5938 104.844 24.7813 109.61 24.7813 114.375 24.7813 118.188 28.5938 118.188 33.3594L118.188 89.5939 118.188 111.516 126.003 76.2501C127.147 71.1032 132.294 67.8626 137.441 69.0063 142.588 70.1501 145.828 75.297 144.685 80.4439L133.247 131.913C132.675 133.819 131.531 135.725 129.625 137.25L108.656 153.453 108.656 167.75 53.3751 167.75 53.3751 158.219C53.3751 144.685 38.125 143.731 38.125 118.188 38.125 117.235 38.125 52.4219 38.125 52.4219 38.125 47.6563 41.9376 43.8438 46.7032 43.8438Z" fill="#404040" transform="matrix(1.11475 0 0 1 786 1780)"/></g></g></g></g></g></svg>